<svg width="180" height="37" viewBox="0 0 180 37" fill="none" xmlns="http://www.w3.org/2000/svg">
    <path d="M10.4448 22.2013C10.7132 21.6204 11.0305 21.1121 11.4453 20.7974C11.7138 20.6038 12.1286 20.4585 12.5923 20.4585C13.1048 20.4585 13.5928 20.6038 13.9833 20.9911C14.3494 21.3541 14.5202 21.7898 14.5202 22.4918C14.5202 23.2906 14.1053 24.7187 12.7631 26.0016C11.4941 27.2361 9.9567 27.8171 7.54074 27.8171C5.27119 27.8171 3.48973 27.0667 2.09872 25.687C0.0732124 23.6779 0 21.4026 0 17.5296C0 13.6567 0.0732124 11.3814 2.09872 9.37229C3.46532 7.99257 5.24679 7.24219 7.54074 7.24219C9.9811 7.24219 11.4941 7.82313 12.7631 9.05762C14.1053 10.3163 14.5202 11.7687 14.5202 12.5675C14.5202 13.2694 14.3738 13.7051 13.9833 14.0682C13.5928 14.4555 13.1048 14.6007 12.5923 14.6007C12.1286 14.6007 11.7138 14.4555 11.4453 14.2619C11.0549 13.9472 10.7376 13.4389 10.4448 12.8579C9.81027 11.4298 8.83413 10.7762 7.44312 10.7762C6.39376 10.7762 5.61284 11.2119 5.02716 11.8655C4.17303 12.8337 4.0266 13.9472 4.0266 17.5538C4.0266 21.1605 4.17303 22.274 5.02716 23.2422C5.61284 23.8957 6.39376 24.3314 7.44312 24.3314C8.83413 24.3072 9.78587 23.6295 10.4448 22.2013Z" fill="#F5821F"/>
    <path d="M26.0144 15.9078C26.8685 15.9078 27.1858 15.932 27.5762 16.1257C28.0887 16.392 28.4303 16.9729 28.4303 17.6507C28.4303 18.3526 28.0887 18.9336 27.5762 19.1756C27.1858 19.3693 26.8685 19.3935 26.0144 19.3935H20.2307V25.0576C20.2307 25.9774 20.2063 26.3163 19.9623 26.8004C19.6694 27.3572 19.0105 27.7445 18.2296 27.7445C17.4487 27.7445 16.7898 27.3572 16.497 26.8004C16.2529 26.3163 16.2285 26.0016 16.2285 25.0576V9.8322C16.2285 9.25126 16.2285 8.52509 16.7898 7.96835C17.3511 7.41162 18.0832 7.41162 18.6689 7.41162H27.4298C28.2839 7.41162 28.6012 7.43583 28.9916 7.62947C29.5041 7.89574 29.8458 8.47667 29.8458 9.15443C29.8458 9.8322 29.5041 10.4373 28.9916 10.6794C28.6012 10.873 28.2839 10.8972 27.4298 10.8972H20.2551V15.8836H26.0144V15.9078Z" fill="#F5821F"/>
    <path d="M43.5361 7.41162C44.073 7.41162 44.2683 7.46003 44.4879 7.58106C44.7563 7.7505 44.9028 8.04097 44.9028 8.37985C44.9028 8.71873 44.7563 9.0092 44.4879 9.17864C44.2683 9.29967 44.0974 9.34808 43.5361 9.34808H34.3116V16.4888H41.9743C42.5112 16.4888 42.7064 16.5372 42.9261 16.6582C43.1945 16.8277 43.3409 17.1181 43.3409 17.457C43.3409 17.7959 43.1945 18.0864 42.9261 18.2558C42.7064 18.3768 42.5356 18.4252 41.9743 18.4252H34.3116V25.7354H43.5361C44.073 25.7354 44.2683 25.7838 44.4879 25.9048C44.7563 26.0743 44.9028 26.3647 44.9028 26.7036C44.9028 27.0425 44.7563 27.333 44.4879 27.5024C44.2683 27.6234 44.0974 27.6718 43.5361 27.6718H33.433C33.0914 27.6718 32.7009 27.6718 32.4081 27.3814C32.1152 27.0909 32.1152 26.7036 32.1152 26.3647V8.71873C32.1152 8.37985 32.1152 7.99256 32.4081 7.70209C32.7009 7.41162 33.0914 7.41162 33.433 7.41162H43.5361Z" fill="#052569"/>
    <path d="M57.983 26.389C57.983 26.8973 57.9342 27.0909 57.7878 27.333C57.6414 27.5993 57.2997 27.7687 56.9337 27.7687C56.5676 27.7687 56.226 27.5751 56.0795 27.333C55.9331 27.0909 55.8843 26.8973 55.8843 26.389V19.0788C55.8843 16.5856 54.5909 15.3511 52.419 15.3511C50.2715 15.3511 48.8805 16.6098 48.8805 19.0788V26.389C48.8805 26.8973 48.8317 27.0909 48.6852 27.333C48.5388 27.5993 48.1972 27.7687 47.8311 27.7687C47.465 27.7687 47.1234 27.5751 46.977 27.333C46.8306 27.0909 46.7817 26.8973 46.7817 26.389V14.9396C46.7817 14.4313 46.8061 14.2377 46.977 13.9956C47.1234 13.7294 47.4406 13.5599 47.8311 13.5599C48.2216 13.5599 48.5388 13.7536 48.6852 13.9956C48.8317 14.2619 48.8805 14.4555 48.8805 14.9396V15.2059C49.9054 14.0924 51.272 13.4873 52.8339 13.4873C54.3713 13.4873 55.6159 13.9472 56.4944 14.7944C57.495 15.7626 57.9586 17.094 57.9586 18.7157V26.389H57.983Z" fill="#052569"/>
    <path d="M69.2822 27.5855V25.3585C68.1597 26.8351 66.8175 27.2224 65.3044 27.2224C63.8646 27.2224 62.62 26.7141 61.8635 25.9637C60.4481 24.5597 60.1309 22.4054 60.1309 20.1301C60.1309 17.8548 60.4481 15.7004 61.8635 14.2965C62.62 13.5461 63.889 13.062 65.3288 13.062C66.8663 13.062 68.1353 13.4009 69.2822 14.8774V14.5144C69.2822 14.006 69.3066 13.8124 69.4775 13.5703C69.6239 13.3041 69.9411 13.1346 70.3316 13.1346C70.722 13.1346 71.0393 13.3283 71.1857 13.5703C71.3321 13.8366 71.381 14.0302 71.381 14.5144V27.6339C71.381 31.0953 69.1602 33.6369 65.4265 33.6369C64.0842 33.6369 63.1813 33.4433 62.2784 32.9591C61.7659 32.6687 60.7898 32.0393 60.7898 31.4342C60.7898 30.8532 61.2778 30.4902 61.6683 30.4902C61.9611 30.4902 62.2052 30.6112 62.7176 31.0227C63.4986 31.652 64.3771 31.8699 65.3776 31.8699C68.1109 31.8457 69.2822 29.9576 69.2822 27.5855ZM65.7681 14.9259C62.6932 14.9259 62.2296 17.5401 62.2296 20.1543C62.2296 22.7685 62.6932 25.3343 65.7681 25.3343C68.843 25.3343 69.2578 22.7201 69.2578 20.1301C69.2578 17.5401 68.843 14.9259 65.7681 14.9259Z" fill="#052569"/>
    <path d="M75.4154 7C76.1963 7 76.8308 7.62935 76.8308 8.40393C76.8308 9.17852 76.1963 9.80787 75.4154 9.80787C74.6345 9.80787 74 9.17852 74 8.40393C74 7.62935 74.6345 7 75.4154 7ZM76.4648 26.3888C76.4648 26.8971 76.4404 27.0908 76.2695 27.3328C76.1231 27.5991 75.8059 27.7685 75.4154 27.7685C75.025 27.7685 74.7077 27.5749 74.5613 27.3328C74.4149 27.0666 74.3661 26.8729 74.3661 26.3888V14.9395C74.3661 14.4312 74.3905 14.2375 74.5613 13.9955C74.7077 13.7292 75.025 13.5598 75.4154 13.5598C75.8059 13.5598 76.1231 13.7534 76.2695 13.9955C76.416 14.2617 76.4648 14.4554 76.4648 14.9395V26.3888Z" fill="#052569"/>
    <path d="M90.9034 26.389C90.9034 26.8973 90.8546 27.0909 90.7082 27.333C90.5618 27.5993 90.2201 27.7687 89.8541 27.7687C89.488 27.7687 89.1464 27.5751 88.9999 27.333C88.8535 27.0909 88.8047 26.8973 88.8047 26.389V19.0788C88.8047 16.5856 87.5113 15.3511 85.3394 15.3511C83.1919 15.3511 81.8009 16.6098 81.8009 19.0788V26.389C81.8009 26.8973 81.7521 27.0909 81.6056 27.333C81.4592 27.5993 81.1176 27.7687 80.7515 27.7687C80.3855 27.7687 80.0438 27.5751 79.8974 27.333C79.751 27.0909 79.7021 26.8973 79.7021 26.389V14.9396C79.7021 14.4313 79.7266 14.2377 79.8974 13.9956C80.0438 13.7294 80.3611 13.5599 80.7515 13.5599C81.142 13.5599 81.4592 13.7536 81.6056 13.9956C81.7521 14.2619 81.8009 14.4555 81.8009 14.9396V15.2059C82.8258 14.0924 84.1924 13.4873 85.7543 13.4873C87.2917 13.4873 88.5363 13.9472 89.4148 14.7944C90.4154 15.7626 90.879 17.094 90.879 18.7157V26.389H90.9034Z" fill="#052569"/>
    <path d="M95.1012 21.1845C95.1012 24.2344 96.5654 26.0257 99.2986 26.0257C100.397 26.0257 101.471 25.7352 102.325 25.009C102.764 24.6459 102.984 24.5007 103.301 24.5007C103.74 24.5007 104.179 24.9364 104.179 25.3963C104.179 26.0257 103.276 26.655 102.715 26.9939C101.861 27.5022 100.641 27.7927 99.201 27.7927C95.4672 27.7927 93.0269 25.5658 93.0269 20.6278C93.0269 16.0045 95.2964 13.4629 98.8593 13.4629C102.447 13.4629 104.619 16.0529 104.643 19.95C104.643 20.2405 104.619 20.6278 104.35 20.8941C104.082 21.1603 103.764 21.1603 103.423 21.1603H95.1012V21.1845ZM102.569 19.6112C102.52 18.6187 102.447 18.1104 102.129 17.3358C101.593 16.0529 100.372 15.2541 98.8349 15.2541C97.2975 15.2541 96.0529 16.0771 95.5404 17.3358C95.2232 18.1104 95.15 18.6187 95.1012 19.6112H102.569Z" fill="#052569"/>
    <path d="M112.764 28V8.39999H120.296C121.752 8.39999 123.115 8.65199 124.384 9.15599C125.653 9.65999 126.745 10.3507 127.66 11.228C128.593 12.1053 129.321 13.1507 129.844 14.364C130.385 15.5773 130.656 16.8747 130.656 18.256C130.656 19.6187 130.385 20.8973 129.844 22.092C129.321 23.2867 128.593 24.3227 127.66 25.2C126.745 26.0587 125.653 26.74 124.384 27.244C123.115 27.748 121.752 28 120.296 28H112.764ZM120.268 12.012H116.824V24.388H120.268C121.127 24.388 121.929 24.2293 122.676 23.912C123.441 23.5947 124.104 23.1653 124.664 22.624C125.224 22.064 125.663 21.4107 125.98 20.664C126.297 19.9173 126.456 19.1147 126.456 18.256C126.456 17.3787 126.297 16.5573 125.98 15.792C125.663 15.0267 125.224 14.364 124.664 13.804C124.104 13.244 123.441 12.8053 122.676 12.488C121.929 12.1707 121.127 12.012 120.268 12.012ZM133.072 20.72C133.072 19.656 133.268 18.6667 133.66 17.752C134.071 16.8187 134.621 16.016 135.312 15.344C136.021 14.6533 136.852 14.112 137.804 13.72C138.756 13.328 139.773 13.132 140.856 13.132C141.939 13.132 142.956 13.328 143.908 13.72C144.86 14.112 145.681 14.6533 146.372 15.344C147.081 16.016 147.632 16.8187 148.024 17.752C148.435 18.6667 148.64 19.656 148.64 20.72C148.64 21.784 148.435 22.7827 148.024 23.716C147.632 24.6307 147.081 25.424 146.372 26.096C145.681 26.768 144.86 27.3 143.908 27.692C142.956 28.084 141.939 28.28 140.856 28.28C139.773 28.28 138.756 28.084 137.804 27.692C136.852 27.3 136.021 26.768 135.312 26.096C134.621 25.424 134.071 24.6307 133.66 23.716C133.268 22.7827 133.072 21.784 133.072 20.72ZM140.856 24.948C141.976 24.948 142.928 24.5373 143.712 23.716C144.496 22.8947 144.888 21.896 144.888 20.72C144.888 19.5253 144.496 18.5173 143.712 17.696C142.928 16.8747 141.976 16.464 140.856 16.464C139.736 16.464 138.784 16.8747 138 17.696C137.216 18.5173 136.824 19.5253 136.824 20.72C136.824 21.896 137.216 22.8947 138 23.716C138.784 24.5373 139.736 24.948 140.856 24.948ZM158.807 24.92C159.46 24.92 160.067 24.7893 160.627 24.528C161.206 24.2667 161.756 23.856 162.279 23.296L164.575 25.676C163.828 26.4973 162.932 27.1413 161.887 27.608C160.842 28.056 159.759 28.28 158.639 28.28C157.575 28.28 156.567 28.084 155.615 27.692C154.682 27.3 153.87 26.768 153.179 26.096C152.507 25.424 151.975 24.6307 151.583 23.716C151.191 22.7827 150.995 21.784 150.995 20.72C150.995 19.656 151.191 18.6667 151.583 17.752C151.975 16.8187 152.507 16.016 153.179 15.344C153.87 14.6533 154.682 14.112 155.615 13.72C156.567 13.328 157.575 13.132 158.639 13.132C159.796 13.132 160.907 13.3653 161.971 13.832C163.035 14.28 163.94 14.9147 164.687 15.736L162.335 18.228C161.812 17.6493 161.252 17.2107 160.655 16.912C160.058 16.6133 159.414 16.464 158.723 16.464C157.622 16.464 156.688 16.8747 155.923 17.696C155.176 18.5173 154.803 19.5253 154.803 20.72C154.803 21.9147 155.186 22.9133 155.951 23.716C156.735 24.5187 157.687 24.92 158.807 24.92ZM166.034 26.264L167.938 23.716C168.797 24.276 169.609 24.696 170.374 24.976C171.14 25.2373 171.905 25.368 172.67 25.368C173.529 25.368 174.21 25.228 174.714 24.948C175.237 24.668 175.498 24.2947 175.498 23.828C175.498 23.4547 175.349 23.156 175.05 22.932C174.77 22.708 174.313 22.5493 173.678 22.456L170.878 22.036C169.441 21.812 168.34 21.3453 167.574 20.636C166.828 19.9267 166.454 18.984 166.454 17.808C166.454 16.408 167.005 15.288 168.106 14.448C169.208 13.608 170.682 13.188 172.53 13.188C173.594 13.188 174.63 13.3467 175.638 13.664C176.646 13.9627 177.608 14.4107 178.522 15.008L176.674 17.472C175.872 17.0053 175.106 16.66 174.378 16.436C173.65 16.1933 172.913 16.072 172.166 16.072C171.476 16.072 170.916 16.2027 170.486 16.464C170.076 16.7253 169.87 17.0707 169.87 17.5C169.87 17.892 170.02 18.2 170.318 18.424C170.636 18.6293 171.149 18.7787 171.858 18.872L174.658 19.292C176.077 19.4973 177.169 19.964 177.934 20.692C178.718 21.42 179.11 22.344 179.11 23.464C179.11 24.1547 178.942 24.7987 178.606 25.396C178.289 25.9747 177.85 26.4787 177.29 26.908C176.73 27.3373 176.058 27.6733 175.274 27.916C174.49 28.1587 173.641 28.28 172.726 28.28C171.401 28.28 170.16 28.112 169.002 27.776C167.845 27.4213 166.856 26.9173 166.034 26.264Z" fill="#052569"/>
</svg>
