<svg fill="rgb(245, 130, 31)" height="512" viewBox="0 0 74 74" width="512" xmlns="http://www.w3.org/2000/svg">
    <g id="Numbers">
        <text fill="rgb(245, 130, 31)" font-family="ArialMT, Arial" font-size="18"
              transform="translate(30.995 -1010.544)">1
            <tspan letter-spacing="-.074em" x="-4.337" y="124">1</tspan>
            <tspan x="4.337" y="124">1</tspan>
            <tspan x="-5.005" y="248">21</tspan>
            <tspan x="-5.005" y="372">31</tspan>
            <tspan x="-5.005" y="496">41</tspan>
            <tspan x="-5.005" y="620">51</tspan>
            <tspan x="-5.005" y="744">61</tspan>
            <tspan x="-5.005" y="868">71</tspan>
            <tspan x="-5.005" y="992">81</tspan>
            <tspan x="-5.005" y="1116">91</tspan>
            <tspan x="-10.011" y="1240">101</tspan>
            <tspan letter-spacing="-.074em" x="-8.675" y="1364">11</tspan>
            <tspan x="8.675" y="1364">1</tspan>
            <tspan x="-10.011" y="1488">121</tspan>
            <tspan x="-10.011" y="1612">131</tspan>
            <tspan x="-10.011" y="1736">141</tspan>
            <tspan x="-10.011" y="1860">151</tspan>
            <tspan x="-10.011" y="1984">161</tspan>
            <tspan x="-10.011" y="2108">171</tspan>
            <tspan x="-10.011" y="2232">181</tspan>
            <tspan x="-10.011" y="2356">191</tspan>
            <tspan x="-10.011" y="2480">201</tspan>
            <tspan x="-9.343" y="2604">2</tspan>
            <tspan letter-spacing="-.074em" x=".668" y="2604">1</tspan>
            <tspan x="9.343" y="2604">1</tspan>
            <tspan x="-10.011" y="2728">221</tspan>
            <tspan x="-10.011" y="2852">231</tspan>
            <tspan x="-10.011" y="2976">241</tspan>
            <tspan x="-10.011" y="3100">251</tspan>
            <tspan x="-10.011" y="3224">261</tspan>
            <tspan x="-10.011" y="3348">271</tspan>
            <tspan x="-10.011" y="3472">281</tspan>
            <tspan x="-10.011" y="3596">291</tspan>
        </text>
    </g>
    <g id="_2_PT" data-name="2 PT">
        <path d="m69 72h-64a3 3 0 0 1 -3-3v-64a3 3 0 0 1 3-3h64a3 3 0 0 1 3 3v64a3 3 0 0 1 -3 3zm-64-68a1 1 0 0 0 -1 1v64a1 1 0 0 0 1 1h64a1 1 0 0 0 1-1v-64a1 1 0 0 0 -1-1z"/>
        <path d="m3 18h68v2h-68z"/>
        <path d="m63 15a4 4 0 1 1 4-4 4 4 0 0 1 -4 4zm0-6a2 2 0 1 0 2 2 2 2 0 0 0 -2-2z"/>
        <path d="m52 15a4 4 0 1 1 4-4 4 4 0 0 1 -4 4zm0-6a2 2 0 1 0 2 2 2 2 0 0 0 -2-2z"/>
        <path d="m41 15a4 4 0 1 1 4-4 4 4 0 0 1 -4 4zm0-6a2 2 0 1 0 2 2 2 2 0 0 0 -2-2z"/>
        <path d="m31 46h-21a1 1 0 0 1 -1-1v-19a1 1 0 0 1 1-1h21a1 1 0 0 1 1 1v19a1 1 0 0 1 -1 1zm-20-2h19v-17h-19z"/>
        <path d="m37 26h28v2h-28z"/>
        <path d="m37 35h28v2h-28z"/>
        <path d="m37 44h28v2h-28z"/>
        <path d="m9 53h56v2h-56z"/>
        <path d="m9 62h56v2h-56z"/>
    </g>
</svg>
