<svg viewBox="0 0 112 27" fill="none" xmlns="http://www.w3.org/2000/svg">
    <g clip-path="url(#clip0)">
        <path d="M32.6755 16.9924C32.9015 16.5022 33.1687 16.0733 33.518 15.8078C33.7441 15.6444 34.0935 15.5219 34.4839 15.5219C34.9155 15.5219 35.3265 15.6444 35.6553 15.9712C35.9635 16.2776 36.1074 16.6452 36.1074 17.2375C36.1074 17.9115 35.758 19.1164 34.6278 20.1989C33.5591 21.2405 32.2645 21.7307 30.23 21.7307C28.3188 21.7307 26.8186 21.0975 25.6472 19.9334C23.9415 18.2382 23.8799 16.3184 23.8799 13.0506C23.8799 9.78286 23.9415 7.86304 25.6472 6.16788C26.798 5.00374 28.2982 4.37061 30.23 4.37061C32.285 4.37061 33.5591 4.86077 34.6278 5.90238C35.758 6.9644 36.1074 8.18982 36.1074 8.8638C36.1074 9.45608 35.9841 9.82371 35.6553 10.1301C35.3265 10.4568 34.9155 10.5794 34.4839 10.5794C34.0935 10.5794 33.7441 10.4568 33.518 10.2935C33.1892 10.0279 32.9221 9.59905 32.6755 9.10888C32.1412 7.90389 31.3191 7.35245 30.1478 7.35245C29.2641 7.35245 28.6065 7.72008 28.1133 8.27151C27.394 9.08846 27.2707 10.0279 27.2707 13.0711C27.2707 16.1142 27.394 17.0537 28.1133 17.8706C28.6065 18.422 29.2641 18.7897 30.1478 18.7897C31.3191 18.7692 32.1206 18.1974 32.6755 16.9924Z"
              fill="white"/>
        <path d="M45.7866 11.6824C46.5059 11.6824 46.7731 11.7028 47.1019 11.8662C47.5334 12.0908 47.8211 12.581 47.8211 13.1529C47.8211 13.7451 47.5334 14.2353 47.1019 14.4395C46.7731 14.6029 46.5059 14.6234 45.7866 14.6234H40.9162V19.4025C40.9162 20.1786 40.8956 20.4645 40.6901 20.873C40.4435 21.3427 39.8886 21.6695 39.231 21.6695C38.5734 21.6695 38.0186 21.3427 37.772 20.873C37.5665 20.4645 37.5459 20.199 37.5459 19.4025V6.55603C37.5459 6.06587 37.5459 5.45316 38.0186 4.98341C38.4912 4.51367 39.1077 4.51367 39.6009 4.51367H46.9786C47.6978 4.51367 47.965 4.5341 48.2938 4.69748C48.7253 4.92214 49.0131 5.41231 49.0131 5.98417C49.0131 6.55603 48.7253 7.06662 48.2938 7.27086C47.965 7.43425 47.6978 7.45467 46.9786 7.45467H40.9367V11.6619H45.7866V11.6824Z"
              fill="white"/>
        <path d="M60.5419 4.51367C60.994 4.51367 61.1584 4.55452 61.3434 4.65664C61.5694 4.7996 61.6927 5.04469 61.6927 5.33062C61.6927 5.61655 61.5694 5.86163 61.3434 6.00459C61.1584 6.10671 61.0146 6.14756 60.5419 6.14756H52.7739V12.1725H59.2267C59.6788 12.1725 59.8432 12.2134 60.0282 12.3155C60.2542 12.4585 60.3775 12.7035 60.3775 12.9895C60.3775 13.2754 60.2542 13.5205 60.0282 13.6634C59.8432 13.7656 59.6994 13.8064 59.2267 13.8064H52.7739V19.9743H60.5419C60.994 19.9743 61.1584 20.0152 61.3434 20.1173C61.5694 20.2603 61.6927 20.5054 61.6927 20.7913C61.6927 21.0772 61.5694 21.3223 61.3434 21.4653C61.1584 21.5674 61.0146 21.6082 60.5419 21.6082H52.034C51.7463 21.6082 51.4175 21.6082 51.1709 21.3631C50.9243 21.1181 50.9243 20.7913 50.9243 20.5054V5.61655C50.9243 5.33062 50.9243 5.00384 51.1709 4.75875C51.4175 4.51367 51.7463 4.51367 52.034 4.51367H60.5419Z"
              fill="white"/>
        <path d="M72.7076 20.5259C72.7076 20.9548 72.6665 21.1182 72.5432 21.3224C72.4199 21.5471 72.1322 21.6901 71.8239 21.6901C71.5156 21.6901 71.2279 21.5267 71.1046 21.3224C70.9813 21.1182 70.9402 20.9548 70.9402 20.5259V14.358C70.9402 12.2544 69.8511 11.2128 68.0221 11.2128C66.2136 11.2128 65.0422 12.2748 65.0422 14.358V20.5259C65.0422 20.9548 65.0011 21.1182 64.8778 21.3224C64.7545 21.5471 64.4668 21.6901 64.1586 21.6901C63.8503 21.6901 63.5626 21.5267 63.4393 21.3224C63.316 21.1182 63.2749 20.9548 63.2749 20.5259V10.8656C63.2749 10.4367 63.2955 10.2733 63.4393 10.069C63.5626 9.84437 63.8298 9.70141 64.1586 9.70141C64.4874 9.70141 64.7545 9.8648 64.8778 10.069C65.0011 10.2937 65.0422 10.4571 65.0422 10.8656V11.0902C65.9054 10.1507 67.0562 9.64014 68.3714 9.64014C69.6661 9.64014 70.7142 10.0282 71.454 10.743C72.2966 11.56 72.687 12.6833 72.687 14.0516V20.5259H72.7076Z"
              fill="white"/>
        <path d="M82.2225 21.8943V20.0153C81.2772 21.2612 80.1469 21.5879 78.8728 21.5879C77.6603 21.5879 76.6123 21.159 75.9752 20.5259C74.7833 19.3413 74.5161 17.5236 74.5161 15.6038C74.5161 13.684 74.7833 11.8663 75.9752 10.6817C76.6123 10.0486 77.6809 9.64014 78.8934 9.64014C80.188 9.64014 81.2567 9.92607 82.2225 11.1719V10.8656C82.2225 10.4367 82.2431 10.2733 82.3869 10.069C82.5102 9.84437 82.7774 9.70141 83.1062 9.70141C83.435 9.70141 83.7022 9.8648 83.8255 10.069C83.9488 10.2937 83.9899 10.4571 83.9899 10.8656V21.9351C83.9899 24.8557 82.1198 27.0002 78.9756 27.0002C77.8453 27.0002 77.0849 26.8368 76.3246 26.4283C75.893 26.1833 75.071 25.6522 75.071 25.1416C75.071 24.6515 75.482 24.3451 75.8108 24.3451C76.0574 24.3451 76.2629 24.4472 76.6945 24.7944C77.3521 25.3255 78.0919 25.5093 78.9345 25.5093C81.2361 25.4888 82.2225 23.8958 82.2225 21.8943ZM79.2633 11.2128C76.6739 11.2128 76.2835 13.4185 76.2835 15.6243C76.2835 17.83 76.6739 19.9949 79.2633 19.9949C81.8526 19.9949 82.202 17.7892 82.202 15.6038C82.202 13.4185 81.8526 11.2128 79.2633 11.2128Z"
              fill="white"/>
        <path d="M87.4834 4.1665C88.141 4.1665 88.6754 4.69752 88.6754 5.35107C88.6754 6.00463 88.141 6.53564 87.4834 6.53564C86.8258 6.53564 86.2915 6.00463 86.2915 5.35107C86.2915 4.69752 86.8258 4.1665 87.4834 4.1665ZM88.3671 20.5258C88.3671 20.9547 88.3465 21.1181 88.2027 21.3223C88.0794 21.547 87.8122 21.69 87.4834 21.69C87.1546 21.69 86.8875 21.5266 86.7642 21.3223C86.6409 21.0977 86.5998 20.9343 86.5998 20.5258V10.8654C86.5998 10.4366 86.6203 10.2732 86.7642 10.0689C86.8875 9.84427 87.1546 9.7013 87.4834 9.7013C87.8122 9.7013 88.0794 9.86469 88.2027 10.0689C88.326 10.2936 88.3671 10.457 88.3671 10.8654V20.5258Z"
              fill="white"/>
        <path d="M100.43 20.5259C100.43 20.9548 100.389 21.1182 100.266 21.3224C100.143 21.5471 99.8548 21.6901 99.5466 21.6901C99.2383 21.6901 98.9506 21.5267 98.8273 21.3224C98.704 21.1182 98.6629 20.9548 98.6629 20.5259V14.358C98.6629 12.2544 97.5737 11.2128 95.7447 11.2128C93.9363 11.2128 92.7649 12.2748 92.7649 14.358V20.5259C92.7649 20.9548 92.7238 21.1182 92.6005 21.3224C92.4772 21.5471 92.1895 21.6901 91.8812 21.6901C91.573 21.6901 91.2853 21.5267 91.162 21.3224C91.0387 21.1182 90.9976 20.9548 90.9976 20.5259V10.8656C90.9976 10.4367 91.0181 10.2733 91.162 10.069C91.2853 9.84437 91.5524 9.70141 91.8812 9.70141C92.21 9.70141 92.4772 9.8648 92.6005 10.069C92.7238 10.2937 92.7649 10.4571 92.7649 10.8656V11.0902C93.628 10.1507 94.7788 9.64014 96.0941 9.64014C97.3888 9.64014 98.4368 10.0282 99.1766 10.743C100.019 11.56 100.41 12.6833 100.41 14.0516V20.5259H100.43Z"
              fill="white"/>
        <path d="M103.965 16.1348C103.965 18.7081 105.198 20.2195 107.499 20.2195C108.424 20.2195 109.328 19.9744 110.048 19.3617C110.417 19.0553 110.602 18.9328 110.87 18.9328C111.239 18.9328 111.609 19.3004 111.609 19.6885C111.609 20.2195 110.849 20.7505 110.376 21.0364C109.657 21.4653 108.63 21.7104 107.417 21.7104C104.273 21.7104 102.218 19.8314 102.218 15.665C102.218 11.7641 104.129 9.61963 107.129 9.61963C110.15 9.61963 111.979 11.805 112 15.0932C112 15.3382 111.979 15.665 111.753 15.8897C111.527 16.1143 111.26 16.1143 110.972 16.1143H103.965V16.1348ZM110.253 14.8072C110.212 13.9699 110.15 13.541 109.883 12.8874C109.431 11.805 108.403 11.131 107.109 11.131C105.814 11.131 104.766 11.8254 104.334 12.8874C104.067 13.541 104.006 13.9699 103.965 14.8072H110.253Z"
              fill="white"/>
        <path d="M5.9595 0C6.61712 0 7.15143 0.531014 7.15143 1.18457C7.15143 1.83812 6.61712 2.36914 5.9595 2.36914C5.30189 2.36914 4.76758 1.83812 4.76758 1.18457C4.76758 0.531014 5.30189 0 5.9595 0Z"
              fill="white"/>
        <path d="M8.34329 0C9.00091 0 9.53522 0.531014 9.53522 1.18457C9.53522 1.83812 9.00091 2.36914 8.34329 2.36914C7.68568 2.36914 7.15137 1.83812 7.15137 1.18457C7.15137 0.531014 7.68568 0 8.34329 0Z"
              fill="white"/>
        <path d="M10.7482 0C11.4058 0 11.9401 0.531014 11.9401 1.18457C11.9401 1.83812 11.4058 2.36914 10.7482 2.36914C10.0905 2.36914 9.55624 1.83812 9.55624 1.18457C9.53569 0.531014 10.07 0 10.7482 0Z"
              fill="white"/>
        <path d="M5.9595 2.36914C6.61712 2.36914 7.15143 2.90015 7.15143 3.55371C7.15143 4.20726 6.61712 4.73828 5.9595 4.73828C5.30189 4.73828 4.76758 4.20726 4.76758 3.55371C4.76758 2.90015 5.30189 2.36914 5.9595 2.36914Z"
              fill="white"/>
        <path d="M8.34329 2.36914C9.00091 2.36914 9.53522 2.90015 9.53522 3.55371C9.53522 4.20726 9.00091 4.73828 8.34329 4.73828C7.68568 4.73828 7.15137 4.20726 7.15137 3.55371C7.15137 2.90015 7.68568 2.36914 8.34329 2.36914Z"
              fill="white"/>
        <path d="M10.7482 2.36914C11.4058 2.36914 11.9401 2.90015 11.9401 3.55371C11.9401 4.20726 11.4058 4.73828 10.7482 4.73828C10.0905 4.73828 9.55624 4.20726 9.55624 3.55371C9.53569 2.90015 10.07 2.36914 10.7482 2.36914Z"
              fill="white"/>
        <path d="M5.9595 7.10742C6.61712 7.10742 7.15143 7.63844 7.15143 8.29199C7.15143 8.94555 6.61712 9.47656 5.9595 9.47656C5.30189 9.47656 4.76758 8.94555 4.76758 8.29199C4.76758 7.63844 5.30189 7.10742 5.9595 7.10742Z"
              fill="white"/>
        <path d="M8.34329 7.10742C9.00091 7.10742 9.53522 7.63844 9.53522 8.29199C9.53522 8.94555 9.00091 9.47656 8.34329 9.47656C7.68568 9.47656 7.15137 8.94555 7.15137 8.29199C7.15137 7.63844 7.68568 7.10742 8.34329 7.10742Z"
              fill="white"/>
        <path d="M10.7482 7.10742C11.4058 7.10742 11.9401 7.63844 11.9401 8.29199C11.9401 8.94555 11.4058 9.47656 10.7482 9.47656C10.0905 9.47656 9.55624 8.94555 9.55624 8.29199C9.53569 7.63844 10.07 7.10742 10.7482 7.10742Z"
              fill="white"/>
        <path d="M5.9595 9.47656C6.61712 9.47656 7.15143 10.0076 7.15143 10.6611C7.15143 11.3147 6.61712 11.8457 5.9595 11.8457C5.30189 11.8457 4.76758 11.3147 4.76758 10.6611C4.76758 10.0076 5.30189 9.47656 5.9595 9.47656Z"
              fill="white"/>
        <path d="M8.34329 9.47656C9.00091 9.47656 9.53522 10.0076 9.53522 10.6611C9.53522 11.3147 9.00091 11.8457 8.34329 11.8457C7.68568 11.8457 7.15137 11.3147 7.15137 10.6611C7.15137 10.0076 7.68568 9.47656 8.34329 9.47656Z"
              fill="white"/>
        <path d="M10.7482 9.47656C11.4058 9.47656 11.9401 10.0076 11.9401 10.6611C11.9401 11.3147 11.4058 11.8457 10.7482 11.8457C10.0905 11.8457 9.55624 11.3147 9.55624 10.6611C9.53569 10.0076 10.07 9.47656 10.7482 9.47656Z"
              fill="white"/>
        <path d="M5.9595 11.8662C6.61712 11.8662 7.15143 12.3972 7.15143 13.0508C7.15143 13.7043 6.61712 14.2353 5.9595 14.2353C5.30189 14.2353 4.76758 13.7043 4.76758 13.0508C4.76758 12.3972 5.30189 11.8662 5.9595 11.8662Z"
              fill="white"/>
        <path d="M8.34329 11.8662C9.00091 11.8662 9.53522 12.3972 9.53522 13.0508C9.53522 13.7043 9.00091 14.2353 8.34329 14.2353C7.68568 14.2353 7.15137 13.7043 7.15137 13.0508C7.15137 12.3972 7.68568 11.8662 8.34329 11.8662Z"
              fill="white"/>
        <path d="M10.7482 11.8662C11.4058 11.8662 11.9401 12.3972 11.9401 13.0508C11.9401 13.7043 11.4058 14.2353 10.7482 14.2353C10.0905 14.2353 9.55624 13.7043 9.55624 13.0508C9.53569 12.3972 10.07 11.8662 10.7482 11.8662Z"
              fill="white"/>
        <path d="M1.19193 7.10742C1.84954 7.10742 2.38385 7.63844 2.38385 8.29199C2.38385 8.94555 1.84954 9.47656 1.19193 9.47656C0.534312 9.47656 0 8.94555 0 8.29199C0 7.63844 0.534312 7.10742 1.19193 7.10742Z"
              fill="white"/>
        <path d="M1.19193 9.47656C1.84954 9.47656 2.38385 10.0076 2.38385 10.6611C2.38385 11.3147 1.84954 11.8457 1.19193 11.8457C0.534312 11.8457 0 11.3147 0 10.6611C0 10.0076 0.534312 9.47656 1.19193 9.47656Z"
              fill="white"/>
        <path d="M1.19193 11.8662C1.84954 11.8662 2.38385 12.3972 2.38385 13.0508C2.38385 13.7043 1.84954 14.2353 1.19193 14.2353C0.534312 14.2353 0 13.7043 0 13.0508C0 12.3972 0.534312 11.8662 1.19193 11.8662Z"
              fill="white"/>
        <path d="M1.19193 14.2354C1.84954 14.2354 2.38385 14.7664 2.38385 15.4199C2.38385 16.0735 1.84954 16.6045 1.19193 16.6045C0.534312 16.6045 0 16.0735 0 15.4199C0 14.7664 0.534312 14.2354 1.19193 14.2354Z"
              fill="white"/>
        <path d="M15.5157 7.10742C16.1733 7.10742 16.7076 7.63844 16.7076 8.29199C16.7076 8.94555 16.1733 9.47656 15.5157 9.47656C14.858 9.47656 14.3237 8.94555 14.3237 8.29199C14.3237 7.63844 14.858 7.10742 15.5157 7.10742Z"
              fill="white"/>
        <path d="M15.5157 9.47656C16.1733 9.47656 16.7076 10.0076 16.7076 10.6611C16.7076 11.3147 16.1733 11.8457 15.5157 11.8457C14.858 11.8457 14.3237 11.3147 14.3237 10.6611C14.3237 10.0076 14.858 9.47656 15.5157 9.47656Z"
              fill="white"/>
        <path d="M15.5157 11.8662C16.1733 11.8662 16.7076 12.3972 16.7076 13.0508C16.7076 13.7043 16.1733 14.2353 15.5157 14.2353C14.858 14.2353 14.3237 13.7043 14.3237 13.0508C14.3237 12.3972 14.858 11.8662 15.5157 11.8662Z"
              fill="white"/>
        <path d="M15.5157 14.2354C16.1733 14.2354 16.7076 14.7664 16.7076 15.4199C16.7076 16.0735 16.1733 16.6045 15.5157 16.6045C14.858 16.6045 14.3237 16.0735 14.3237 15.4199C14.3237 14.7664 14.858 14.2354 15.5157 14.2354Z"
              fill="white"/>
        <path d="M5.9595 16.6045C6.61712 16.6045 7.15143 17.1355 7.15143 17.7891C7.15143 18.4426 6.61712 18.9736 5.9595 18.9736C5.30189 18.9736 4.76758 18.4426 4.76758 17.7891C4.76758 17.1355 5.30189 16.6045 5.9595 16.6045Z"
              fill="white"/>
        <path d="M5.9595 18.9736C6.61712 18.9736 7.15143 19.5046 7.15143 20.1582C7.15143 20.8118 6.61712 21.3428 5.9595 21.3428C5.30189 21.3428 4.76758 20.8118 4.76758 20.1582C4.76758 19.5046 5.30189 18.9736 5.9595 18.9736Z"
              fill="white"/>
        <path d="M5.9595 21.3428C6.61712 21.3428 7.15143 21.8738 7.15143 22.5273C7.15143 23.1809 6.61712 23.7119 5.9595 23.7119C5.30189 23.7119 4.76758 23.1809 4.76758 22.5273C4.76758 21.8738 5.30189 21.3428 5.9595 21.3428Z"
              fill="white"/>
        <path d="M5.9595 23.7119C6.61712 23.7119 7.15143 24.2429 7.15143 24.8965C7.15143 25.55 6.61712 26.0811 5.9595 26.0811C5.30189 26.0811 4.76758 25.55 4.76758 24.8965C4.76758 24.2429 5.30189 23.7119 5.9595 23.7119Z"
              fill="white"/>
        <path d="M10.7482 16.6045C11.4058 16.6045 11.9401 17.1355 11.9401 17.7891C11.9401 18.4426 11.4058 18.9736 10.7482 18.9736C10.0905 18.9736 9.55624 18.4426 9.55624 17.7891C9.53569 17.1355 10.07 16.6045 10.7482 16.6045Z"
              fill="white"/>
        <path d="M10.7482 18.9736C11.4058 18.9736 11.9401 19.5046 11.9401 20.1582C11.9401 20.8118 11.4058 21.3428 10.7482 21.3428C10.0905 21.3428 9.55624 20.8118 9.55624 20.1582C9.53569 19.5046 10.07 18.9736 10.7482 18.9736Z"
              fill="white"/>
        <path d="M10.7482 21.3428C11.4058 21.3428 11.9401 21.8738 11.9401 22.5273C11.9401 23.1809 11.4058 23.7119 10.7482 23.7119C10.0905 23.7119 9.55624 23.1809 9.55624 22.5273C9.53569 21.8738 10.07 21.3428 10.7482 21.3428Z"
              fill="white"/>
        <path d="M10.7482 23.7119C11.4058 23.7119 11.9401 24.2429 11.9401 24.8965C11.9401 25.55 11.4058 26.0811 10.7482 26.0811C10.0905 26.0811 9.55624 25.55 9.55624 24.8965C9.53569 24.2429 10.07 23.7119 10.7482 23.7119Z"
              fill="white"/>
        <path d="M8.34329 16.6045C9.00091 16.6045 9.53522 17.1355 9.53522 17.7891C9.53522 18.4426 9.00091 18.9736 8.34329 18.9736C7.68568 18.9736 7.15137 18.4426 7.15137 17.7891C7.15137 17.1355 7.68568 16.6045 8.34329 16.6045Z"
              fill="white"/>
    </g>
    <defs>
        <clipPath id="clip0">
            <rect width="112" height="27" fill="white"/>
        </clipPath>
    </defs>
</svg>