<svg viewBox="0 0 25 25" fill="none" xmlns="http://www.w3.org/2000/svg">
    <path d="M15.4347 12.4982L24.3843 3.56808C24.7763 3.17611 24.9964 2.64447 24.9964 2.09014C24.9964 1.5358 24.7763 1.00416 24.3843 0.612187C23.9924 0.22021 23.4609 0 22.9066 0C22.3524 0 21.8208 0.22021 21.4289 0.612187L12.5 9.56314L3.57113 0.612187C3.17921 0.22021 2.64765 -4.13014e-09 2.09339 0C1.53913 4.13014e-09 1.00757 0.22021 0.615651 0.612187C0.223731 1.00416 0.00355199 1.5358 0.00355198 2.09014C0.00355198 2.64447 0.223731 3.17611 0.615651 3.56808L9.56534 12.4982L0.615651 21.4284C0.420572 21.6219 0.265735 21.8521 0.160069 22.1058C0.0544026 22.3594 0 22.6315 0 22.9063C0 23.1811 0.0544026 23.4532 0.160069 23.7069C0.265735 23.9605 0.420572 24.1907 0.615651 24.3843C0.809137 24.5794 1.03933 24.7342 1.29296 24.8399C1.54659 24.9456 1.81863 25 2.09339 25C2.36815 25 2.64019 24.9456 2.89382 24.8399C3.14745 24.7342 3.37764 24.5794 3.57113 24.3843L12.5 15.4333L21.4289 24.3843C21.6224 24.5794 21.8526 24.7342 22.1062 24.8399C22.3598 24.9456 22.6319 25 22.9066 25C23.1814 25 23.4534 24.9456 23.707 24.8399C23.9607 24.7342 24.1909 24.5794 24.3843 24.3843C24.5794 24.1907 24.7343 23.9605 24.8399 23.7069C24.9456 23.4532 25 23.1811 25 22.9063C25 22.6315 24.9456 22.3594 24.8399 22.1058C24.7343 21.8521 24.5794 21.6219 24.3843 21.4284L15.4347 12.4982Z" fill="#0B132A"/>
</svg>