<svg width="27" height="27" viewBox="0 0 27 27" fill="none" xmlns="http://www.w3.org/2000/svg">
    <g clip-path="url(#clip0)">
        <path d="M11.9172 15.6221L11.7656 15.7392C11.2314 16.1515 10.7592 16.6104 10.354 17.1007L10.3539 17.1007C9.16454 18.5387 8.5375 20.258 8.5375 21.9375V21.9393H8.53748C8.52734 22.5069 8.64879 23.0692 8.89233 23.5821L8.96019 23.725H8.802H1.6875C1.10934 23.725 0.65752 23.5806 0.350953 23.274C0.0443868 22.9675 -0.1 22.5157 -0.1 21.9375C-0.1 21.0698 0.330451 19.3593 1.61157 17.8646C2.89677 16.3652 5.03417 15.0875 8.43736 15.0875L11.9172 15.6221ZM11.9172 15.6221L11.7345 15.5646M11.9172 15.6221L11.7345 15.5646M11.7345 15.5646C11.0528 15.3499 10.35 15.2088 9.63823 15.1436M11.7345 15.5646L9.63823 15.1436M9.63823 15.1436C9.63827 15.1436 9.6383 15.1436 9.63834 15.1436L9.62887 15.2432L9.63823 15.1436ZM9.63823 15.1436C9.23912 15.1057 8.83841 15.0869 8.4375 15.0875L9.63823 15.1436ZM23.9539 19.0932L23.9542 19.0934C24.8744 20.1642 25.1707 21.3428 25.2083 21.8375H11.9164C11.9529 21.3444 12.2505 20.1643 13.1708 19.0934L13.171 19.0933C14.0846 18.026 15.6933 16.975 18.5625 16.975C21.4334 16.975 23.0421 18.0244 23.9539 19.0932ZM3.04581 19.0935L3.04593 19.0933C3.92619 18.0661 5.44668 17.055 8.11736 16.9788C7.18325 18.4684 6.67008 20.1473 6.65058 21.8375H1.79159C1.82846 21.3427 2.12361 20.1655 3.04581 19.0935ZM25.3125 23.625C25.3125 23.725 25.3126 23.725 25.3126 23.725H25.3128L25.3132 23.725L25.3145 23.725L25.319 23.7249L25.3348 23.7245C25.3483 23.7241 25.3677 23.7232 25.3921 23.7215C25.4409 23.718 25.51 23.711 25.5926 23.6973C25.7574 23.6698 25.9786 23.6147 26.201 23.5035C26.4238 23.3921 26.6496 23.2234 26.8195 22.9686C26.9899 22.7131 27.1 22.3769 27.1 21.9375C27.1 21.0698 26.6695 19.3593 25.3884 17.8646C24.1032 16.3652 21.9658 15.0875 18.5625 15.0875C15.1592 15.0875 13.0218 16.3652 11.7366 17.8646C10.4555 19.3593 10.025 21.0698 10.025 21.9375C10.025 22.3769 10.1351 22.7131 10.3055 22.9686C10.4754 23.2234 10.7012 23.3921 10.924 23.5035C11.1464 23.6147 11.3676 23.6698 11.5324 23.6973C11.615 23.711 11.6841 23.718 11.7329 23.7215C11.7573 23.7232 11.7767 23.7241 11.7902 23.7245L11.806 23.7249L11.8105 23.725L11.8118 23.725L11.8122 23.725H11.8124C11.8124 23.725 11.8125 23.725 11.8125 23.625V23.725H25.3125V23.625ZM20.8783 10.7533C20.2641 11.3675 19.4311 11.7125 18.5625 11.7125C17.6939 11.7125 16.8609 11.3675 16.2467 10.7533C15.6325 10.1391 15.2875 9.30608 15.2875 8.4375C15.2875 7.56892 15.6325 6.73591 16.2467 6.12173C16.8609 5.50754 17.6939 5.1625 18.5625 5.1625C19.4311 5.1625 20.2641 5.50754 20.8783 6.12173C21.4925 6.73591 21.8375 7.56892 21.8375 8.4375C21.8375 9.30608 21.4925 10.1391 20.8783 10.7533ZM23.332 10.4131C23.5915 9.78676 23.725 9.11545 23.725 8.4375C23.725 7.06832 23.1811 5.75522 22.2129 4.78706C21.2448 3.8189 19.9317 3.275 18.5625 3.275C17.1933 3.275 15.8802 3.8189 14.9121 4.78706C13.9439 5.75522 13.4 7.06832 13.4 8.4375C13.4 9.11545 13.5335 9.78676 13.793 10.4131C14.0524 11.0394 14.4327 11.6086 14.9121 12.0879C15.3914 12.5673 15.9606 12.9476 16.5869 13.207C17.2132 13.4665 17.8846 13.6 18.5625 13.6C19.2404 13.6 19.9118 13.4665 20.5381 13.207C21.1644 12.9476 21.7336 12.5673 22.2129 12.0879C22.6923 11.6086 23.0726 11.0394 23.332 10.4131ZM3.94331 5.63081C2.97515 6.59897 2.43125 7.91207 2.43125 9.28125C2.43125 10.6504 2.97515 11.9635 3.94331 12.9317C4.91147 13.8998 6.22457 14.4438 7.59375 14.4438C8.96293 14.4438 10.276 13.8998 11.2442 12.9317C12.2123 11.9635 12.7563 10.6504 12.7563 9.28125C12.7563 7.91207 12.2123 6.59897 11.2442 5.63081C10.276 4.66265 8.96293 4.11875 7.59375 4.11875C6.22457 4.11875 4.91147 4.66265 3.94331 5.63081ZM5.27798 6.96548C5.89216 6.35129 6.72517 6.00625 7.59375 6.00625C8.46233 6.00625 9.29534 6.35129 9.90952 6.96548C10.5237 7.57966 10.8687 8.41267 10.8687 9.28125C10.8687 10.1498 10.5237 10.9828 9.90952 11.597C9.29534 12.2112 8.46233 12.5562 7.59375 12.5562C6.72517 12.5562 5.89216 12.2112 5.27798 11.597C4.66379 10.9828 4.31875 10.1498 4.31875 9.28125C4.31875 8.41267 4.66379 7.57966 5.27798 6.96548Z" fill="#F5821F" stroke="#F5821F" stroke-width="0.2"/>
    </g>
    <defs>
        <clipPath id="clip0">
            <rect width="27" height="27" fill="white"/>
        </clipPath>
    </defs>
</svg>