<svg width="390" height="522" viewBox="0 0 390 522" fill="none" xmlns="http://www.w3.org/2000/svg">
    <g filter="url(#filter0_d)">
        <rect x="32" y="30" width="326" height="437.194" rx="10" fill="#F5821F"/>
        <rect x="32.5" y="30.5" width="325" height="436.194" rx="9.5" stroke="#F1F1F1"/>
    </g>
    <g filter="url(#filter1_d)">
        <rect x="45" y="47.4341" width="300" height="402.326" rx="10" fill="white"/>
        <rect x="45.5" y="47.9341" width="299" height="401.326" rx="9.5" stroke="#F1F1F1"/>
    </g>
    <path fill-rule="evenodd" clip-rule="evenodd" d="M135 0C129.477 0 125 4.47715 125 10V23H95C89.4772 23 85 27.4772 85 33V50.5659C85 56.0888 89.4772 60.5659 95 60.5659H296C301.523 60.5659 306 56.0888 306 50.5659V33C306 27.4772 301.523 23 296 23H266V10C266 4.47715 261.523 0 256 0H135Z" fill="#E0E0E0"/>
    <rect x="145" y="142" width="159" height="19" rx="9.5" fill="#F7F7F7"/>
    <rect x="145" y="191" width="159" height="19" rx="9.5" fill="#F7F7F7"/>
    <rect x="145" y="240" width="159" height="19" rx="9.5" fill="#F7F7F7"/>
    <rect x="145" y="289" width="159" height="19" rx="9.5" fill="#F7F7F7"/>
    <rect x="145" y="338" width="159" height="19" rx="9.5" fill="#F7F7F7"/>
    <path d="M101.599 153.893L92.4366 146.067C92.0574 145.743 91.4974 145.748 91.1241 146.079L85.8146 150.782C85.3763 151.17 85.3639 151.851 85.7877 152.255L101.599 167.325C101.995 167.703 102.622 167.692 103.005 167.299L127.219 142.46C127.602 142.067 127.597 141.44 127.209 141.053L121.854 135.717C121.459 135.323 120.817 135.329 120.429 135.731L102.968 153.827C102.601 154.208 102.001 154.237 101.599 153.893Z" fill="#95C480"/>
    <path d="M101.599 202.893L92.4366 195.067C92.0574 194.743 91.4974 194.748 91.1241 195.079L85.8146 199.782C85.3763 200.17 85.3639 200.851 85.7877 201.255L101.599 216.325C101.995 216.703 102.622 216.692 103.005 216.299L127.219 191.46C127.602 191.067 127.597 190.44 127.209 190.053L121.854 184.717C121.459 184.323 120.817 184.329 120.429 184.731L102.968 202.827C102.601 203.208 102.001 203.237 101.599 202.893Z" fill="#95C480"/>
    <path d="M101.599 251.893L92.4366 244.067C92.0574 243.743 91.4974 243.748 91.1241 244.079L85.8146 248.782C85.3763 249.17 85.3639 249.851 85.7877 250.255L101.599 265.325C101.995 265.703 102.622 265.692 103.005 265.299L127.219 240.46C127.602 240.067 127.597 239.44 127.209 239.053L121.854 233.717C121.459 233.323 120.817 233.329 120.429 233.731L102.968 251.827C102.601 252.208 102.001 252.237 101.599 251.893Z" fill="#95C480"/>
    <path d="M101.599 300.893L92.4366 293.067C92.0574 292.743 91.4974 292.748 91.1241 293.079L85.8146 297.782C85.3763 298.17 85.3639 298.851 85.7877 299.255L101.599 314.325C101.995 314.703 102.622 314.692 103.005 314.299L127.219 289.46C127.602 289.067 127.597 288.44 127.209 288.053L121.854 282.717C121.459 282.323 120.817 282.329 120.429 282.731L102.968 300.827C102.601 301.208 102.001 301.237 101.599 300.893Z" fill="#95C480"/>
    <path d="M101.599 349.893L92.4366 342.067C92.0574 341.743 91.4974 341.748 91.1241 342.079L85.8146 346.782C85.3763 347.17 85.3639 347.851 85.7877 348.255L101.599 363.325C101.995 363.703 102.622 363.692 103.005 363.299L127.219 338.46C127.602 338.067 127.597 337.44 127.209 337.053L121.854 331.717C121.459 331.323 120.817 331.329 120.429 331.731L102.968 349.827C102.601 350.208 102.001 350.237 101.599 349.893Z" fill="#95C480"/>
    <defs>
        <filter id="filter0_d" x="0" y="20" width="390" height="501.194" filterUnits="userSpaceOnUse" color-interpolation-filters="sRGB">
            <feFlood flood-opacity="0" result="BackgroundImageFix"/>
            <feColorMatrix in="SourceAlpha" type="matrix" values="0 0 0 0 0 0 0 0 0 0 0 0 0 0 0 0 0 0 127 0"/>
            <feOffset dy="22"/>
            <feGaussianBlur stdDeviation="16"/>
            <feColorMatrix type="matrix" values="0 0 0 0 0.0431373 0 0 0 0 0.0745098 0 0 0 0 0.164706 0 0 0 0.04 0"/>
            <feBlend mode="normal" in2="BackgroundImageFix" result="effect1_dropShadow"/>
            <feBlend mode="normal" in="SourceGraphic" in2="effect1_dropShadow" result="shape"/>
        </filter>
        <filter id="filter1_d" x="13" y="37.4341" width="364" height="466.326" filterUnits="userSpaceOnUse" color-interpolation-filters="sRGB">
            <feFlood flood-opacity="0" result="BackgroundImageFix"/>
            <feColorMatrix in="SourceAlpha" type="matrix" values="0 0 0 0 0 0 0 0 0 0 0 0 0 0 0 0 0 0 127 0"/>
            <feOffset dy="22"/>
            <feGaussianBlur stdDeviation="16"/>
            <feColorMatrix type="matrix" values="0 0 0 0 0.0431373 0 0 0 0 0.0745098 0 0 0 0 0.164706 0 0 0 0.04 0"/>
            <feBlend mode="normal" in2="BackgroundImageFix" result="effect1_dropShadow"/>
            <feBlend mode="normal" in="SourceGraphic" in2="effect1_dropShadow" result="shape"/>
        </filter>
    </defs>
</svg>