<svg width="100%" height="100%" viewBox="0 0 1366 658" fill="none" xmlns="http://www.w3.org/2000/svg">
    <path d="M1349.93 141.929C1336.28 141.929 1325.21 130.864 1325.21 117.214C1325.21 103.565 1336.28 92.5001 1349.93 92.5001C1363.58 92.5001 1374.64 103.565 1374.64 117.214C1374.64 130.864 1363.58 141.929 1349.93 141.929Z" stroke="#C2C4C9"/>
    <path d="M1349.93 444.5C1336.28 444.5 1325.21 433.435 1325.21 419.786C1325.21 406.136 1336.28 395.071 1349.93 395.071C1363.58 395.071 1374.64 406.136 1374.64 419.786C1374.64 433.435 1363.58 444.5 1349.93 444.5Z" stroke="#C2C4C9"/>
    <path d="M1299.5 242.786C1285.85 242.786 1274.79 231.721 1274.79 218.071C1274.79 204.422 1285.85 193.357 1299.5 193.357C1313.15 193.357 1324.21 204.422 1324.21 218.071C1324.21 231.721 1313.15 242.786 1299.5 242.786Z" stroke="#C2C4C9"/>
    <path d="M1249.07 242.786C1235.42 242.786 1224.36 231.721 1224.36 218.071C1224.36 204.422 1235.42 193.357 1249.07 193.357C1262.72 193.357 1273.79 204.422 1273.79 218.071C1273.79 231.721 1262.72 242.786 1249.07 242.786Z" stroke="#C2C4C9"/>
    <path d="M1198.64 242.786C1184.99 242.786 1173.93 231.721 1173.93 218.071C1173.93 204.422 1184.99 193.357 1198.64 193.357C1212.29 193.357 1223.36 204.422 1223.36 218.071C1223.36 231.721 1212.29 242.786 1198.64 242.786Z" stroke="#C2C4C9"/>
    <path d="M1148.21 242.786C1134.57 242.786 1123.5 231.721 1123.5 218.071C1123.5 204.422 1134.57 193.357 1148.21 193.357C1161.86 193.357 1172.93 204.422 1172.93 218.071C1172.93 231.721 1161.86 242.786 1148.21 242.786Z" stroke="#C2C4C9"/>
    <path d="M1299.5 343.643C1285.85 343.643 1274.79 332.578 1274.79 318.929C1274.79 305.279 1285.85 294.214 1299.5 294.214C1313.15 294.214 1324.21 305.279 1324.21 318.929C1324.21 332.578 1313.15 343.643 1299.5 343.643Z" stroke="#C2C4C9"/>
    <path d="M1249.07 343.643C1235.42 343.643 1224.36 332.578 1224.36 318.928C1224.36 305.279 1235.42 294.214 1249.07 294.214C1262.72 294.214 1273.79 305.279 1273.79 318.928C1273.79 332.578 1262.72 343.643 1249.07 343.643Z" stroke="#C2C4C9"/>
    <path d="M1198.64 343.643C1184.99 343.643 1173.93 332.578 1173.93 318.929C1173.93 305.279 1184.99 294.214 1198.64 294.214C1212.29 294.214 1223.36 305.279 1223.36 318.929C1223.36 332.578 1212.29 343.643 1198.64 343.643Z" stroke="#C2C4C9"/>
    <path d="M1148.21 343.643C1134.57 343.643 1123.5 332.578 1123.5 318.929C1123.5 305.279 1134.57 294.214 1148.21 294.214C1161.86 294.214 1172.93 305.279 1172.93 318.929C1172.93 332.578 1161.86 343.643 1148.21 343.643Z" stroke="#C2C4C9"/>
    <path d="M1299.5 293.214C1285.85 293.214 1274.79 282.149 1274.79 268.5C1274.79 254.851 1285.85 243.786 1299.5 243.786C1313.15 243.786 1324.21 254.851 1324.21 268.5C1324.21 282.149 1313.15 293.214 1299.5 293.214Z" stroke="#C2C4C9"/>
    <path opacity="0.5" d="M0 0H1366V658H0V0Z" fill="#F7F7F7"/>
</svg>