<svg width="283" height="404" viewBox="0 0 223 404" fill="none" xmlns="http://www.w3.org/2000/svg">
    <g opacity="0.2">
        <path d="M20.786 25.2143C20.786 38.8636 9.72102 49.9286 -3.9283 49.9286C-17.5776 49.9286 -28.6426 38.8636 -28.6426 25.2143C-28.6426 11.565 -17.5776 0.499999 -3.9283 0.499999C9.72102 0.499998 20.786 11.565 20.786 25.2143Z" stroke="white"/>
        <path d="M71.2142 25.2143C71.2142 38.8636 60.1492 49.9286 46.4999 49.9286C32.8506 49.9286 21.7856 38.8636 21.7856 25.2143C21.7856 11.565 32.8506 0.499999 46.4999 0.499999C60.1492 0.499998 71.2142 11.565 71.2142 25.2143Z" stroke="white"/>
        <path d="M121.643 25.2143C121.643 38.8636 110.578 49.9286 96.9286 49.9286C83.2793 49.9286 72.2144 38.8636 72.2144 25.2143C72.2144 11.565 83.2793 0.499999 96.9286 0.499999C110.578 0.499998 121.643 11.565 121.643 25.2143Z" stroke="white"/>
        <path d="M20.786 75.643C20.786 89.2923 9.72102 100.357 -3.9283 100.357C-17.5776 100.357 -28.6426 89.2923 -28.6426 75.643C-28.6426 61.9937 -17.5776 50.9287 -3.9283 50.9287C9.72102 50.9287 20.786 61.9937 20.786 75.643Z" stroke="white"/>
        <path d="M71.2142 75.643C71.2142 89.2923 60.1492 100.357 46.4999 100.357C32.8506 100.357 21.7856 89.2923 21.7856 75.643C21.7856 61.9937 32.8506 50.9287 46.4999 50.9287C60.1492 50.9287 71.2142 61.9937 71.2142 75.643Z" stroke="white"/>
        <path d="M121.643 75.643C121.643 89.2923 110.578 100.357 96.9286 100.357C83.2793 100.357 72.2144 89.2923 72.2144 75.643C72.2144 61.9937 83.2793 50.9287 96.9286 50.9287C110.578 50.9287 121.643 61.9937 121.643 75.643Z" stroke="#F08020"/>
        <path d="M20.7855 126.071C20.7855 139.721 9.72053 150.785 -3.92879 150.785C-17.5781 150.785 -28.6431 139.721 -28.6431 126.071C-28.6431 112.422 -17.5781 101.357 -3.92879 101.357C9.72053 101.357 20.7855 112.422 20.7855 126.071Z" stroke="white"/>
        <path d="M71.2142 126.071C71.2142 139.721 60.1492 150.785 46.4999 150.785C32.8506 150.785 21.7856 139.721 21.7856 126.071C21.7856 112.422 32.8506 101.357 46.4999 101.357C60.1492 101.357 71.2142 112.422 71.2142 126.071Z" stroke="white"/>
        <path d="M121.643 126.072C121.643 139.721 110.578 150.786 96.9286 150.786C83.2793 150.786 72.2144 139.721 72.2144 126.072C72.2144 112.422 83.2793 101.357 96.9286 101.357C110.578 101.357 121.643 112.422 121.643 126.072Z" stroke="white"/>
        <path d="M222.5 176.5C222.5 190.15 211.435 201.215 197.786 201.215C184.136 201.215 173.071 190.15 173.071 176.5C173.071 162.851 184.136 151.786 197.786 151.786C211.435 151.786 222.5 162.851 222.5 176.5Z" stroke="white"/>
        <path d="M20.7855 226.929C20.7855 240.578 9.72053 251.643 -3.92879 251.643C-17.5781 251.643 -28.6431 240.578 -28.6431 226.929C-28.6431 213.279 -17.5781 202.214 -3.92879 202.214C9.72053 202.214 20.7855 213.279 20.7855 226.929Z" stroke="white"/>
        <path d="M20.7855 277.357C20.7855 291.007 9.72053 302.072 -3.92879 302.072C-17.5781 302.072 -28.6431 291.007 -28.6431 277.357C-28.6431 263.708 -17.5781 252.643 -3.92879 252.643C9.72053 252.643 20.7855 263.708 20.7855 277.357Z" stroke="white"/>
        <path d="M20.7855 327.786C20.7855 341.435 9.72053 352.5 -3.92879 352.5C-17.5781 352.5 -28.6431 341.435 -28.6431 327.786C-28.6431 314.136 -17.5781 303.071 -3.92879 303.071C9.72053 303.071 20.7855 314.136 20.7855 327.786Z" stroke="#F5821F"/>
        <path d="M20.7855 378.214C20.7855 391.864 9.72053 402.929 -3.92879 402.929C-17.5781 402.929 -28.6431 391.864 -28.6431 378.214C-28.6431 364.565 -17.5781 353.5 -3.92879 353.5C9.72053 353.5 20.7855 364.565 20.7855 378.214Z" stroke="white"/>
        <path d="M121.643 226.929C121.643 240.578 110.578 251.643 96.9286 251.643C83.2793 251.643 72.2144 240.578 72.2144 226.929C72.2144 213.279 83.2793 202.214 96.9286 202.214C110.578 202.214 121.643 213.279 121.643 226.929Z" stroke="white"/>
        <path d="M121.643 277.357C121.643 291.007 110.578 302.072 96.9286 302.072C83.2793 302.072 72.2144 291.007 72.2144 277.357C72.2144 263.708 83.2793 252.643 96.9286 252.643C110.578 252.643 121.643 263.708 121.643 277.357Z" stroke="white"/>
        <path d="M121.643 327.786C121.643 341.435 110.578 352.5 96.9286 352.5C83.2793 352.5 72.2144 341.435 72.2144 327.786C72.2144 314.136 83.2793 303.071 96.9286 303.071C110.578 303.071 121.643 314.136 121.643 327.786Z" stroke="white"/>
        <path d="M121.643 378.214C121.643 391.864 110.578 402.929 96.9286 402.929C83.2793 402.929 72.2144 391.864 72.2144 378.214C72.2144 364.565 83.2793 353.5 96.9286 353.5C110.578 353.5 121.643 364.565 121.643 378.214Z" stroke="white"/>
        <path d="M71.2142 226.929C71.2142 240.578 60.1492 251.643 46.4999 251.643C32.8506 251.643 21.7856 240.578 21.7856 226.929C21.7856 213.279 32.8506 202.214 46.4999 202.214C60.1492 202.214 71.2142 213.279 71.2142 226.929Z" stroke="white"/>
    </g>
</svg>