<svg  viewBox="0 0 304 731" fill="none" xmlns="http://www.w3.org/2000/svg">
    <g opacity="0.2">
        <path d="M215.786 25.2143C215.786 38.8636 204.721 49.9286 191.072 49.9286C177.422 49.9286 166.357 38.8636 166.357 25.2143C166.357 11.565 177.422 0.499999 191.072 0.499999C204.721 0.499998 215.786 11.565 215.786 25.2143Z" stroke="white"/>
        <path d="M266.214 25.2143C266.214 38.8636 255.149 49.9286 241.5 49.9286C227.851 49.9286 216.786 38.8636 216.786 25.2143C216.786 11.565 227.851 0.499999 241.5 0.499999C255.149 0.499998 266.214 11.565 266.214 25.2143Z" stroke="white"/>
        <path d="M316.643 25.2143C316.643 38.8636 305.578 49.9286 291.929 49.9286C278.279 49.9286 267.214 38.8636 267.214 25.2143C267.214 11.565 278.279 0.499999 291.929 0.499999C305.578 0.499998 316.643 11.565 316.643 25.2143Z" stroke="white"/>
        <path d="M215.786 75.643C215.786 89.2923 204.721 100.357 191.072 100.357C177.422 100.357 166.357 89.2923 166.357 75.643C166.357 61.9937 177.422 50.9287 191.072 50.9287C204.721 50.9287 215.786 61.9937 215.786 75.643Z" stroke="white"/>
        <path d="M266.214 75.643C266.214 89.2923 255.149 100.357 241.5 100.357C227.851 100.357 216.786 89.2923 216.786 75.643C216.786 61.9937 227.851 50.9287 241.5 50.9287C255.149 50.9287 266.214 61.9937 266.214 75.643Z" stroke="white"/>
        <path d="M316.643 75.643C316.643 89.2923 305.578 100.357 291.929 100.357C278.279 100.357 267.214 89.2923 267.214 75.643C267.214 61.9937 278.279 50.9287 291.929 50.9287C305.578 50.9287 316.643 61.9937 316.643 75.643Z" stroke="#F08020"/>
        <path d="M215.785 126.071C215.785 139.721 204.721 150.785 191.071 150.785C177.422 150.785 166.357 139.721 166.357 126.071C166.357 112.422 177.422 101.357 191.071 101.357C204.721 101.357 215.785 112.422 215.785 126.071Z" stroke="white"/>
        <path d="M266.214 126.071C266.214 139.721 255.149 150.785 241.5 150.785C227.851 150.785 216.786 139.721 216.786 126.071C216.786 112.422 227.851 101.357 241.5 101.357C255.149 101.357 266.214 112.422 266.214 126.071Z" stroke="white"/>
        <path d="M316.643 126.072C316.643 139.721 305.578 150.786 291.929 150.786C278.279 150.786 267.214 139.721 267.214 126.072C267.214 112.422 278.279 101.357 291.929 101.357C305.578 101.357 316.643 112.422 316.643 126.072Z" stroke="white"/>
        <path d="M114.929 25.2143C114.929 38.8636 103.864 49.9286 90.2143 49.9286C76.565 49.9286 65.5 38.8636 65.5 25.2143C65.5 11.565 76.565 0.499999 90.2143 0.499999C103.864 0.499998 114.929 11.565 114.929 25.2143Z" stroke="white"/>
        <path d="M114.929 75.643C114.929 89.2923 103.864 100.357 90.2143 100.357C76.565 100.357 65.5 89.2923 65.5 75.643C65.5 61.9937 76.565 50.9287 90.2143 50.9287C103.864 50.9287 114.929 61.9937 114.929 75.643Z" stroke="white"/>
        <path d="M114.929 126.071C114.929 139.721 103.864 150.785 90.2143 150.785C76.565 150.785 65.5 139.721 65.5 126.071C65.5 112.422 76.565 101.357 90.2143 101.357C103.864 101.357 114.929 112.422 114.929 126.071Z" stroke="white"/>
        <path d="M114.929 176.5C114.929 190.149 103.864 201.214 90.2143 201.214C76.565 201.214 65.5 190.149 65.5 176.5C65.5 162.851 76.565 151.786 90.2143 151.786C103.864 151.786 114.929 162.851 114.929 176.5Z" stroke="white"/>
        <path d="M215.785 226.929C215.785 240.578 204.721 251.643 191.071 251.643C177.422 251.643 166.357 240.578 166.357 226.929C166.357 213.279 177.422 202.214 191.071 202.214C204.721 202.214 215.785 213.279 215.785 226.929Z" stroke="white"/>
        <path d="M215.785 277.357C215.785 291.007 204.721 302.072 191.071 302.072C177.422 302.072 166.357 291.007 166.357 277.357C166.357 263.708 177.422 252.643 191.071 252.643C204.721 252.643 215.785 263.708 215.785 277.357Z" stroke="white"/>
        <path d="M215.785 327.786C215.785 341.435 204.721 352.5 191.071 352.5C177.422 352.5 166.357 341.435 166.357 327.786C166.357 314.136 177.422 303.071 191.071 303.071C204.721 303.071 215.785 314.136 215.785 327.786Z" stroke="#F5821F"/>
        <path d="M215.785 378.214C215.785 391.864 204.721 402.929 191.071 402.929C177.422 402.929 166.357 391.864 166.357 378.214C166.357 364.565 177.422 353.5 191.071 353.5C204.721 353.5 215.785 364.565 215.785 378.214Z" stroke="white"/>
        <path d="M316.643 226.929C316.643 240.578 305.578 251.643 291.929 251.643C278.279 251.643 267.214 240.578 267.214 226.929C267.214 213.279 278.279 202.214 291.929 202.214C305.578 202.214 316.643 213.279 316.643 226.929Z" stroke="white"/>
        <path d="M316.643 277.357C316.643 291.007 305.578 302.072 291.929 302.072C278.279 302.072 267.214 291.007 267.214 277.357C267.214 263.708 278.279 252.643 291.929 252.643C305.578 252.643 316.643 263.708 316.643 277.357Z" stroke="white"/>
        <path d="M316.643 327.786C316.643 341.435 305.578 352.5 291.929 352.5C278.279 352.5 267.214 341.435 267.214 327.786C267.214 314.136 278.279 303.071 291.929 303.071C305.578 303.071 316.643 314.136 316.643 327.786Z" stroke="white"/>
        <path d="M316.643 378.214C316.643 391.864 305.578 402.929 291.929 402.929C278.279 402.929 267.214 391.864 267.214 378.214C267.214 364.565 278.279 353.5 291.929 353.5C305.578 353.5 316.643 364.565 316.643 378.214Z" stroke="white"/>
        <path d="M266.214 226.929C266.214 240.578 255.149 251.643 241.5 251.643C227.851 251.643 216.786 240.578 216.786 226.929C216.786 213.279 227.851 202.214 241.5 202.214C255.149 202.214 266.214 213.279 266.214 226.929Z" stroke="white"/>
    </g>
</svg>