<svg width="284" height="404" viewBox="0 0 284 404" fill="none" xmlns="http://www.w3.org/2000/svg">
    <path d="M150.786 25.2143C150.786 38.8636 139.721 49.9286 126.072 49.9286C112.422 49.9286 101.357 38.8636 101.357 25.2143C101.357 11.565 112.422 0.499999 126.072 0.499999C139.721 0.499998 150.786 11.565 150.786 25.2143Z" stroke="#C2C4C9"/>
    <path d="M201.214 25.2143C201.214 38.8636 190.149 49.9286 176.5 49.9286C162.851 49.9286 151.786 38.8636 151.786 25.2143C151.786 11.565 162.851 0.499999 176.5 0.499999C190.149 0.499998 201.214 11.565 201.214 25.2143Z" stroke="#C2C4C9"/>
    <path d="M251.643 25.2143C251.643 38.8636 240.578 49.9286 226.929 49.9286C213.279 49.9286 202.214 38.8636 202.214 25.2143C202.214 11.565 213.279 0.499999 226.929 0.499999C240.578 0.499998 251.643 11.565 251.643 25.2143Z" stroke="#C2C4C9"/>
    <path d="M150.786 75.643C150.786 89.2923 139.721 100.357 126.072 100.357C112.422 100.357 101.357 89.2923 101.357 75.643C101.357 61.9937 112.422 50.9287 126.072 50.9287C139.721 50.9287 150.786 61.9937 150.786 75.643Z" stroke="#C2C4C9"/>
    <path d="M201.214 75.6427C201.214 89.2921 190.149 100.357 176.5 100.357C162.851 100.357 151.786 89.2921 151.786 75.6427C151.786 61.9934 162.851 50.9285 176.5 50.9285C190.149 50.9285 201.214 61.9934 201.214 75.6427Z" stroke="#C2C4C9"/>
    <path d="M251.643 75.6427C251.643 89.2921 240.578 100.357 226.929 100.357C213.279 100.357 202.214 89.2921 202.214 75.6427C202.214 61.9934 213.279 50.9285 226.929 50.9285C240.578 50.9285 251.643 61.9934 251.643 75.6427Z" stroke="#F08020"/>
    <path d="M150.785 126.071C150.785 139.721 139.721 150.785 126.071 150.785C112.422 150.785 101.357 139.721 101.357 126.071C101.357 112.422 112.422 101.357 126.071 101.357C139.721 101.357 150.785 112.422 150.785 126.071Z" stroke="#C2C4C9"/>
    <path d="M201.214 126.071C201.214 139.721 190.149 150.785 176.5 150.785C162.851 150.785 151.786 139.721 151.786 126.071C151.786 112.422 162.851 101.357 176.5 101.357C190.149 101.357 201.214 112.422 201.214 126.071Z" stroke="#C2C4C9"/>
    <path d="M251.643 126.071C251.643 139.721 240.578 150.786 226.929 150.786C213.279 150.786 202.214 139.721 202.214 126.071C202.214 112.422 213.279 101.357 226.929 101.357C240.578 101.357 251.643 112.422 251.643 126.071Z" stroke="#C2C4C9"/>
    <path d="M49.9286 25.2143C49.9286 38.8636 38.8636 49.9286 25.2143 49.9286C11.565 49.9286 0.500002 38.8636 0.500001 25.2143C0.500001 11.565 11.565 0.499999 25.2143 0.499999C38.8636 0.499998 49.9286 11.565 49.9286 25.2143Z" stroke="#C2C4C9"/>
    <path d="M49.9286 75.643C49.9286 89.2923 38.8636 100.357 25.2143 100.357C11.565 100.357 0.500002 89.2923 0.500001 75.643C0.500001 61.9937 11.565 50.9287 25.2143 50.9287C38.8636 50.9287 49.9286 61.9937 49.9286 75.643Z" stroke="#C2C4C9"/>
    <path d="M49.9286 126.071C49.9286 139.721 38.8636 150.785 25.2143 150.785C11.565 150.785 0.500002 139.721 0.500001 126.071C0.500001 112.422 11.565 101.357 25.2143 101.357C38.8636 101.357 49.9286 112.422 49.9286 126.071Z" stroke="#C2C4C9"/>
    <path d="M49.9286 176.5C49.9286 190.149 38.8636 201.214 25.2143 201.214C11.565 201.214 0.500002 190.149 0.500001 176.5C0.500001 162.851 11.565 151.786 25.2143 151.786C38.8636 151.786 49.9286 162.851 49.9286 176.5Z" stroke="#C2C4C9"/>
    <path d="M150.785 226.928C150.785 240.578 139.721 251.643 126.071 251.643C112.422 251.643 101.357 240.578 101.357 226.928C101.357 213.279 112.422 202.214 126.071 202.214C139.721 202.214 150.785 213.279 150.785 226.928Z" stroke="#C2C4C9"/>
    <path d="M150.785 277.357C150.785 291.007 139.721 302.072 126.071 302.072C112.422 302.072 101.357 291.007 101.357 277.357C101.357 263.708 112.422 252.643 126.071 252.643C139.721 252.643 150.785 263.708 150.785 277.357Z" stroke="#C2C4C9"/>
    <path d="M150.785 327.786C150.785 341.435 139.721 352.5 126.071 352.5C112.422 352.5 101.357 341.435 101.357 327.786C101.357 314.136 112.422 303.072 126.071 303.072C139.721 303.072 150.785 314.136 150.785 327.786Z" stroke="#F5821F"/>
    <path d="M150.785 378.215C150.785 391.864 139.721 402.929 126.071 402.929C112.422 402.929 101.357 391.864 101.357 378.215C101.357 364.565 112.422 353.5 126.071 353.5C139.721 353.5 150.785 364.565 150.785 378.215Z" stroke="#C2C4C9"/>
    <path d="M251.643 226.928C251.643 240.578 240.578 251.643 226.929 251.643C213.279 251.643 202.214 240.578 202.214 226.928C202.214 213.279 213.279 202.214 226.929 202.214C240.578 202.214 251.643 213.279 251.643 226.928Z" stroke="#C2C4C9"/>
    <path d="M251.643 277.357C251.643 291.007 240.578 302.072 226.929 302.072C213.279 302.072 202.214 291.007 202.214 277.357C202.214 263.708 213.279 252.643 226.929 252.643C240.578 252.643 251.643 263.708 251.643 277.357Z" stroke="#C2C4C9"/>
    <path d="M251.643 327.786C251.643 341.435 240.578 352.5 226.929 352.5C213.279 352.5 202.214 341.435 202.214 327.786C202.214 314.136 213.279 303.072 226.929 303.072C240.578 303.072 251.643 314.136 251.643 327.786Z" stroke="#C2C4C9"/>
    <path d="M251.643 378.214C251.643 391.864 240.578 402.929 226.929 402.929C213.279 402.929 202.214 391.864 202.214 378.214C202.214 364.565 213.279 353.5 226.929 353.5C240.578 353.5 251.643 364.565 251.643 378.214Z" stroke="#C2C4C9"/>
    <path d="M201.214 226.929C201.214 240.578 190.149 251.643 176.5 251.643C162.851 251.643 151.786 240.578 151.786 226.929C151.786 213.28 162.851 202.215 176.5 202.215C190.149 202.215 201.214 213.28 201.214 226.929Z" stroke="#C2C4C9"/>
</svg>