<svg width="512" height="512" xmlns="http://www.w3.org/2000/svg">

 <title/>
 <g>
  <title>background</title>
  <rect fill="none" id="canvas_background" height="402" width="582" y="-1" x="-1"/>
 </g>
 <g>
  <title>Layer 1</title>
  <circle fill="#c2c4c9" id="svg_1" r="207.77" cy="252" cx="254" class="cls-1"/>
  <circle fill="#ffffff" id="svg_2" r="194.41" cy="251.95" cx="254" class="cls-2"/>
  <polygon fill="#c2c4c9" id="svg_3" points="169 225 204.72 225 205.59 344 169 344 169 225" class="cls-3"/>
  <path fill="#c2c4c9" id="svg_4" d="m264.33,243.24l-0.72,-14.24l-34.06,0l-1.55,116l36,-1.63l0,-59.18s-2.11,-25.52 17.49,-29s21.67,15.81 21.67,15.81l-0.16,33.19l0,40l38,-0.86l0,-75.7s5.91,-37.49 -34.82,-44.05c0,0 -28.44,-4.21 -41.85,19.66z" class="cls-3"/>
  <circle fill="#c2c4c9" id="svg_5" r="21.91" cy="189.01" cx="188.65" class="cls-3"/>
 </g>
</svg>