<svg width="26" height="26" viewBox="0 0 26 26" fill="none" xmlns="http://www.w3.org/2000/svg">
    <path d="M13.0005 0.52002C6.10791 0.52002 0.520508 6.10742 0.520508 13C0.520508 19.8926 6.10791 25.48 13.0005 25.48C19.8931 25.48 25.4805 19.8926 25.4805 13C25.4805 6.10742 19.8931 0.52002 13.0005 0.52002ZM9.94551 18.1727H7.41831V10.0399H9.94551V18.1727ZM8.66631 9.04152C7.86811 9.04152 7.35201 8.47602 7.35201 7.77662C7.35201 7.06292 7.88371 6.51432 8.69881 6.51432C9.51391 6.51432 10.0131 7.06292 10.0287 7.77662C10.0287 8.47602 9.51391 9.04152 8.66631 9.04152ZM19.1755 18.1727H16.6483V13.6656C16.6483 12.6165 16.2817 11.9041 15.3678 11.9041C14.6697 11.9041 14.255 12.3864 14.0717 12.8505C14.0041 13.0156 13.9872 13.2496 13.9872 13.4823V18.1714H11.4587V12.6334C11.4587 11.6181 11.4262 10.7692 11.3924 10.0386H13.5881L13.7038 11.1683H13.7545C14.0873 10.6379 14.9024 9.85532 16.2661 9.85532C17.9288 9.85532 19.1755 10.9694 19.1755 13.364V18.1727Z" fill="#F5821F"/>
</svg>