<svg width="52" height="52" viewBox="0 0 52 52" fill="none" xmlns="http://www.w3.org/2000/svg">
    <path d="M32.9883 39.2121L33.2001 39.0003L32.9886 38.7882L27.3826 33.1665L29.2499 31.2993L36.9506 39L29.2491 46.7015L27.3674 44.833L32.9883 39.2121Z" fill="white" stroke="#EB7B1A" stroke-width="0.6"/>
    <path d="M38.7576 33.1665L40.6249 31.2993L48.3256 39L40.6241 46.7015L38.7424 44.833L44.3633 39.2121L44.5751 39.0003L44.3636 38.7882L38.7576 33.1665Z" fill="white" stroke="#EB7B1A" stroke-width="0.6"/>
    <path d="M6.5 37.675H22.45V40.325H6.5C5.71761 40.325 4.96727 40.0142 4.41403 39.461C3.8608 38.9077 3.55 38.1574 3.55 37.375V11.375C3.55 10.5926 3.8608 9.84227 4.41403 9.28903C4.96727 8.7358 5.71761 8.425 6.5 8.425H45.5C46.2824 8.425 47.0327 8.7358 47.586 9.28903C48.1392 9.84227 48.45 10.5926 48.45 11.375V27.325H45.8V12.8537V12.2813L45.3293 12.6071L26.7555 25.4608L26.7553 25.461C26.5335 25.6149 26.2699 25.6973 26 25.6973C25.7301 25.6973 25.4665 25.6149 25.2447 25.461L25.2445 25.4608L6.67072 12.6071L6.2 12.2813V12.8537V37.375V37.675H6.5ZM42.0957 11.6217L42.8859 11.075H41.925H10.075H9.11408L9.90432 11.6217L25.8293 22.6392L26 22.7573L26.1707 22.6392L42.0957 11.6217Z" fill="white" stroke="#EB7B1A" stroke-width="0.6"/>
</svg>