<svg xmlns="http://www.w3.org/2000/svg" width="20" height="20" viewBox="0 0 20 20" fill="none">
    <mask id="mask0_1633_3505" style="mask-type:alpha" maskUnits="userSpaceOnUse" x="0" y="0" width="20" height="20">
        <rect width="20" height="20" fill="#D9D9D9"/>
    </mask>
    <g mask="url(#mask0_1633_3505)">
        <path d="M6.66675 9.16667C6.90286 9.16667 7.10078 9.08681 7.2605 8.92708C7.42022 8.76736 7.50008 8.56945 7.50008 8.33333C7.50008 8.09722 7.42022 7.89931 7.2605 7.73958C7.10078 7.57986 6.90286 7.5 6.66675 7.5C6.43064 7.5 6.23272 7.57986 6.073 7.73958C5.91328 7.89931 5.83341 8.09722 5.83341 8.33333C5.83341 8.56945 5.91328 8.76736 6.073 8.92708C6.23272 9.08681 6.43064 9.16667 6.66675 9.16667ZM10.0001 9.16667C10.2362 9.16667 10.4341 9.08681 10.5938 8.92708C10.7536 8.76736 10.8334 8.56945 10.8334 8.33333C10.8334 8.09722 10.7536 7.89931 10.5938 7.73958C10.4341 7.57986 10.2362 7.5 10.0001 7.5C9.76397 7.5 9.56605 7.57986 9.40633 7.73958C9.24661 7.89931 9.16675 8.09722 9.16675 8.33333C9.16675 8.56945 9.24661 8.76736 9.40633 8.92708C9.56605 9.08681 9.76397 9.16667 10.0001 9.16667ZM13.3334 9.16667C13.5695 9.16667 13.7674 9.08681 13.9272 8.92708C14.0869 8.76736 14.1667 8.56945 14.1667 8.33333C14.1667 8.09722 14.0869 7.89931 13.9272 7.73958C13.7674 7.57986 13.5695 7.5 13.3334 7.5C13.0973 7.5 12.8994 7.57986 12.7397 7.73958C12.5799 7.89931 12.5001 8.09722 12.5001 8.33333C12.5001 8.56945 12.5799 8.76736 12.7397 8.92708C12.8994 9.08681 13.0973 9.16667 13.3334 9.16667ZM1.66675 18.3333V3.33333C1.66675 2.875 1.82994 2.48264 2.15633 2.15625C2.48272 1.82986 2.87508 1.66667 3.33341 1.66667H16.6667C17.1251 1.66667 17.5174 1.82986 17.8438 2.15625C18.1702 2.48264 18.3334 2.875 18.3334 3.33333V13.3333C18.3334 13.7917 18.1702 14.184 17.8438 14.5104C17.5174 14.8368 17.1251 15 16.6667 15H5.00008L1.66675 18.3333Z" fill="#14A452"/>
    </g>
</svg>
