<svg width="164" height="32" viewBox="0 0 164 32" fill="none" xmlns="http://www.w3.org/2000/svg">
<g clip-path="url(#clip0_1544_26511)">
<path fill-rule="evenodd" clip-rule="evenodd" d="M17.9286 12.8554L18.0088 12.9108C18.1629 13.0216 18.3109 13.1385 18.4403 13.2677L18.5082 13.3354L18.576 13.4031C18.6376 13.4708 18.7055 13.5385 18.7609 13.6123L18.9336 13.8339L19.0877 14.0677C19.1555 14.1723 19.211 14.2831 19.2665 14.3939L19.3035 14.48L19.4083 14.7385L19.4391 14.8246L19.47 14.9169L19.5008 15.0092L19.5255 15.1016L19.5501 15.1939L19.5686 15.2862L19.5871 15.3785L19.6056 15.4708L19.6179 15.5692L19.6303 15.6677L19.6364 15.7662V15.8646V15.9631V16.0616L19.6241 16.3631V16.4C19.4823 19.0646 24.2728 24.0554 27.1521 23.8092C27.3494 23.7908 27.5528 23.7908 27.7625 23.8092C29.9018 23.9569 31.511 25.8092 31.3631 27.9446C31.2089 30.08 29.3531 31.6923 27.2137 31.5385C25.0743 31.3846 23.4652 29.5323 23.6131 27.3969C23.8166 24.48 18.7671 19.8339 16.0728 19.9508H16.0235H16.005H15.9865H15.9742H15.9372H15.9187H15.9002H15.8817H15.8694H15.8632H15.7954H15.7769H15.5549L15.5364 19.9446H15.5056H15.4871H15.4686L15.37 19.9385C15.2713 19.9262 15.1727 19.9139 15.074 19.9016L14.9754 19.8831L14.8767 19.8646L14.7843 19.84L14.6918 19.8154L14.4205 19.7292C14.328 19.6985 14.2417 19.6616 14.1554 19.6246L14.0691 19.5877L13.8163 19.4585L13.7361 19.4093L13.5758 19.3108C13.471 19.2369 13.3724 19.1692 13.2799 19.0892L13.2121 19.0277L13.0764 18.9046L13.0086 18.8369L12.947 18.7692L12.8853 18.7016L12.762 18.56L12.7065 18.4862L12.7003 18.4739L12.6017 18.3446V18.3323H12.5894L12.54 18.2585L12.4907 18.1785L12.4414 18.0985L12.3921 18.0185L12.3489 17.9385L12.3058 17.8523L12.2626 17.7662L12.2256 17.68L12.1886 17.5939L12.1516 17.5077L12.1208 17.4216L12.09 17.3354L12.0591 17.2431L12.0345 17.1508L12.0098 17.0585L11.9852 16.9662L11.9667 16.8739L11.9482 16.7816L11.9358 16.6892L11.9235 16.5908L11.9112 16.4923V16.3939H11.8988V16.2954H11.8927V16.1969V16.0985V15.9016L11.905 15.8031C12.1146 12.8677 6.99734 8.17848 4.30922 8.36309C4.13659 8.3754 3.95162 8.3754 3.76666 8.36309C1.61493 8.20925 -0.000406578 6.35694 0.153729 4.22156C0.307864 2.08617 2.16365 0.473864 4.30305 0.62771C6.44245 0.781556 8.05162 2.63386 7.90365 4.76925C7.71869 7.39079 12.4352 12.3569 15.333 12.2216C15.5611 12.1969 15.7954 12.1908 16.0358 12.2092C16.7387 12.2585 17.3861 12.4923 17.9286 12.8616V12.8554Z" fill="white" fill-opacity="0.87"/>
<path d="M48.4543 17.2247L42.2888 9.42773H40.3652V22H42.7389V13.5262L49.3482 22H50.8218V9.42773H48.4543V17.2247Z" fill="white" fill-opacity="0.87"/>
<path d="M57.5174 12.9785C54.6937 12.9785 52.9365 15.0585 52.9365 17.5877C52.9365 20.117 54.6628 22.197 57.5359 22.197C60.409 22.197 62.1538 20.1354 62.1538 17.5877C62.1538 15.0401 60.3412 12.9785 57.5174 12.9785ZM57.5359 14.9724C59.0095 14.9724 59.9466 16.2647 59.9466 17.5939C59.9466 18.9231 59.1389 20.197 57.5359 20.197C55.9329 20.197 55.1252 18.9416 55.1252 17.5939C55.1252 16.2462 55.9514 14.9724 57.5359 14.9724Z" fill="white" fill-opacity="0.87"/>
<path d="M64.1816 13.1569V22H66.3765V17.3354C66.3765 15.7046 67.437 15.0954 68.5899 15.0954C69.3113 15.0954 69.7243 15.2923 70.1744 15.6677L71.1609 13.7662C70.6738 13.28 69.7922 12.9231 68.8797 12.9231C67.9672 12.9231 67.0671 13.0831 66.3827 14.1785L66.2224 13.1569H64.194H64.1816Z" fill="white" fill-opacity="0.87"/>
<path d="M73.9482 10.8985V13.1754H72.2959V15.0585H73.9482V18.88C73.9482 21.0892 75.206 22.1785 77.1296 22.1108C77.7954 22.0923 78.3133 21.9877 78.9422 21.7354L78.3318 19.8708C78.0112 20.0308 77.6105 20.1415 77.2714 20.1415C76.587 20.1415 76.1185 19.7292 76.1185 18.8862V15.0646H78.5785V13.1815H76.1369V10.6708L73.9421 10.9046L73.9482 10.8985Z" fill="white" fill-opacity="0.87"/>
<path d="M80.7363 9.42773V22H82.9312V17.477C82.9312 16.1477 83.8314 15.0523 85.1261 15.0523C86.2914 15.0523 87.136 15.7354 87.136 17.3477V21.9939H89.3309V17.3293C89.3309 14.7262 88.215 13.0216 85.6995 13.0216C84.6945 13.0216 83.7204 13.3293 82.9312 14.3508V9.42773H80.7363Z" fill="white" fill-opacity="0.87"/>
<path d="M100.477 18.3631C100.817 14.72 98.967 12.8923 96.0014 12.8923C93.0358 12.8923 91.291 14.8308 91.291 17.52C91.291 20.3569 93.1036 22.24 96.1617 22.24C97.5119 22.24 99.0348 21.7723 99.9719 20.8062L98.5724 19.4277C98.0668 19.9508 97.0063 20.2523 96.1987 20.2523C94.6512 20.2523 93.7017 19.4646 93.5599 18.3693H100.477V18.3631ZM93.5969 16.5539C93.9175 15.4031 94.8916 14.8308 96.0754 14.8308C97.3331 14.8308 98.2333 15.4031 98.3751 16.5539H93.5969Z" fill="white" fill-opacity="0.87"/>
<path d="M102.679 13.1569V22H104.874V17.3354C104.874 15.7046 105.934 15.0954 107.087 15.0954C107.808 15.0954 108.221 15.2923 108.671 15.6677L109.658 13.7662C109.171 13.28 108.289 12.9231 107.377 12.9231C106.464 12.9231 105.564 13.0831 104.88 14.1785L104.719 13.1569H102.691H102.679Z" fill="white" fill-opacity="0.87"/>
<path d="M119.708 22V17.3538C119.708 14.5723 118.037 13.0154 115.953 13.0154C114.837 13.0154 113.943 13.4646 113.043 14.3446L112.901 13.1446H110.94V22.0062H113.117V17.4831C113.117 16.1354 114.035 15.0092 115.38 15.0092C116.724 15.0092 117.519 16.0308 117.519 17.3785V22.0062H119.714L119.708 22Z" fill="white" fill-opacity="0.87"/>
<path d="M122.057 20.8739C122.057 22.5785 124.646 22.5785 124.646 20.8739C124.646 19.1692 122.057 19.1692 122.057 20.8739Z" fill="white" fill-opacity="0.87"/>
<path d="M128.413 10.56V13.1446H126.526V13.883H128.413V19.28C128.413 21.0215 129.023 22.1292 130.91 22.1292C131.465 22.1292 132.026 21.9507 132.581 21.68L132.273 20.96C131.822 21.1753 131.335 21.3169 130.904 21.3169C129.523 21.3169 129.27 20.4738 129.27 19.2738V13.8769H132.291V13.1384H129.27V10.4677L128.407 10.56H128.413Z" fill="white" fill-opacity="0.87"/>
<path d="M139.03 22.1292C140.448 22.1292 141.995 21.5569 142.858 20.4246L142.23 19.92C141.564 20.8 140.201 21.2677 139.03 21.2677C137.199 21.2677 135.596 20.0677 135.417 17.9877H143.413C143.752 14.5231 141.527 13.0031 139.03 13.0031C136.533 13.0031 134.517 14.9231 134.517 17.5754C134.517 20.3938 136.527 22.1292 139.03 22.1292ZM135.417 17.2123C135.614 15.04 137.199 13.8031 139.03 13.8031C141.169 13.8031 142.606 15.0215 142.624 17.2123H135.417Z" fill="white" fill-opacity="0.87"/>
<path d="M153.081 20.1723C152.36 20.8923 151.392 21.2677 150.443 21.2677C148.433 21.2677 146.743 19.9569 146.743 17.5754C146.743 15.1939 148.433 13.8831 150.443 13.8831C151.392 13.8831 152.385 14.2215 153.1 14.9415L153.673 14.3877C152.773 13.5077 151.608 13.0585 150.436 13.0585C147.865 13.0585 145.874 14.7815 145.874 17.5815C145.874 20.3815 147.939 22.1046 150.436 22.1046C151.602 22.1046 152.773 21.6739 153.673 20.7754L153.081 20.1846V20.1723Z" fill="white" fill-opacity="0.87"/>
<path d="M156.17 9.42767V22H157.052V17.1384C157.052 15.2923 158.346 13.8584 160.214 13.8584C162.212 13.8584 163.069 15.0954 163.069 16.9231V22H163.932V16.9231C163.932 14.6092 162.693 13.0154 160.214 13.0154C158.975 13.0338 157.736 13.52 157.015 14.7938V9.42767H156.17Z" fill="white" fill-opacity="0.87"/>
<path fill-rule="evenodd" clip-rule="evenodd" d="M15.9562 23.5816C18.0956 23.7293 19.7047 25.5877 19.5568 27.7169C19.4026 29.8523 17.5468 31.4646 15.4074 31.3108C13.268 31.1569 11.6589 29.3046 11.8068 27.1693C11.9856 24.6339 8.19391 20.7877 5.42564 19.9077C4.48849 19.6185 4.64263 23.5816 5.67225 23.9939C7.19511 24.6031 8.21857 26.1416 8.09526 27.8646C7.94729 30 6.08534 31.6062 3.94594 31.4585C1.80654 31.3046 0.197367 29.4523 0.345336 27.3169C0.450148 25.7908 1.43661 24.5293 2.76834 23.9939C3.98293 23.5016 4.16789 19.9323 2.92864 19.6C1.1715 19.1323 -0.0554154 17.4708 0.0740582 15.5939C0.222028 13.4585 2.07782 11.8462 4.21722 12C6.35662 12.1539 7.96579 14.0062 7.81782 16.1416C7.63286 18.7939 12.4542 23.84 15.3458 23.5877C15.5431 23.5693 15.7465 23.5693 15.9562 23.5877V23.5816Z" fill="white" fill-opacity="0.87"/>
<path fill-rule="evenodd" clip-rule="evenodd" d="M28.8229 12.3939C30.2656 13.0401 31.2151 14.5354 31.0979 16.197C30.95 18.3324 29.088 19.9447 26.9486 19.7908C24.8092 19.637 23.2 17.7847 23.348 15.6493C23.5576 12.7139 18.4403 8.02467 15.7522 8.20929C15.5734 8.22159 15.3946 8.22159 15.2097 8.20929C13.0703 8.05544 11.4611 6.20313 11.609 4.06775C11.757 1.93236 13.6128 0.320055 15.7522 0.473901C17.8916 0.627747 19.5008 2.48006 19.3528 4.61544C19.1925 6.93544 22.8548 11.077 25.7094 11.9201C26.9116 12.2647 26.9239 8.67082 25.623 8.04929C24.2297 7.38467 23.311 5.9139 23.4281 4.27698C23.5761 2.14159 25.4381 0.53544 27.5775 0.683132C29.7169 0.836978 31.326 2.68929 31.1781 4.82467C31.0733 6.3139 30.1423 7.53852 28.866 8.09852C27.6761 8.61544 27.7193 11.8893 28.8229 12.3877V12.3939Z" fill="white" fill-opacity="0.87"/>
</g>
<defs>
<clipPath id="clip0_1544_26511">
<rect width="164" height="32" fill="white"/>
</clipPath>
</defs>
</svg>
