<svg width="573" height="436" viewBox="0 0 573 436" fill="none" xmlns="http://www.w3.org/2000/svg">
    <g clip-path="url(#clip0)">
        <path d="M450.656 172.974L346.628 285.105L340.311 246.799L450.656 172.974Z" fill="#F7F7F7"/>
        <path d="M337.857 243.209L324.95 228.798L450.656 172.974L337.857 243.209Z" fill="#F7F7F7"/>
        <path d="M450.655 172.974L371.989 282.721L359.837 270.881L450.655 172.974Z" fill="#D2D2D2"/>
        <path d="M337.819 243.099L340.311 246.799L450.656 172.974L337.819 243.099Z" fill="#D2D2D2"/>
    </g>
    <path d="M547.719 4.99995L339.401 166.157L339.467 99.3047L547.719 4.99995Z" fill="#F5821F"/>
    <path d="M336.31 92.515L318.447 64.3967L547.719 4.99998L336.31 92.515Z" fill="#F5821F"/>
    <path d="M547.719 5.00005L383.154 169.254L365.849 145.716L547.719 5.00005Z" fill="#CD6F1F"/>
    <path d="M336.277 92.3174L339.467 99.3048L547.719 5.00005L336.277 92.3174Z" fill="#CD6F1F"/>
    <path d="M263 143L161.749 197.517L166.558 168.727L263 143Z" fill="#F7F7F7"/>
    <path d="M165.683 165.577L160 152.188L263 143L165.683 165.577Z" fill="#F7F7F7"/>
    <path d="M263 143L180.373 201.98L174.602 190.604L263 143Z" fill="#D2D2D2"/>
    <path d="M165.683 165.489L166.557 168.727L263 143L165.683 165.489Z" fill="#D2D2D2"/>
    <path d="M75.3549 273L9.23801 327.665L8.5536 305.9L75.3549 273Z" fill="#F7F7F7"/>
    <path d="M7.45363 303.723L1.34127 294.758L75.3545 273L7.45363 303.723Z" fill="#F7F7F7"/>
    <path d="M75.3544 273L23.5142 328.211L17.6317 320.731L75.3544 273Z" fill="#D2D2D2"/>
    <path d="M7.44113 303.659L8.55345 305.9L75.3548 273L7.44113 303.659Z" fill="#D2D2D2"/>
    <path d="M186.985 328L65.0377 428.825L63.7753 388.682L186.985 328Z" fill="#F7F7F7"/>
    <path d="M61.7476 384.667L50.4739 368.131L186.985 328.001L61.7476 384.667Z" fill="#F7F7F7"/>
    <path d="M186.985 328L91.3699 429.833L80.5201 416.036L186.985 328Z" fill="#D2D2D2"/>
    <path d="M61.7245 384.549L63.7761 388.682L186.985 328L61.7245 384.549Z" fill="#D2D2D2"/>
    <path d="M83.6086 167.542L9.25309 210.331L12.2322 188.761L83.6086 167.542Z" fill="#F7F7F7"/>
    <path d="M11.5136 186.43L6.99307 176.566L83.6085 167.542L11.5136 186.43Z" fill="#F7F7F7"/>
    <path d="M83.6083 167.542L23.2351 213.267L18.6918 204.905L83.6083 167.542Z" fill="#D2D2D2"/>
    <path d="M11.5118 186.365L12.2321 188.761L83.6086 167.542L11.5118 186.365Z" fill="#D2D2D2"/>
    <path d="M273.721 32.6828L188.951 55.3117L197.594 34.7871L273.721 32.6828Z" fill="#F7F7F7"/>
    <path d="M197.5 32.2945L195.64 21.3541L273.72 32.6828L197.5 32.2945Z" fill="#F7F7F7"/>
    <path d="M273.72 32.6828L201.989 61.9065L199.71 52.4448L273.72 32.6828Z" fill="#D2D2D2"/>
    <path d="M197.515 32.2295L197.594 34.7871L273.721 32.6828L197.515 32.2295Z" fill="#D2D2D2"/>
    <defs>
        <clipPath id="clip0">
            <rect width="310" height="286" fill="white" transform="translate(263)"/>
        </clipPath>
    </defs>
</svg>
