<svg fill="none" height="153" viewBox="0 0 152 153" width="152" xmlns="http://www.w3.org/2000/svg">
    <path d="M 57.777 56.205 C 59.433 56.205 60.945 56.517 62.313 57.141 C 63.681 57.741 64.845 58.593 65.805 59.697 C 66.789 60.777 67.545 62.085 68.073 63.621 C 68.625 65.157 68.901 66.849 68.901 68.697 C 68.901 70.713 68.601 72.561 68.001 74.241 C 67.401 75.897 66.561 77.313 65.481 78.489 C 64.401 79.665 63.093 80.577 61.557 81.225 C 60.021 81.873 58.329 82.197 56.481 82.197 C 55.113 82.197 53.757 81.981 52.413 81.549 C 51.069 81.093 49.941 80.493 49.029 79.749 L 51.837 76.221 C 52.581 76.797 53.361 77.217 54.177 77.481 C 54.993 77.745 55.881 77.877 56.841 77.877 C 59.001 77.877 60.693 77.145 61.917 75.681 C 63.165 74.193 63.849 72.093 63.969 69.381 C 63.153 70.293 62.145 71.013 60.945 71.541 C 59.745 72.045 58.473 72.297 57.129 72.297 C 55.857 72.297 54.681 72.105 53.601 71.721 C 52.521 71.337 51.585 70.809 50.793 70.137 C 50.025 69.441 49.425 68.625 48.993 67.689 C 48.561 66.729 48.345 65.685 48.345 64.557 C 48.345 63.357 48.585 62.253 49.065 61.245 C 49.545 60.213 50.193 59.325 51.009 58.581 C 51.849 57.837 52.845 57.261 53.997 56.853 C 55.173 56.421 56.433 56.205 57.777 56.205 Z M 57.921 68.409 C 59.049 68.409 60.093 68.169 61.053 67.689 C 62.037 67.209 62.913 66.525 63.681 65.637 C 63.297 64.053 62.601 62.781 61.593 61.821 C 60.585 60.861 59.385 60.381 57.993 60.381 C 56.625 60.381 55.473 60.765 54.537 61.533 C 53.625 62.301 53.169 63.273 53.169 64.449 C 53.169 65.625 53.613 66.585 54.501 67.329 C 55.389 68.049 56.529 68.409 57.921 68.409 Z M 81.456 82.233 C 79.992 82.233 78.636 82.053 77.388 81.693 C 76.164 81.309 75.108 80.793 74.22 80.145 C 73.332 79.497 72.636 78.717 72.132 77.805 C 71.652 76.893 71.412 75.885 71.412 74.781 C 71.412 73.485 71.808 72.309 72.6 71.253 C 73.416 70.197 74.472 69.405 75.768 68.877 C 74.712 68.277 73.86 67.497 73.212 66.537 C 72.564 65.577 72.24 64.509 72.24 63.333 C 72.24 62.325 72.468 61.389 72.924 60.525 C 73.404 59.661 74.052 58.917 74.868 58.293 C 75.684 57.645 76.656 57.141 77.784 56.781 C 78.936 56.421 80.16 56.241 81.456 56.241 C 82.752 56.241 83.964 56.421 85.092 56.781 C 86.244 57.141 87.228 57.645 88.044 58.293 C 88.884 58.917 89.532 59.661 89.988 60.525 C 90.468 61.389 90.708 62.325 90.708 63.333 C 90.708 64.509 90.384 65.589 89.736 66.573 C 89.088 67.533 88.236 68.301 87.18 68.877 C 88.476 69.405 89.52 70.197 90.312 71.253 C 91.128 72.309 91.536 73.485 91.536 74.781 C 91.536 75.885 91.284 76.893 90.78 77.805 C 90.3 78.717 89.616 79.497 88.728 80.145 C 87.84 80.793 86.772 81.309 85.524 81.693 C 84.3 82.053 82.944 82.233 81.456 82.233 Z M 81.456 67.041 C 82.704 67.041 83.748 66.717 84.588 66.069 C 85.452 65.421 85.884 64.617 85.884 63.657 C 85.884 62.697 85.464 61.893 84.624 61.245 C 83.784 60.573 82.728 60.237 81.456 60.237 C 80.208 60.237 79.164 60.573 78.324 61.245 C 77.484 61.893 77.064 62.697 77.064 63.657 C 77.064 64.617 77.484 65.421 78.324 66.069 C 79.188 66.717 80.232 67.041 81.456 67.041 Z M 81.456 78.201 C 82.944 78.201 84.168 77.853 85.128 77.157 C 86.112 76.461 86.604 75.573 86.604 74.493 C 86.604 73.437 86.112 72.561 85.128 71.865 C 84.168 71.145 82.944 70.785 81.456 70.785 C 79.992 70.785 78.768 71.145 77.784 71.865 C 76.824 72.561 76.344 73.437 76.344 74.493 C 76.344 75.573 76.824 76.461 77.784 77.157 C 78.768 77.853 79.992 78.201 81.456 78.201 Z M 95.409 77.007 C 94.737 77.007 94.196 76.774 93.785 76.307 C 93.375 75.84 93.169 75.229 93.169 74.473 C 93.169 73.726 93.375 73.12 93.785 72.653 C 94.196 72.186 94.737 71.953 95.409 71.953 C 96.072 71.953 96.609 72.186 97.019 72.653 C 97.43 73.12 97.635 73.726 97.635 74.473 C 97.635 75.229 97.43 75.84 97.019 76.307 C 96.618 76.774 96.081 77.007 95.409 77.007 Z M 95.409 75.985 C 95.745 75.985 96.007 75.85 96.193 75.579 C 96.389 75.308 96.487 74.94 96.487 74.473 C 96.487 74.016 96.389 73.652 96.193 73.381 C 95.997 73.11 95.736 72.975 95.409 72.975 C 95.073 72.975 94.807 73.11 94.611 73.381 C 94.425 73.652 94.327 74.016 94.317 74.473 C 94.327 74.94 94.425 75.308 94.611 75.579 C 94.798 75.85 95.064 75.985 95.409 75.985 Z M 96.291 81.837 L 94.863 81.837 L 100.407 72.037 L 101.849 72.037 L 96.291 81.837 Z M 101.429 81.907 C 100.757 81.907 100.216 81.674 99.805 81.207 C 99.395 80.74 99.189 80.129 99.189 79.373 C 99.189 78.626 99.395 78.02 99.805 77.553 C 100.216 77.086 100.757 76.853 101.429 76.853 C 102.092 76.853 102.629 77.086 103.039 77.553 C 103.45 78.02 103.655 78.626 103.655 79.373 C 103.655 80.129 103.45 80.74 103.039 81.207 C 102.638 81.674 102.101 81.907 101.429 81.907 Z M 101.429 80.885 C 101.765 80.885 102.027 80.75 102.213 80.479 C 102.409 80.208 102.507 79.84 102.507 79.373 C 102.507 78.916 102.409 78.552 102.213 78.281 C 102.017 78.01 101.756 77.875 101.429 77.875 C 101.093 77.875 100.827 78.01 100.631 78.281 C 100.445 78.552 100.347 78.916 100.337 79.373 C 100.347 79.84 100.445 80.208 100.631 80.479 C 100.818 80.75 101.084 80.885 101.429 80.885 Z" fill="#0B132A"/>
    <path d="M 53.422 96.695 L 53.422 95.735 L 56.182 93.265 C 56.495 92.978 56.719 92.728 56.852 92.515 C 56.985 92.295 57.052 92.068 57.052 91.835 C 57.052 91.528 56.932 91.275 56.692 91.075 C 56.452 90.875 56.152 90.775 55.792 90.775 C 55.459 90.775 55.145 90.842 54.852 90.975 C 54.565 91.108 54.252 91.328 53.912 91.635 L 53.142 90.715 C 53.549 90.348 53.979 90.072 54.432 89.885 C 54.885 89.699 55.352 89.605 55.832 89.605 C 56.205 89.605 56.549 89.659 56.862 89.765 C 57.182 89.865 57.452 90.008 57.672 90.195 C 57.899 90.382 58.072 90.608 58.192 90.875 C 58.319 91.142 58.382 91.432 58.382 91.745 C 58.382 92.145 58.282 92.515 58.082 92.855 C 57.882 93.195 57.535 93.585 57.042 94.025 L 55.332 95.545 L 58.472 95.545 L 58.472 96.695 L 53.422 96.695 Z M 59.735 96.695 L 62.975 90.885 L 58.915 90.885 L 58.915 89.695 L 64.535 89.695 L 64.535 90.705 L 61.365 96.695 L 59.735 96.695 Z M 65.849 96.695 L 69.089 90.885 L 65.029 90.885 L 65.029 89.695 L 70.649 89.695 L 70.649 90.705 L 67.479 96.695 L 65.849 96.695 Z M 73.387 96.695 L 73.387 89.695 L 74.757 89.395 L 74.757 91.895 C 74.957 91.728 75.177 91.602 75.417 91.515 C 75.663 91.428 75.93 91.385 76.217 91.385 C 76.817 91.385 77.31 91.578 77.697 91.965 C 78.083 92.352 78.277 92.848 78.277 93.455 L 78.277 96.695 L 76.907 96.695 L 76.907 93.655 C 76.907 93.328 76.807 93.065 76.607 92.865 C 76.413 92.665 76.153 92.565 75.827 92.565 C 75.6 92.565 75.393 92.612 75.207 92.705 C 75.027 92.792 74.877 92.918 74.757 93.085 L 74.757 96.695 L 73.387 96.695 Z M 79.074 94.095 C 79.074 93.715 79.144 93.362 79.284 93.035 C 79.431 92.702 79.628 92.415 79.874 92.175 C 80.128 91.928 80.424 91.735 80.764 91.595 C 81.104 91.455 81.468 91.385 81.854 91.385 C 82.241 91.385 82.604 91.455 82.944 91.595 C 83.284 91.735 83.578 91.928 83.824 92.175 C 84.078 92.415 84.274 92.702 84.414 93.035 C 84.561 93.362 84.634 93.715 84.634 94.095 C 84.634 94.475 84.561 94.832 84.414 95.165 C 84.274 95.492 84.078 95.775 83.824 96.015 C 83.578 96.255 83.284 96.445 82.944 96.585 C 82.604 96.725 82.241 96.795 81.854 96.795 C 81.468 96.795 81.104 96.725 80.764 96.585 C 80.424 96.445 80.128 96.255 79.874 96.015 C 79.628 95.775 79.431 95.492 79.284 95.165 C 79.144 94.832 79.074 94.475 79.074 94.095 Z M 81.854 95.605 C 82.254 95.605 82.594 95.458 82.874 95.165 C 83.154 94.872 83.294 94.515 83.294 94.095 C 83.294 93.668 83.154 93.308 82.874 93.015 C 82.594 92.722 82.254 92.575 81.854 92.575 C 81.454 92.575 81.114 92.722 80.834 93.015 C 80.554 93.308 80.414 93.668 80.414 94.095 C 80.414 94.515 80.554 94.872 80.834 95.165 C 81.114 95.458 81.454 95.605 81.854 95.605 Z M 85.036 96.075 L 85.716 95.165 C 86.023 95.365 86.313 95.515 86.586 95.615 C 86.86 95.708 87.133 95.755 87.406 95.755 C 87.713 95.755 87.956 95.705 88.136 95.605 C 88.323 95.505 88.416 95.372 88.416 95.205 C 88.416 95.072 88.363 94.965 88.256 94.885 C 88.156 94.805 87.993 94.748 87.766 94.715 L 86.766 94.565 C 86.253 94.485 85.86 94.318 85.586 94.065 C 85.32 93.812 85.186 93.475 85.186 93.055 C 85.186 92.555 85.383 92.155 85.776 91.855 C 86.17 91.555 86.696 91.405 87.356 91.405 C 87.736 91.405 88.106 91.462 88.466 91.575 C 88.826 91.682 89.17 91.842 89.496 92.055 L 88.836 92.935 C 88.55 92.768 88.276 92.645 88.016 92.565 C 87.756 92.478 87.493 92.435 87.226 92.435 C 86.98 92.435 86.78 92.482 86.626 92.575 C 86.48 92.668 86.406 92.792 86.406 92.945 C 86.406 93.085 86.46 93.195 86.566 93.275 C 86.68 93.348 86.863 93.402 87.116 93.435 L 88.116 93.585 C 88.623 93.658 89.013 93.825 89.286 94.085 C 89.566 94.345 89.706 94.675 89.706 95.075 C 89.706 95.322 89.646 95.552 89.526 95.765 C 89.413 95.972 89.256 96.152 89.056 96.305 C 88.856 96.458 88.616 96.578 88.336 96.665 C 88.056 96.752 87.753 96.795 87.426 96.795 C 86.953 96.795 86.51 96.735 86.096 96.615 C 85.683 96.488 85.33 96.308 85.036 96.075 Z M 91.001 95.225 L 91.001 92.635 L 89.931 92.635 L 89.931 91.485 L 91.001 91.485 L 91.001 90.155 L 92.371 89.845 L 92.371 91.485 L 93.851 91.485 L 93.851 92.635 L 92.371 92.635 L 92.371 94.945 C 92.371 95.192 92.424 95.365 92.531 95.465 C 92.638 95.565 92.824 95.615 93.091 95.615 C 93.218 95.615 93.338 95.608 93.451 95.595 C 93.564 95.575 93.688 95.542 93.821 95.495 L 93.821 96.615 C 93.674 96.662 93.498 96.698 93.291 96.725 C 93.084 96.758 92.908 96.775 92.761 96.775 C 92.181 96.775 91.741 96.645 91.441 96.385 C 91.148 96.118 91.001 95.732 91.001 95.225 Z M 94.187 96.075 L 94.867 95.165 C 95.173 95.365 95.463 95.515 95.737 95.615 C 96.01 95.708 96.283 95.755 96.557 95.755 C 96.863 95.755 97.107 95.705 97.287 95.605 C 97.473 95.505 97.567 95.372 97.567 95.205 C 97.567 95.072 97.513 94.965 97.407 94.885 C 97.307 94.805 97.143 94.748 96.917 94.715 L 95.917 94.565 C 95.403 94.485 95.01 94.318 94.737 94.065 C 94.47 93.812 94.337 93.475 94.337 93.055 C 94.337 92.555 94.533 92.155 94.927 91.855 C 95.32 91.555 95.847 91.405 96.507 91.405 C 96.887 91.405 97.257 91.462 97.617 91.575 C 97.977 91.682 98.32 91.842 98.647 92.055 L 97.987 92.935 C 97.7 92.768 97.427 92.645 97.167 92.565 C 96.907 92.478 96.643 92.435 96.377 92.435 C 96.13 92.435 95.93 92.482 95.777 92.575 C 95.63 92.668 95.557 92.792 95.557 92.945 C 95.557 93.085 95.61 93.195 95.717 93.275 C 95.83 93.348 96.013 93.402 96.267 93.435 L 97.267 93.585 C 97.773 93.658 98.163 93.825 98.437 94.085 C 98.717 94.345 98.857 94.675 98.857 95.075 C 98.857 95.322 98.797 95.552 98.677 95.765 C 98.563 95.972 98.407 96.152 98.207 96.305 C 98.007 96.458 97.767 96.578 97.487 96.665 C 97.207 96.752 96.903 96.795 96.577 96.795 C 96.103 96.795 95.66 96.735 95.247 96.615 C 94.833 96.488 94.48 96.308 94.187 96.075 Z" fill="#0B132A"/>
    <circle cx="75.9349" cy="76.1348" r="50.9622" stroke="#F7F7F7" stroke-width="7"/>
    <circle cx="75.9352" cy="76.1348" r="61.6896" stroke="#F7F7F7" stroke-width="7"/>
    <circle cx="75.9352" cy="76.1348" r="61.6896" stroke="url(#linearColors1)" stroke-width="7"/>
    <circle cx="75.9351" cy="76.1348" r="72.417" stroke="#F7F7F7" stroke-width="7"/>
    <defs>
        <linearGradient id="linearColors1" gradientTransform="rotate(25)" x1="0" y1="0" x2="1" y2="0">
            <stop stop-color="#FD9047"/>
            <stop offset="0.2" stop-color="#FD9047"/>
            <stop offset="1" stop-color="#F7F7F7"/>
        </linearGradient>
    </defs>
</svg>