<svg width="224" height="224"  fill="none" xmlns="http://www.w3.org/2000/svg">
    <path d="M223.709 125.379C223.709 137.611 219.368 147.295 210.685 154.43C202.002 161.565 191.021 165.133 177.742 165.133C161.398 165.133 148.373 160.291 138.669 150.607C128.965 140.924 124.113 126.653 124.113 107.795C124.113 90.4664 126.667 75.4312 131.774 62.6894C137.392 49.9477 144.032 39.4994 151.693 31.3447C159.355 22.6803 167.527 15.7998 176.209 10.7031C184.892 5.60637 192.553 2.03868 199.193 0L219.879 30.5802C207.621 36.1866 197.661 43.5768 190 52.7509C182.338 61.9249 179.019 73.1376 180.04 86.3891C193.32 83.8407 203.79 86.3891 211.451 94.0341C219.623 101.679 223.709 112.127 223.709 125.379ZM99.5966 125.379C99.5966 137.611 95.2552 147.295 86.5725 154.43C77.8897 161.565 66.9086 165.133 53.629 165.133C37.285 165.133 24.2607 160.291 14.5564 150.607C4.8521 140.924 0 126.653 0 107.795C0 90.4664 2.55377 75.4312 7.66129 62.6894C13.2796 49.9477 19.9193 39.4994 27.5806 31.3447C35.2418 22.6803 43.4139 15.7998 52.0967 10.7031C60.7794 5.60637 68.4408 2.03868 75.0805 0L95.766 30.5802C83.5079 36.1866 73.5483 43.5768 65.887 52.7509C58.2257 61.9249 54.9058 73.1376 55.9273 86.3891C69.2068 83.8407 79.6774 86.3891 87.3387 94.0341C95.5107 101.679 99.5966 112.127 99.5966 125.379Z" fill="#F7F7F7"/>
</svg>
