<svg width="879" height="224" viewBox="0 0 879 224" fill="none" xmlns="http://www.w3.org/2000/svg">
    <path d="M223.709 125.379C223.709 137.611 219.368 147.295 210.685 154.43C202.002 161.565 191.021 165.133 177.742 165.133C161.398 165.133 148.373 160.291 138.669 150.607C128.965 140.924 124.113 126.653 124.113 107.795C124.113 90.4664 126.667 75.4312 131.774 62.6894C137.392 49.9477 144.032 39.4994 151.693 31.3447C159.355 22.6803 167.527 15.7998 176.209 10.7031C184.892 5.60637 192.553 2.03868 199.193 0L219.879 30.5802C207.621 36.1866 197.661 43.5768 190 52.7509C182.338 61.9249 179.019 73.1376 180.04 86.3891C193.32 83.8407 203.79 86.3891 211.451 94.0341C219.623 101.679 223.709 112.127 223.709 125.379ZM99.5966 125.379C99.5966 137.611 95.2552 147.295 86.5725 154.43C77.8897 161.565 66.9086 165.133 53.629 165.133C37.285 165.133 24.2607 160.291 14.5564 150.607C4.8521 140.924 0 126.653 0 107.795C0 90.4664 2.55377 75.4312 7.66129 62.6894C13.2796 49.9477 19.9193 39.4994 27.5806 31.3447C35.2418 22.6803 43.4139 15.7998 52.0967 10.7031C60.7794 5.60637 68.4408 2.03868 75.0805 0L95.766 30.5802C83.5079 36.1866 73.5483 43.5768 65.887 52.7509C58.2257 61.9249 54.9058 73.1376 55.9273 86.3891C69.2068 83.8407 79.6774 86.3891 87.3387 94.0341C95.5107 101.679 99.5966 112.127 99.5966 125.379Z" fill="#F7F7F7"/>
    <path d="M778.903 98.6211C778.903 86.3891 782.989 76.7054 791.161 69.57C799.844 61.9249 810.825 58.1024 824.105 58.1024C840.449 58.1024 853.473 62.9443 863.177 72.628C873.392 82.3117 878.5 96.5825 878.5 115.44C878.5 133.279 875.691 148.569 870.073 161.311C864.454 174.052 857.559 184.755 849.387 193.42C841.726 202.084 833.554 208.965 824.871 214.061C816.188 218.648 808.782 221.961 802.653 224L781.202 192.655C793.46 187.049 803.42 179.914 811.081 171.249C819.253 162.075 823.083 150.862 822.573 137.611C809.293 140.159 798.567 137.611 790.395 129.966C782.734 122.321 778.903 111.873 778.903 98.6211ZM654.791 98.6211C654.791 86.3891 658.877 76.7054 667.049 69.57C675.732 61.9249 686.713 58.1024 699.992 58.1024C716.336 58.1024 729.36 62.9443 739.065 72.628C749.28 82.3117 754.387 96.5825 754.387 115.44C754.387 133.279 751.578 148.569 745.96 161.311C740.342 174.052 733.447 184.755 725.275 193.42C717.613 202.084 709.441 208.965 700.758 214.061C692.076 218.648 684.67 221.961 678.541 224L657.089 192.655C669.347 187.049 679.307 179.914 686.968 171.249C695.14 162.075 698.971 150.862 698.46 137.611C685.18 140.159 674.455 137.611 666.283 129.966C658.621 122.321 654.791 111.873 654.791 98.6211Z" fill="#F7F7F7"/>
</svg>
