<svg width="354" height="405" viewBox="0 0 354 405" fill="none" xmlns="http://www.w3.org/2000/svg">
    <path d="M151 26C151 39.6494 139.935 50.7143 126.286 50.7143C112.637 50.7143 101.572 39.6494 101.572 26C101.572 12.3507 112.637 1.28577 126.286 1.28577C139.935 1.28576 151 12.3507 151 26Z" stroke="#C2C4C9"/>
    <path d="M201.429 26C201.429 39.6494 190.364 50.7143 176.714 50.7143C163.065 50.7143 152 39.6494 152 26C152 12.3507 163.065 1.28577 176.714 1.28577C190.364 1.28576 201.429 12.3507 201.429 26Z" stroke="#C2C4C9"/>
    <path d="M251.857 26C251.857 39.6494 240.792 50.7143 227.143 50.7143C213.494 50.7143 202.429 39.6494 202.429 26C202.429 12.3507 213.494 1.28577 227.143 1.28577C240.792 1.28576 251.857 12.3507 251.857 26Z" stroke="#C2C4C9"/>
    <path d="M151 76.4288C151 90.0781 139.935 101.143 126.286 101.143C112.637 101.143 101.572 90.0781 101.572 76.4288C101.572 62.7794 112.637 51.7145 126.286 51.7145C139.935 51.7145 151 62.7794 151 76.4288Z" stroke="#C2C4C9"/>
    <path d="M201.429 76.4285C201.429 90.0778 190.364 101.143 176.714 101.143C163.065 101.143 152 90.0778 152 76.4285C152 62.7792 163.065 51.7142 176.714 51.7142C190.364 51.7142 201.429 62.7792 201.429 76.4285Z" stroke="#C2C4C9"/>
    <path d="M251.857 76.4285C251.857 90.0778 240.792 101.143 227.143 101.143C213.494 101.143 202.429 90.0778 202.429 76.4285C202.429 62.7792 213.494 51.7142 227.143 51.7142C240.792 51.7142 251.857 62.7792 251.857 76.4285Z" stroke="#F08020"/>
    <path d="M151 126.857C151 140.506 139.935 151.571 126.286 151.571C112.636 151.571 101.571 140.506 101.571 126.857C101.571 113.208 112.636 102.143 126.286 102.143C139.935 102.143 151 113.208 151 126.857Z" stroke="#C2C4C9"/>
    <path d="M201.429 126.857C201.429 140.506 190.364 151.571 176.714 151.571C163.065 151.571 152 140.506 152 126.857C152 113.208 163.065 102.143 176.714 102.143C190.364 102.143 201.429 113.208 201.429 126.857Z" stroke="#C2C4C9"/>
    <path d="M251.857 126.857C251.857 140.507 240.792 151.571 227.143 151.571C213.494 151.571 202.429 140.507 202.429 126.857C202.429 113.208 213.494 102.143 227.143 102.143C240.792 102.143 251.857 113.208 251.857 126.857Z" stroke="#C2C4C9"/>
    <path d="M50.1429 26C50.1429 39.6494 39.078 50.7143 25.4286 50.7143C11.7793 50.7143 0.714357 39.6494 0.714357 26C0.714356 12.3507 11.7793 1.28577 25.4286 1.28577C39.078 1.28576 50.1429 12.3507 50.1429 26Z" stroke="#C2C4C9"/>
    <path d="M50.1429 76.4285C50.1429 90.0778 39.078 101.143 25.4286 101.143C11.7793 101.143 0.714357 90.0778 0.714357 76.4285C0.714356 62.7792 11.7793 51.7142 25.4286 51.7142C39.078 51.7142 50.1429 62.7792 50.1429 76.4285Z" stroke="#C2C4C9"/>
    <path d="M50.1429 126.857C50.1429 140.506 39.078 151.571 25.4286 151.571C11.7793 151.571 0.714357 140.506 0.714357 126.857C0.714356 113.208 11.7793 102.143 25.4286 102.143C39.078 102.143 50.1429 113.208 50.1429 126.857Z" stroke="#C2C4C9"/>
    <path d="M50.1429 177.286C50.1429 190.935 39.078 202 25.4286 202C11.7793 202 0.714357 190.935 0.714357 177.286C0.714356 163.636 11.7793 152.571 25.4286 152.571C39.078 152.571 50.1429 163.636 50.1429 177.286Z" stroke="#C2C4C9"/>
    <path d="M352.714 177.286C352.714 190.935 341.649 202 328 202C314.351 202 303.286 190.935 303.286 177.286C303.286 163.637 314.351 152.572 328 152.572C341.649 152.572 352.714 163.637 352.714 177.286Z" stroke="#C2C4C9"/>
    <path d="M151 227.714C151 241.363 139.935 252.428 126.286 252.428C112.636 252.428 101.571 241.363 101.571 227.714C101.571 214.065 112.636 203 126.286 203C139.935 203 151 214.065 151 227.714Z" stroke="#C2C4C9"/>
    <path d="M151 278.143C151 291.792 139.935 302.857 126.286 302.857C112.636 302.857 101.571 291.792 101.571 278.143C101.571 264.494 112.636 253.429 126.286 253.429C139.935 253.429 151 264.494 151 278.143Z" stroke="#C2C4C9"/>
    <path d="M151 328.571C151 342.221 139.935 353.286 126.286 353.286C112.636 353.286 101.571 342.221 101.571 328.571C101.571 314.922 112.636 303.857 126.286 303.857C139.935 303.857 151 314.922 151 328.571Z" stroke="#F5821F"/>
    <path d="M151 379C151 392.649 139.935 403.714 126.286 403.714C112.636 403.714 101.571 392.649 101.571 379C101.571 365.351 112.636 354.286 126.286 354.286C139.935 354.286 151 365.351 151 379Z" stroke="#C2C4C9"/>
    <path d="M251.857 227.714C251.857 241.363 240.792 252.428 227.143 252.428C213.494 252.428 202.429 241.363 202.429 227.714C202.429 214.065 213.494 203 227.143 203C240.792 203 251.857 214.065 251.857 227.714Z" stroke="#C2C4C9"/>
    <path d="M251.857 278.143C251.857 291.792 240.792 302.857 227.143 302.857C213.494 302.857 202.429 291.792 202.429 278.143C202.429 264.494 213.494 253.429 227.143 253.429C240.792 253.429 251.857 264.494 251.857 278.143Z" stroke="#C2C4C9"/>
    <path d="M251.857 328.571C251.857 342.221 240.792 353.286 227.143 353.286C213.494 353.286 202.429 342.221 202.429 328.571C202.429 314.922 213.494 303.857 227.143 303.857C240.792 303.857 251.857 314.922 251.857 328.571Z" stroke="#C2C4C9"/>
    <path d="M251.857 379C251.857 392.649 240.792 403.714 227.143 403.714C213.494 403.714 202.429 392.649 202.429 379C202.429 365.35 213.494 354.286 227.143 354.286C240.792 354.286 251.857 365.35 251.857 379Z" stroke="#C2C4C9"/>
    <path d="M201.429 227.714C201.429 241.364 190.364 252.429 176.714 252.429C163.065 252.429 152 241.364 152 227.714C152 214.065 163.065 203 176.714 203C190.364 203 201.429 214.065 201.429 227.714Z" stroke="#C2C4C9"/>
</svg>