<svg width="152" height="153" viewBox="0 0 152 153" fill="none" xmlns="http://www.w3.org/2000/svg">
    <circle cx="75.9349" cy="76.7259" r="50.9622" stroke="#F7F7F7" stroke-width="7"/>
    <circle cx="75.9352" cy="76.7259" r="61.6896" stroke="#F7F7F7" stroke-width="7"/>
    <circle cx="75.9352" cy="76.7259" r="61.6896" stroke="#F7F7F7" stroke-width="7"/>
    <circle cx="75.9351" cy="76.7259" r="72.417" stroke="url(#linearColors2)" stroke-width="7"/>
    <path d="M 79.953 54.317 L 79.953 79.517 L 75.021 79.517 L 75.021 59.321 L 70.089 61.337 L 70.089 57.053 L 76.821 54.317 L 79.953 54.317 Z" fill="#0B132A"/>
    <path d="M 56.44 98.573 L 56.44 97.613 L 59.2 95.143 C 59.514 94.857 59.737 94.607 59.87 94.393 C 60.004 94.173 60.07 93.947 60.07 93.713 C 60.07 93.407 59.95 93.153 59.71 92.953 C 59.47 92.753 59.17 92.653 58.81 92.653 C 58.477 92.653 58.164 92.72 57.87 92.853 C 57.584 92.987 57.27 93.207 56.93 93.513 L 56.16 92.593 C 56.567 92.227 56.997 91.95 57.45 91.763 C 57.904 91.577 58.37 91.483 58.85 91.483 C 59.224 91.483 59.567 91.537 59.88 91.643 C 60.2 91.743 60.47 91.887 60.69 92.073 C 60.917 92.26 61.09 92.487 61.21 92.753 C 61.337 93.02 61.4 93.31 61.4 93.623 C 61.4 94.023 61.3 94.393 61.1 94.733 C 60.9 95.073 60.554 95.463 60.06 95.903 L 58.35 97.423 L 61.49 97.423 L 61.49 98.573 L 56.44 98.573 Z M 62.423 95.243 L 62.593 91.573 L 67.103 91.573 L 67.103 92.723 L 63.703 92.723 L 63.633 94.353 C 63.839 94.28 64.049 94.227 64.263 94.193 C 64.483 94.16 64.709 94.143 64.943 94.143 C 65.703 94.143 66.319 94.343 66.793 94.743 C 67.266 95.137 67.503 95.653 67.503 96.293 C 67.503 96.647 67.433 96.97 67.293 97.263 C 67.159 97.557 66.966 97.81 66.713 98.023 C 66.466 98.23 66.166 98.393 65.813 98.513 C 65.459 98.627 65.073 98.683 64.653 98.683 C 64.153 98.683 63.679 98.603 63.233 98.443 C 62.786 98.283 62.389 98.05 62.043 97.743 L 62.873 96.813 C 63.179 97.067 63.473 97.25 63.753 97.363 C 64.039 97.47 64.353 97.523 64.693 97.523 C 65.113 97.523 65.453 97.417 65.713 97.203 C 65.973 96.99 66.103 96.71 66.103 96.363 C 66.103 96.03 65.963 95.76 65.683 95.553 C 65.403 95.34 65.043 95.233 64.603 95.233 C 64.396 95.233 64.179 95.26 63.953 95.313 C 63.733 95.36 63.519 95.427 63.313 95.513 L 62.423 95.243 Z M 70.37 98.573 L 70.37 91.573 L 71.74 91.273 L 71.74 93.773 C 71.94 93.607 72.16 93.48 72.4 93.393 C 72.646 93.307 72.913 93.263 73.2 93.263 C 73.8 93.263 74.293 93.457 74.68 93.843 C 75.066 94.23 75.26 94.727 75.26 95.333 L 75.26 98.573 L 73.89 98.573 L 73.89 95.533 C 73.89 95.207 73.79 94.943 73.59 94.743 C 73.396 94.543 73.136 94.443 72.81 94.443 C 72.583 94.443 72.376 94.49 72.19 94.583 C 72.01 94.67 71.86 94.797 71.74 94.963 L 71.74 98.573 L 70.37 98.573 Z M 76.057 95.973 C 76.057 95.593 76.127 95.24 76.267 94.913 C 76.414 94.58 76.611 94.293 76.857 94.053 C 77.111 93.807 77.407 93.613 77.747 93.473 C 78.087 93.333 78.451 93.263 78.837 93.263 C 79.224 93.263 79.587 93.333 79.927 93.473 C 80.267 93.613 80.561 93.807 80.807 94.053 C 81.061 94.293 81.257 94.58 81.397 94.913 C 81.544 95.24 81.617 95.593 81.617 95.973 C 81.617 96.353 81.544 96.71 81.397 97.043 C 81.257 97.37 81.061 97.653 80.807 97.893 C 80.561 98.133 80.267 98.323 79.927 98.463 C 79.587 98.603 79.224 98.673 78.837 98.673 C 78.451 98.673 78.087 98.603 77.747 98.463 C 77.407 98.323 77.111 98.133 76.857 97.893 C 76.611 97.653 76.414 97.37 76.267 97.043 C 76.127 96.71 76.057 96.353 76.057 95.973 Z M 78.837 97.483 C 79.237 97.483 79.577 97.337 79.857 97.043 C 80.137 96.75 80.277 96.393 80.277 95.973 C 80.277 95.547 80.137 95.187 79.857 94.893 C 79.577 94.6 79.237 94.453 78.837 94.453 C 78.437 94.453 78.097 94.6 77.817 94.893 C 77.537 95.187 77.397 95.547 77.397 95.973 C 77.397 96.393 77.537 96.75 77.817 97.043 C 78.097 97.337 78.437 97.483 78.837 97.483 Z M 82.02 97.953 L 82.7 97.043 C 83.006 97.243 83.296 97.393 83.57 97.493 C 83.843 97.587 84.116 97.633 84.39 97.633 C 84.696 97.633 84.94 97.583 85.12 97.483 C 85.306 97.383 85.4 97.25 85.4 97.083 C 85.4 96.95 85.346 96.843 85.24 96.763 C 85.14 96.683 84.976 96.627 84.75 96.593 L 83.75 96.443 C 83.236 96.363 82.843 96.197 82.57 95.943 C 82.303 95.69 82.17 95.353 82.17 94.933 C 82.17 94.433 82.366 94.033 82.76 93.733 C 83.153 93.433 83.68 93.283 84.34 93.283 C 84.72 93.283 85.09 93.34 85.45 93.453 C 85.81 93.56 86.153 93.72 86.48 93.933 L 85.82 94.813 C 85.533 94.647 85.26 94.523 85 94.443 C 84.74 94.357 84.476 94.313 84.21 94.313 C 83.963 94.313 83.763 94.36 83.61 94.453 C 83.463 94.547 83.39 94.67 83.39 94.823 C 83.39 94.963 83.443 95.073 83.55 95.153 C 83.663 95.227 83.846 95.28 84.1 95.313 L 85.1 95.463 C 85.606 95.537 85.996 95.703 86.27 95.963 C 86.55 96.223 86.69 96.553 86.69 96.953 C 86.69 97.2 86.63 97.43 86.51 97.643 C 86.396 97.85 86.24 98.03 86.04 98.183 C 85.84 98.337 85.6 98.457 85.32 98.543 C 85.04 98.63 84.736 98.673 84.41 98.673 C 83.936 98.673 83.493 98.613 83.08 98.493 C 82.666 98.367 82.313 98.187 82.02 97.953 Z M 87.984 97.103 L 87.984 94.513 L 86.914 94.513 L 86.914 93.363 L 87.984 93.363 L 87.984 92.033 L 89.354 91.723 L 89.354 93.363 L 90.834 93.363 L 90.834 94.513 L 89.354 94.513 L 89.354 96.823 C 89.354 97.07 89.407 97.243 89.514 97.343 C 89.621 97.443 89.807 97.493 90.074 97.493 C 90.201 97.493 90.321 97.487 90.434 97.473 C 90.547 97.453 90.671 97.42 90.804 97.373 L 90.804 98.493 C 90.657 98.54 90.481 98.577 90.274 98.603 C 90.067 98.637 89.891 98.653 89.744 98.653 C 89.164 98.653 88.724 98.523 88.424 98.263 C 88.131 97.997 87.984 97.61 87.984 97.103 Z M 91.17 97.953 L 91.85 97.043 C 92.157 97.243 92.447 97.393 92.72 97.493 C 92.993 97.587 93.267 97.633 93.54 97.633 C 93.847 97.633 94.09 97.583 94.27 97.483 C 94.457 97.383 94.55 97.25 94.55 97.083 C 94.55 96.95 94.497 96.843 94.39 96.763 C 94.29 96.683 94.127 96.627 93.9 96.593 L 92.9 96.443 C 92.387 96.363 91.993 96.197 91.72 95.943 C 91.453 95.69 91.32 95.353 91.32 94.933 C 91.32 94.433 91.517 94.033 91.91 93.733 C 92.303 93.433 92.83 93.283 93.49 93.283 C 93.87 93.283 94.24 93.34 94.6 93.453 C 94.96 93.56 95.303 93.72 95.63 93.933 L 94.97 94.813 C 94.683 94.647 94.41 94.523 94.15 94.443 C 93.89 94.357 93.627 94.313 93.36 94.313 C 93.113 94.313 92.913 94.36 92.76 94.453 C 92.613 94.547 92.54 94.67 92.54 94.823 C 92.54 94.963 92.593 95.073 92.7 95.153 C 92.813 95.227 92.997 95.28 93.25 95.313 L 94.25 95.463 C 94.757 95.537 95.147 95.703 95.42 95.963 C 95.7 96.223 95.84 96.553 95.84 96.953 C 95.84 97.2 95.78 97.43 95.66 97.643 C 95.547 97.85 95.39 98.03 95.19 98.183 C 94.99 98.337 94.75 98.457 94.47 98.543 C 94.19 98.63 93.887 98.673 93.56 98.673 C 93.087 98.673 92.643 98.613 92.23 98.493 C 91.817 98.367 91.463 98.187 91.17 97.953 Z" fill="#0B132A"/>
    <defs>
        <linearGradient id="linearColors2" gradientTransform="rotate(25)" x1="0" y1="0" x2="1" y2="0">
            <stop stop-color="#FDD547"/>
            <stop offset="0.2" stop-color="#FDD547"/>
            <stop offset="1" stop-color="#F7F7F7"/>
        </linearGradient>
    </defs>
</svg>