<svg fill="none" height="153" viewBox="0 0 152 153" width="152"
     xmlns="http://www.w3.org/2000/svg">
    <path d="M71.1457 78.6235L61.9835 70.7977C61.6042 70.4738 61.0443 70.4788 60.6709 70.8095L55.3615 75.5125C54.9232 75.9008 54.9107 76.5809 55.3346 76.9849L71.1455 92.0555C71.5421 92.4336 72.1691 92.4221 72.5515 92.0297L96.7661 67.1901C97.1486 66.7977 97.1441 66.1706 96.7559 65.7838L91.4011 60.4477C91.0055 60.0534 90.3635 60.0597 89.9757 60.4617L72.5148 78.5575C72.1476 78.938 71.5477 78.9669 71.1457 78.6235Z"
          fill="#95C480"/>
    <circle cx="76.0013" cy="76.2341" r="50.9622" stroke="#F7F7F7" stroke-width="7"/>
    <circle cx="76.0016" cy="76.2341" r="61.6896" stroke="#F7F7F7" stroke-width="7"/>
    <circle cx="76.0015" cy="76.2341" r="72.417" stroke="#F7F7F7" stroke-width="7"/>
</svg>