<svg width="512" height="512" xmlns="http://www.w3.org/2000/svg">

 <title/>
 <g>
  <title>background</title>
  <rect fill="none" id="canvas_background" height="402" width="582" y="-1" x="-1"/>
 </g>
 <g>
  <title>Layer 1</title>
  <circle fill="#c2c4c9" id="svg_1" r="207.77" cy="252.35" cx="256" class="cls-1"/>
  <circle fill="#ffffff" id="svg_2" r="194.41" cy="252.35" cx="256" class="cls-2"/>
  <path fill="#c2c4c9" id="svg_3" d="m368.17,185.44c0.64,3.46 -22.09,22.65 -22.09,22.65c-42.79,222.42 -193.57,110.57 -193.57,110.57c36.35,5.19 65.5,-18.14 65.5,-18.14c-37.92,-4.39 -41.35,-30.39 -41.35,-30.39c7.62,3.32 20,-0.75 20,-0.75c-40.29,-15.62 -35.5,-42.93 -35.5,-42.93c7.06,4.05 20,4.94 20,4.94c-32.72,-22.9 -13.69,-58.46 -13.69,-58.46c30.12,37.95 75.33,44.44 87.87,45.53a43.11,43.11 0 0 1 -1.17,-10.11c0,-24.81 20.32,-44.94 45.39,-44.94a45.52,45.52 0 0 1 33.75,14.87l0.76,0.46l28.09,-10.61c-1.24,10.84 -18.34,23.4 -19.42,24.2c1.32,-0.54 24.81,-10.26 25.43,-6.89z" class="cls-3"/>
 </g>
</svg>