<svg width="14" height="14" viewBox="0 0 14 14" fill="none" xmlns="http://www.w3.org/2000/svg">
    <path fill-rule="evenodd" clip-rule="evenodd" d="M1.4403 4.06524C1.48094 4.0245 1.52922 3.99217 1.58237 3.97011C1.63552 3.94806 1.6925 3.93671 1.75005 3.93671C1.8076 3.93671 1.86458 3.94806 1.91773 3.97011C1.97088 3.99217 2.01916 4.0245 2.0598 4.06524L7.00005 9.00636L11.9403 4.06524C11.981 4.02456 12.0293 3.99229 12.0824 3.97028C12.1356 3.94827 12.1925 3.93694 12.25 3.93694C12.3076 3.93694 12.3645 3.94827 12.4177 3.97028C12.4708 3.99229 12.5191 4.02456 12.5598 4.06524C12.6005 4.10592 12.6327 4.15421 12.6548 4.20735C12.6768 4.2605 12.6881 4.31746 12.6881 4.37499C12.6881 4.43251 12.6768 4.48948 12.6548 4.54262C12.6327 4.59577 12.6005 4.64406 12.5598 4.68474L7.3098 9.93474C7.26916 9.97548 7.22088 10.0078 7.16773 10.0299C7.11458 10.0519 7.0576 10.0633 7.00005 10.0633C6.9425 10.0633 6.88552 10.0519 6.83237 10.0299C6.77922 10.0078 6.73094 9.97548 6.6903 9.93474L1.4403 4.68474C1.39956 4.6441 1.36723 4.59582 1.34518 4.54267C1.32312 4.48952 1.31177 4.43253 1.31177 4.37499C1.31177 4.31744 1.32312 4.26046 1.34518 4.20731C1.36723 4.15416 1.39956 4.10588 1.4403 4.06524Z" fill="#8C8D8E"/>
</svg>
