<svg width="207" height="81" viewBox="0 0 207 81" fill="none" xmlns="http://www.w3.org/2000/svg">
<path d="M25.0257 30.375C27.8004 30.375 30.0497 28.1084 30.0497 25.3125C30.0497 22.5166 27.8004 20.25 25.0257 20.25C22.251 20.25 20.0017 22.5166 20.0017 25.3125C20.0017 28.1084 22.251 30.375 25.0257 30.375Z" fill="#4FBA51"/>
<path d="M25.0255 60.75C27.8001 60.75 30.0495 58.4834 30.0495 55.6875C30.0495 52.8916 27.8001 50.625 25.0255 50.625C22.2508 50.625 20.0015 52.8916 20.0015 55.6875C20.0015 58.4834 22.2508 60.75 25.0255 60.75Z" fill="#4FBA51"/>
<path d="M38.2135 53.1562C40.9881 53.1562 43.2375 50.8897 43.2375 48.0938C43.2375 45.2978 40.9881 43.0312 38.2135 43.0312C35.4388 43.0312 33.1895 45.2978 33.1895 48.0938C33.1895 50.8897 35.4388 53.1562 38.2135 53.1562Z" fill="#4FBA51"/>
<path d="M51.4014 45.5625C54.1761 45.5625 56.4254 43.2959 56.4254 40.5C56.4254 37.7041 54.1761 35.4375 51.4014 35.4375C48.6268 35.4375 46.3774 37.7041 46.3774 40.5C46.3774 43.2959 48.6268 45.5625 51.4014 45.5625Z" fill="#4FBA51"/>
<path d="M36.0504 28.3359C34.5711 29.0531 33.6082 30.3609 33.3011 31.8375C33.0081 33.2015 32.1847 34.3969 30.9845 35.1L30.5938 35.325C29.3796 36.0281 27.9283 36.1406 26.5885 35.7047C25.1651 35.2406 23.5462 35.4094 22.1925 36.3375C20.1411 37.7437 19.4154 40.4859 20.5039 42.7359C21.8018 45.4078 25.0255 46.364 27.5375 44.9015C28.8214 44.1562 29.6587 42.9187 29.9379 41.5687C30.2309 40.1765 31.0543 38.9672 32.2684 38.25L32.5615 38.0812C33.7896 37.364 35.2689 37.2656 36.6086 37.7156C37.9344 38.1656 39.4276 38.0531 40.7255 37.3078C43.2375 35.8453 44.019 32.5406 42.3723 30.0797C40.9907 28.0125 38.2833 27.2531 36.0504 28.3359Z" fill="#4FBA51"/>
<path d="M77.3031 44.9859H70.4649L69.1112 48.1781H66.4875L72.6419 34.3969H75.14L81.3083 48.1781H78.6568L77.3031 44.9859ZM76.4658 42.975L73.884 36.9562L71.3301 42.975H76.4658Z" fill="#1D1D1B"/>
<path d="M82.8296 33.5672H85.2718V48.1641H82.8296V33.5672Z" fill="#1D1D1B"/>
<path d="M98.2363 37.6594L93.7705 48.1641H91.2446L86.7788 37.6594H89.3187L92.5564 45.45L95.8918 37.6594H98.2363Z" fill="#1D1D1B"/>
<path d="M106.945 38.6578C107.754 39.4031 108.159 40.5141 108.159 42.0187V48.1781H105.856V46.8984C105.563 47.3625 105.131 47.7141 104.572 47.9531C104.014 48.1922 103.358 48.3188 102.577 48.3188C101.795 48.3188 101.111 48.1781 100.525 47.9109C99.9391 47.6438 99.4925 47.2641 99.1715 46.7859C98.8505 46.3078 98.697 45.7594 98.697 45.1688C98.697 44.2266 99.0459 43.4672 99.7437 42.8906C100.441 42.3141 101.544 42.0328 103.037 42.0328H105.731V41.8781C105.731 41.1469 105.507 40.5844 105.075 40.1906C104.642 39.7969 103.986 39.6 103.135 39.6C102.549 39.6 101.977 39.6984 101.404 39.8812C100.832 40.0641 100.358 40.3172 99.967 40.6547L99.004 38.8687C99.5483 38.4469 100.204 38.1234 100.972 37.8984C101.739 37.6734 102.549 37.5609 103.414 37.5609C104.949 37.5469 106.121 37.9125 106.945 38.6578ZM104.712 46.0969C105.186 45.8156 105.521 45.4078 105.717 44.8875V43.6641H103.191C101.781 43.6641 101.083 44.1281 101.083 45.0562C101.083 45.5062 101.265 45.8578 101.614 46.125C101.963 46.3922 102.451 46.5187 103.079 46.5187C103.693 46.5187 104.237 46.3781 104.712 46.0969Z" fill="#1D1D1B"/>
<path d="M111.285 33.5672H113.727V48.1641H111.285V33.5672Z" fill="#1D1D1B"/>
<path d="M127.152 33.5672V48.1641H124.808V46.8C124.403 47.2922 123.901 47.6719 123.314 47.925C122.728 48.1781 122.072 48.3047 121.347 48.3047C120.342 48.3047 119.449 48.0797 118.639 47.6297C117.844 47.1797 117.216 46.5469 116.755 45.7313C116.295 44.9156 116.072 43.9735 116.072 42.9047C116.072 41.836 116.295 40.9078 116.755 40.0922C117.216 39.2766 117.844 38.6438 118.639 38.2078C119.435 37.7578 120.342 37.5328 121.347 37.5328C122.031 37.5328 122.673 37.6453 123.245 37.8844C123.817 38.1234 124.305 38.475 124.71 38.9531V33.5672H127.152ZM123.217 45.8016C123.691 45.5344 124.054 45.1547 124.333 44.6484C124.612 44.1563 124.738 43.5797 124.738 42.9188C124.738 42.2578 124.598 41.6813 124.333 41.1891C124.054 40.6969 123.691 40.3031 123.217 40.036C122.742 39.7688 122.226 39.6281 121.64 39.6281C121.054 39.6281 120.523 39.7688 120.063 40.036C119.588 40.3031 119.225 40.6828 118.946 41.1891C118.667 41.6813 118.542 42.2719 118.542 42.9188C118.542 43.5797 118.681 44.1563 118.946 44.6484C119.225 45.1406 119.588 45.5344 120.063 45.8016C120.537 46.0688 121.054 46.2094 121.64 46.2094C122.226 46.1953 122.756 46.0688 123.217 45.8016Z" fill="#1D1D1B"/>
<path d="M130.46 35.5078C130.167 35.2266 130.013 34.875 130.013 34.4531C130.013 34.0312 130.167 33.6797 130.46 33.3984C130.753 33.1172 131.13 32.9766 131.576 32.9766C132.023 32.9766 132.386 33.1172 132.693 33.3844C132.986 33.6516 133.139 33.9891 133.139 34.3969C133.139 34.8328 133 35.1984 132.707 35.4937C132.414 35.7891 132.037 35.9297 131.59 35.9297C131.144 35.9297 130.767 35.7891 130.46 35.5078ZM130.348 37.6594H132.79V48.1641H130.348V37.6594Z" fill="#1D1D1B"/>
<path d="M143.28 48V34H148.98C150.473 34 151.78 34.3 152.9 34.9C154.033 35.4867 154.913 36.3067 155.54 37.36C156.167 38.4133 156.48 39.6267 156.48 41C156.48 42.3733 156.167 43.5867 155.54 44.64C154.913 45.6933 154.033 46.52 152.9 47.12C151.78 47.7067 150.473 48 148.98 48H143.28ZM144.76 46.72H148.9C150.14 46.72 151.213 46.48 152.12 46C153.04 45.5067 153.753 44.8333 154.26 43.98C154.767 43.1133 155.02 42.12 155.02 41C155.02 39.8667 154.767 38.8733 154.26 38.02C153.753 37.1667 153.04 36.5 152.12 36.02C151.213 35.5267 150.14 35.28 148.9 35.28H144.76V46.72ZM163.783 48.1C162.77 48.1 161.857 47.8733 161.043 47.42C160.243 46.9533 159.61 46.32 159.143 45.52C158.677 44.7067 158.443 43.78 158.443 42.74C158.443 41.6867 158.677 40.76 159.143 39.96C159.61 39.16 160.243 38.5333 161.043 38.08C161.843 37.6267 162.757 37.4 163.783 37.4C164.823 37.4 165.743 37.6267 166.543 38.08C167.357 38.5333 167.99 39.16 168.443 39.96C168.91 40.76 169.143 41.6867 169.143 42.74C169.143 43.78 168.91 44.7067 168.443 45.52C167.99 46.32 167.357 46.9533 166.543 47.42C165.73 47.8733 164.81 48.1 163.783 48.1ZM163.783 46.84C164.543 46.84 165.217 46.6733 165.803 46.34C166.39 45.9933 166.85 45.5133 167.183 44.9C167.53 44.2733 167.703 43.5533 167.703 42.74C167.703 41.9133 167.53 41.1933 167.183 40.58C166.85 39.9667 166.39 39.4933 165.803 39.16C165.217 38.8133 164.55 38.64 163.803 38.64C163.057 38.64 162.39 38.8133 161.803 39.16C161.217 39.4933 160.75 39.9667 160.403 40.58C160.057 41.1933 159.883 41.9133 159.883 42.74C159.883 43.5533 160.057 44.2733 160.403 44.9C160.75 45.5133 161.217 45.9933 161.803 46.34C162.39 46.6733 163.05 46.84 163.783 46.84ZM176.403 48.1C175.363 48.1 174.429 47.8733 173.603 47.42C172.789 46.9533 172.149 46.32 171.683 45.52C171.216 44.7067 170.983 43.78 170.983 42.74C170.983 41.6867 171.216 40.76 171.683 39.96C172.149 39.16 172.789 38.5333 173.603 38.08C174.429 37.6267 175.363 37.4 176.403 37.4C177.296 37.4 178.103 37.5733 178.823 37.92C179.543 38.2667 180.109 38.7867 180.523 39.48L179.463 40.2C179.103 39.6667 178.656 39.2733 178.123 39.02C177.589 38.7667 177.009 38.64 176.383 38.64C175.636 38.64 174.963 38.8133 174.363 39.16C173.763 39.4933 173.289 39.9667 172.943 40.58C172.596 41.1933 172.423 41.9133 172.423 42.74C172.423 43.5667 172.596 44.2867 172.943 44.9C173.289 45.5133 173.763 45.9933 174.363 46.34C174.963 46.6733 175.636 46.84 176.383 46.84C177.009 46.84 177.589 46.7133 178.123 46.46C178.656 46.2067 179.103 45.82 179.463 45.3L180.523 46.02C180.109 46.7 179.543 47.22 178.823 47.58C178.103 47.9267 177.296 48.1 176.403 48.1ZM186.132 48.1C185.265 48.1 184.445 47.98 183.672 47.74C182.899 47.4867 182.292 47.1733 181.852 46.8L182.492 45.68C182.919 46 183.465 46.28 184.132 46.52C184.799 46.7467 185.499 46.86 186.232 46.86C187.232 46.86 187.952 46.7067 188.392 46.4C188.832 46.08 189.052 45.66 189.052 45.14C189.052 44.7533 188.925 44.4533 188.672 44.24C188.432 44.0133 188.112 43.8467 187.712 43.74C187.312 43.62 186.865 43.52 186.372 43.44C185.879 43.36 185.385 43.2667 184.892 43.16C184.412 43.0533 183.972 42.9 183.572 42.7C183.172 42.4867 182.845 42.2 182.592 41.84C182.352 41.48 182.232 41 182.232 40.4C182.232 39.8267 182.392 39.3133 182.712 38.86C183.032 38.4067 183.499 38.0533 184.112 37.8C184.739 37.5333 185.499 37.4 186.392 37.4C187.072 37.4 187.752 37.4933 188.432 37.68C189.112 37.8533 189.672 38.0867 190.112 38.38L189.492 39.52C189.025 39.2 188.525 38.9733 187.992 38.84C187.459 38.6933 186.925 38.62 186.392 38.62C185.445 38.62 184.745 38.7867 184.292 39.12C183.852 39.44 183.632 39.8533 183.632 40.36C183.632 40.76 183.752 41.0733 183.992 41.3C184.245 41.5267 184.572 41.7067 184.972 41.84C185.385 41.96 185.832 42.06 186.312 42.14C186.805 42.22 187.292 42.32 187.772 42.44C188.265 42.5467 188.712 42.7 189.112 42.9C189.525 43.0867 189.852 43.36 190.092 43.72C190.345 44.0667 190.472 44.5267 190.472 45.1C190.472 45.7133 190.299 46.2467 189.952 46.7C189.619 47.14 189.125 47.4867 188.472 47.74C187.832 47.98 187.052 48.1 186.132 48.1Z" fill="#1D1D1B"/>
</svg>
