<?xml version="1.0" encoding="utf-8"?>
<!-- Generator: Adobe Illustrator 24.1.0, SVG Export Plug-In . SVG Version: 6.00 Build 0)  -->
<svg version="1.1" xmlns="http://www.w3.org/2000/svg" xmlns:xlink="http://www.w3.org/1999/xlink" x="0px" y="0px"
	 viewBox="0 0 1125 576" style="enable-background:new 0 0 1125 576;" xml:space="preserve">
<style type="text/css">
	.st0{fill:#1D1E1C;}
	.st1{fill:#F3F3F3;}
	.st2{fill:#F4F8F1;}
	.st3{fill:none;stroke:#57B153;stroke-miterlimit:10;}
	.st4{opacity:0.5;}
	.st5{fill:none;stroke:#1D1E1C;stroke-width:0.5;stroke-miterlimit:10;}
	.st6{fill:#FFFFFF;}
	.st7{fill:#1D1D1B;}
	.st8{fill:#4FBA51;}
</style>
<g id="Warstwa_3">
	<g>
		<circle class="st8" cx="180" cy="180" r="36"/>
		<circle class="st8" cx="180" cy="396" r="36"/>
		<circle class="st8" cx="274.5" cy="342" r="36"/>
		<circle class="st8" cx="369" cy="288" r="36"/>
		<path class="st8" d="M259,201.5c-10.6,5.1-17.5,14.4-19.7,24.9c-2.1,9.7-8,18.2-16.6,23.2l-2.8,1.6c-8.7,5-19.1,5.8-28.7,2.7
			c-10.2-3.3-21.8-2.1-31.5,4.5c-14.7,10-19.9,29.5-12.1,45.5c9.3,19,32.4,25.8,50.4,15.4c9.2-5.3,15.2-14.1,17.2-23.7
			c2.1-9.9,8-18.5,16.7-23.6l2.1-1.2c8.8-5.1,19.4-5.8,29-2.6c9.5,3.2,20.2,2.4,29.5-2.9c18-10.4,23.6-33.9,11.8-51.4
			C294.4,199.2,275,193.8,259,201.5z"/>
	</g>
	<g>
		<path class="st6" d="M554.6,319.9h-49l-9.7,22.7h-18.8l44.1-98h17.9l44.2,98h-19L554.6,319.9z M548.6,305.6l-18.5-42.8l-18.3,42.8
			H548.6z"/>
		<path class="st6" d="M594.2,238.7h17.5v103.8h-17.5V238.7z"/>
		<path class="st6" d="M704.6,267.8l-32,74.7h-18.1l-32-74.7h18.2l23.2,55.4l23.9-55.4H704.6z"/>
		<path class="st6" d="M767,274.9c5.8,5.3,8.7,13.2,8.7,23.9v43.8h-16.5v-9.1c-2.1,3.3-5.2,5.8-9.2,7.5c-4,1.7-8.7,2.6-14.3,2.6
			s-10.5-1-14.7-2.9c-4.2-1.9-7.4-4.6-9.7-8c-2.3-3.4-3.4-7.3-3.4-11.5c0-6.7,2.5-12.1,7.5-16.2c5-4.1,12.9-6.1,23.6-6.1h19.3v-1.1
			c0-5.2-1.6-9.2-4.7-12c-3.1-2.8-7.8-4.2-13.9-4.2c-4.2,0-8.3,0.7-12.4,2c-4.1,1.3-7.5,3.1-10.3,5.5l-6.9-12.7
			c3.9-3,8.6-5.3,14.1-6.9c5.5-1.6,11.3-2.4,17.5-2.4C752.7,267,761.1,269.6,767,274.9z M751,327.8c3.4-2,5.8-4.9,7.2-8.6v-8.7
			h-18.1c-10.1,0-15.1,3.3-15.1,9.9c0,3.2,1.3,5.7,3.8,7.6c2.5,1.9,6,2.8,10.5,2.8C743.7,330.8,747.6,329.8,751,327.8z"/>
		<path class="st6" d="M798.1,238.7h17.5v103.8h-17.5V238.7z"/>
		<path class="st6" d="M911.8,238.7v103.8H895v-9.7c-2.9,3.5-6.5,6.2-10.7,8c-4.2,1.8-8.9,2.7-14.1,2.7c-7.2,0-13.6-1.6-19.4-4.8
			c-5.7-3.2-10.2-7.7-13.5-13.5c-3.3-5.8-4.9-12.5-4.9-20.1c0-7.6,1.6-14.2,4.9-20c3.3-5.8,7.8-10.3,13.5-13.4
			c5.7-3.2,12.2-4.8,19.4-4.8c4.9,0,9.5,0.8,13.6,2.5c4.1,1.7,7.6,4.2,10.5,7.6v-38.3H911.8z M883.6,325.7c3.4-1.9,6-4.6,8-8.2
			c2-3.5,2.9-7.6,2.9-12.3c0-4.7-1-8.8-2.9-12.3c-2-3.5-4.6-6.3-8-8.2c-3.4-1.9-7.1-2.9-11.3-2.9c-4.2,0-8,1-11.3,2.9
			c-3.4,1.9-6,4.6-8,8.2c-2,3.5-2.9,7.7-2.9,12.3c0,4.7,1,8.8,2.9,12.3c2,3.5,4.6,6.3,8,8.2c3.4,1.9,7.1,2.9,11.3,2.9
			C876.5,328.5,880.3,327.6,883.6,325.7z"/>
		<path class="st6" d="M935.5,252.5c-2.1-2-3.2-4.5-3.2-7.5c0-3,1.1-5.5,3.2-7.5c2.1-2,4.8-3,8-3c3.2,0,5.8,1,8,2.9
			c2.1,1.9,3.2,4.3,3.2,7.2c0,3.1-1,5.7-3.1,7.8c-2.1,2.1-4.8,3.1-8,3.1C940.4,255.5,937.7,254.5,935.5,252.5z M934.7,267.8h17.5
			v74.7h-17.5V267.8z"/>
	</g>
</g>
<g id="Warstwa_1">
</g>
<g id="Warstwa_2">
</g>
</svg>
