<svg width="16" height="16" viewBox="0 0 16 16"
     fill="none" xmlns="http://www.w3.org/2000/svg">
    <path fill-rule="evenodd" clip-rule="evenodd"
          d="M16 8C16 10.1217 15.1571 12.1566 13.6569 13.6569C12.1566 15.1571 10.1217 16 8 16C5.87827 16 3.84344 15.1571 2.34315 13.6569C0.842855 12.1566 0 10.1217 0 8C0 5.87827 0.842855 3.84344 2.34315 2.34315C3.84344 0.842855 5.87827 0 8 0C10.1217 0 12.1566 0.842855 13.6569 2.34315C15.1571 3.84344 16 5.87827 16 8ZM7.646 10.646C7.55211 10.7399 7.49937 10.8672 7.49937 11C7.49937 11.1328 7.55211 11.2601 7.646 11.354C7.73989 11.4479 7.86722 11.5006 8 11.5006C8.13278 11.5006 8.26011 11.4479 8.354 11.354L11.354 8.354C11.4006 8.30755 11.4375 8.25238 11.4627 8.19163C11.4879 8.13089 11.5009 8.06577 11.5009 8C11.5009 7.93423 11.4879 7.86911 11.4627 7.80837C11.4375 7.74762 11.4006 7.69245 11.354 7.646L8.354 4.646C8.30751 4.59951 8.25232 4.56264 8.19158 4.53748C8.13084 4.51232 8.06574 4.49937 8 4.49937C7.93426 4.49937 7.86916 4.51232 7.80842 4.53748C7.74768 4.56264 7.69249 4.59951 7.646 4.646C7.59951 4.69249 7.56264 4.74768 7.53748 4.80842C7.51232 4.86916 7.49937 4.93426 7.49937 5C7.49937 5.06574 7.51232 5.13084 7.53748 5.19158C7.56264 5.25232 7.59951 5.30751 7.646 5.354L9.793 7.5H5C4.86739 7.5 4.74021 7.55268 4.64645 7.64645C4.55268 7.74021 4.5 7.86739 4.5 8C4.5 8.13261 4.55268 8.25979 4.64645 8.35355C4.74021 8.44732 4.86739 8.5 5 8.5H9.793L7.646 10.646Z"
          fill="#F5821F"/>
</svg>
