<svg width="133" height="32" viewBox="0 0 133 32" fill="none" xmlns="http://www.w3.org/2000/svg">
<g clip-path="url(#clip0_961_190)">
<path d="M38.8019 20.1391C39.0704 19.5581 39.3876 19.0498 39.8025 18.7352C40.0709 18.5415 40.4858 18.3963 40.9495 18.3963C41.4619 18.3963 41.95 18.5415 42.3405 18.9288C42.7065 19.2919 42.8774 19.7276 42.8774 20.4296C42.8774 21.2283 42.4625 22.6565 41.1203 23.9394C39.8513 25.1739 38.3139 25.7548 35.8979 25.7548C33.6284 25.7548 31.8469 25.0044 30.4559 23.6247C28.4304 21.6156 28.3572 19.3403 28.3572 15.4674C28.3572 11.5945 28.4304 9.31912 30.4559 7.31004C31.8225 5.93031 33.604 5.17993 35.8979 5.17993C38.3383 5.17993 39.8513 5.76087 41.1203 6.99536C42.4625 8.25406 42.8774 9.70641 42.8774 10.5052C42.8774 11.2072 42.7309 11.6429 42.3405 12.006C41.95 12.3932 41.4619 12.5385 40.9495 12.5385C40.4858 12.5385 40.0709 12.3932 39.8025 12.1996C39.412 11.8849 39.0948 11.3766 38.8019 10.7957C38.1675 9.36753 37.1913 8.71397 35.8003 8.71397C34.7509 8.71397 33.97 9.14967 33.3843 9.80323C32.5302 10.7715 32.3838 11.8849 32.3838 15.4916C32.3838 19.0982 32.5302 20.2117 33.3843 21.1799C33.97 21.8335 34.7509 22.2692 35.8003 22.2692C37.1913 22.245 38.143 21.5672 38.8019 20.1391Z" fill="#F5821F"/>
<path d="M54.3713 13.8456C55.2254 13.8456 55.5427 13.8698 55.9332 14.0634C56.4456 14.3297 56.7873 14.9106 56.7873 15.5884C56.7873 16.2904 56.4456 16.8713 55.9332 17.1134C55.5427 17.307 55.2254 17.3312 54.3713 17.3312H48.5877V22.9954C48.5877 23.9152 48.5632 24.2541 48.3192 24.7382C48.0264 25.2949 47.3675 25.6822 46.5865 25.6822C45.8056 25.6822 45.1467 25.2949 44.8539 24.7382C44.6099 24.2541 44.5854 23.9394 44.5854 22.9954V7.76994C44.5854 7.189 44.5854 6.46283 45.1467 5.9061C45.708 5.34937 46.4401 5.34937 47.0258 5.34937H55.7867C56.6409 5.34937 56.9581 5.37357 57.3486 5.56722C57.861 5.83348 58.2027 6.41442 58.2027 7.09218C58.2027 7.76994 57.861 8.37508 57.3486 8.61714C56.9581 8.81079 56.6409 8.83499 55.7867 8.83499H48.6121V13.8214H54.3713V13.8456Z" fill="#F5821F"/>
<path d="M71.8933 5.34937C72.4302 5.34937 72.6254 5.39778 72.8451 5.51881C73.1135 5.68825 73.2599 5.97871 73.2599 6.3176C73.2599 6.65648 73.1135 6.94694 72.8451 7.11638C72.6254 7.23741 72.4546 7.28583 71.8933 7.28583H62.6687V14.4265H70.3315C70.8684 14.4265 71.0636 14.4749 71.2832 14.596C71.5517 14.7654 71.6981 15.0559 71.6981 15.3948C71.6981 15.7336 71.5517 16.0241 71.2832 16.1935C71.0636 16.3146 70.8928 16.363 70.3315 16.363H62.6687V23.6731H71.8933C72.4302 23.6731 72.6254 23.7215 72.8451 23.8426C73.1135 24.012 73.2599 24.3025 73.2599 24.6413C73.2599 24.9802 73.1135 25.2707 72.8451 25.4401C72.6254 25.5612 72.4546 25.6096 71.8933 25.6096H61.7902C61.4486 25.6096 61.0581 25.6096 60.7653 25.3191C60.4724 25.0286 60.4724 24.6413 60.4724 24.3025V6.65648C60.4724 6.3176 60.4724 5.9303 60.7653 5.63983C61.0581 5.34936 61.4486 5.34937 61.7902 5.34937H71.8933Z" fill="white"/>
<path d="M86.3401 24.3267C86.3401 24.835 86.2913 25.0287 86.1449 25.2707C85.9984 25.537 85.6568 25.7064 85.2907 25.7064C84.9247 25.7064 84.583 25.5128 84.4366 25.2707C84.2902 25.0287 84.2414 24.835 84.2414 24.3267V17.0166C84.2414 14.5234 82.948 13.2889 80.776 13.2889C78.6285 13.2889 77.2375 14.5476 77.2375 17.0166V24.3267C77.2375 24.835 77.1887 25.0287 77.0423 25.2707C76.8959 25.537 76.5542 25.7064 76.1882 25.7064C75.8221 25.7064 75.4805 25.5128 75.334 25.2707C75.1876 25.0287 75.1388 24.835 75.1388 24.3267V12.8774C75.1388 12.3691 75.1632 12.1754 75.334 11.9334C75.4805 11.6671 75.7977 11.4977 76.1882 11.4977C76.5786 11.4977 76.8959 11.6913 77.0423 11.9334C77.1887 12.1996 77.2375 12.3933 77.2375 12.8774V13.1437C78.2625 12.0302 79.6291 11.425 81.1909 11.425C82.7283 11.425 83.9729 11.885 84.8515 12.7322C85.852 13.7004 86.3157 15.0317 86.3157 16.6535V24.3267H86.3401Z" fill="white"/>
<path d="M97.639 25.9485V23.7216C96.5165 25.1981 95.1743 25.5854 93.6612 25.5854C92.2214 25.5854 90.9768 25.0771 90.2203 24.3267C88.8049 22.9228 88.4877 20.7685 88.4877 18.4931C88.4877 16.2178 88.8049 14.0635 90.2203 12.6595C90.9768 11.9092 92.2458 11.425 93.6856 11.425C95.2231 11.425 96.4921 11.7639 97.639 13.2405V12.8774C97.639 12.3691 97.6634 12.1754 97.8343 11.9334C97.9807 11.6671 98.2979 11.4977 98.6884 11.4977C99.0789 11.4977 99.3961 11.6913 99.5425 11.9334C99.689 12.1996 99.7378 12.3933 99.7378 12.8774V25.9969C99.7378 29.4583 97.517 31.9999 93.7833 31.9999C92.4411 31.9999 91.5381 31.8063 90.6352 31.3222C90.1227 31.0317 89.1466 30.4024 89.1466 29.7972C89.1466 29.2163 89.6346 28.8532 90.0251 28.8532C90.3179 28.8532 90.562 28.9742 91.0745 29.3857C91.8554 30.0151 92.7339 30.2329 93.7345 30.2329C96.4677 30.2087 97.639 28.3207 97.639 25.9485ZM94.1249 13.2889C91.0501 13.2889 90.5864 15.9031 90.5864 18.5173C90.5864 21.1316 91.0501 23.6974 94.1249 23.6974C97.1998 23.6974 97.6146 21.0831 97.6146 18.4931C97.6146 15.9031 97.1998 13.2889 94.1249 13.2889Z" fill="white"/>
<path d="M103.886 4.93799C104.667 4.93799 105.302 5.56734 105.302 6.34192C105.302 7.11651 104.667 7.74586 103.886 7.74586C103.106 7.74586 102.471 7.11651 102.471 6.34192C102.471 5.56734 103.106 4.93799 103.886 4.93799ZM104.936 24.3268C104.936 24.8351 104.911 25.0288 104.741 25.2708C104.594 25.5371 104.277 25.7065 103.886 25.7065C103.496 25.7065 103.179 25.5129 103.032 25.2708C102.886 25.0046 102.837 24.8109 102.837 24.3268V12.8775C102.837 12.3692 102.862 12.1755 103.032 11.9335C103.179 11.6672 103.496 11.4977 103.886 11.4977C104.277 11.4977 104.594 11.6914 104.741 11.9335C104.887 12.1997 104.936 12.3934 104.936 12.8775V24.3268Z" fill="white"/>
<path d="M119.261 24.3267C119.261 24.835 119.212 25.0287 119.066 25.2707C118.919 25.537 118.577 25.7064 118.211 25.7064C117.845 25.7064 117.504 25.5128 117.357 25.2707C117.211 25.0287 117.162 24.835 117.162 24.3267V17.0166C117.162 14.5234 115.869 13.2889 113.697 13.2889C111.549 13.2889 110.158 14.5476 110.158 17.0166V24.3267C110.158 24.835 110.109 25.0287 109.963 25.2707C109.817 25.537 109.475 25.7064 109.109 25.7064C108.743 25.7064 108.401 25.5128 108.255 25.2707C108.108 25.0287 108.059 24.835 108.059 24.3267V12.8774C108.059 12.3691 108.084 12.1754 108.255 11.9334C108.401 11.6671 108.718 11.4977 109.109 11.4977C109.499 11.4977 109.817 11.6913 109.963 11.9334C110.109 12.1996 110.158 12.3933 110.158 12.8774V13.1437C111.183 12.0302 112.55 11.425 114.112 11.425C115.649 11.425 116.894 11.885 117.772 12.7322C118.773 13.7004 119.236 15.0317 119.236 16.6535V24.3267H119.261Z" fill="white"/>
<path d="M123.458 19.1225C123.458 22.1724 124.922 23.9637 127.656 23.9637C128.754 23.9637 129.828 23.6732 130.682 22.947C131.121 22.5839 131.341 22.4387 131.658 22.4387C132.097 22.4387 132.536 22.8744 132.536 23.3343C132.536 23.9637 131.633 24.593 131.072 24.9319C130.218 25.4402 128.998 25.7307 127.558 25.7307C123.824 25.7307 121.384 23.5038 121.384 18.5658C121.384 13.9425 123.653 11.4009 127.216 11.4009C130.804 11.4009 132.976 13.9909 133 17.888C133 18.1785 132.976 18.5658 132.707 18.832C132.439 19.0983 132.122 19.0983 131.78 19.0983H123.458V19.1225ZM130.926 17.5491C130.877 16.5567 130.804 16.0484 130.486 15.2738C129.95 13.9909 128.729 13.1921 127.192 13.1921C125.655 13.1921 124.41 14.0151 123.897 15.2738C123.58 16.0484 123.507 16.5567 123.458 17.5491H130.926Z" fill="white"/>
<path d="M7.07691 0C7.85783 0 8.49232 0.629349 8.49232 1.40393C8.49232 2.17852 7.85783 2.80787 7.07691 2.80787C6.29599 2.80787 5.6615 2.17852 5.6615 1.40393C5.6615 0.629349 6.29599 0 7.07691 0Z" fill="#F5821F"/>
<path d="M9.90785 0C10.6888 0 11.3233 0.629349 11.3233 1.40393C11.3233 2.17852 10.6888 2.80787 9.90785 2.80787C9.12693 2.80787 8.49243 2.17852 8.49243 1.40393C8.49243 0.629349 9.12693 0 9.90785 0Z" fill="#F5821F"/>
<path d="M12.7633 0C13.5442 0 14.1787 0.629349 14.1787 1.40393C14.1787 2.17852 13.5442 2.80787 12.7633 2.80787C11.9823 2.80787 11.3478 2.17852 11.3478 1.40393C11.3234 0.629349 11.9579 0 12.7633 0Z" fill="#F5821F"/>
<path d="M7.07691 2.80786C7.85783 2.80786 8.49232 3.43721 8.49232 4.21179C8.49232 4.98638 7.85783 5.61573 7.07691 5.61573C6.29599 5.61573 5.6615 4.98638 5.6615 4.21179C5.6615 3.43721 6.29599 2.80786 7.07691 2.80786Z" fill="#F5821F"/>
<path d="M9.90785 2.80786C10.6888 2.80786 11.3233 3.43721 11.3233 4.21179C11.3233 4.98638 10.6888 5.61573 9.90785 5.61573C9.12693 5.61573 8.49243 4.98638 8.49243 4.21179C8.49243 3.43721 9.12693 2.80786 9.90785 2.80786Z" fill="#F5821F"/>
<path d="M12.7633 2.80786C13.5442 2.80786 14.1787 3.43721 14.1787 4.21179C14.1787 4.98638 13.5442 5.61573 12.7633 5.61573C11.9823 5.61573 11.3478 4.98638 11.3478 4.21179C11.3234 3.43721 11.9579 2.80786 12.7633 2.80786Z" fill="#F5821F"/>
<path d="M7.07691 8.42358C7.85783 8.42358 8.49232 9.05293 8.49232 9.82752C8.49232 10.6021 7.85783 11.2315 7.07691 11.2315C6.29599 11.2315 5.6615 10.6021 5.6615 9.82752C5.6615 9.05293 6.29599 8.42358 7.07691 8.42358Z" fill="white"/>
<path d="M9.90785 8.42358C10.6888 8.42358 11.3233 9.05293 11.3233 9.82752C11.3233 10.6021 10.6888 11.2315 9.90785 11.2315C9.12693 11.2315 8.49243 10.6021 8.49243 9.82752C8.49243 9.05293 9.12693 8.42358 9.90785 8.42358Z" fill="white"/>
<path d="M12.7633 8.42358C13.5442 8.42358 14.1787 9.05293 14.1787 9.82752C14.1787 10.6021 13.5442 11.2315 12.7633 11.2315C11.9823 11.2315 11.3478 10.6021 11.3478 9.82752C11.3234 9.05293 11.9579 8.42358 12.7633 8.42358Z" fill="white"/>
<path d="M7.07691 11.2314C7.85783 11.2314 8.49232 11.8608 8.49232 12.6354C8.49232 13.41 7.85783 14.0393 7.07691 14.0393C6.29599 14.0393 5.6615 13.41 5.6615 12.6354C5.6615 11.8608 6.29599 11.2314 7.07691 11.2314Z" fill="white"/>
<path d="M9.90785 11.2314C10.6888 11.2314 11.3233 11.8608 11.3233 12.6354C11.3233 13.41 10.6888 14.0393 9.90785 14.0393C9.12693 14.0393 8.49243 13.41 8.49243 12.6354C8.49243 11.8608 9.12693 11.2314 9.90785 11.2314Z" fill="white"/>
<path d="M12.7633 11.2314C13.5442 11.2314 14.1787 11.8608 14.1787 12.6354C14.1787 13.41 13.5442 14.0393 12.7633 14.0393C11.9823 14.0393 11.3478 13.41 11.3478 12.6354C11.3234 11.8608 11.9579 11.2314 12.7633 11.2314Z" fill="white"/>
<path d="M7.07691 14.0635C7.85783 14.0635 8.49232 14.6928 8.49232 15.4674C8.49232 16.242 7.85783 16.8713 7.07691 16.8713C6.29599 16.8713 5.6615 16.242 5.6615 15.4674C5.6615 14.6928 6.29599 14.0635 7.07691 14.0635Z" fill="white"/>
<path d="M9.90785 14.0635C10.6888 14.0635 11.3233 14.6928 11.3233 15.4674C11.3233 16.242 10.6888 16.8713 9.90785 16.8713C9.12693 16.8713 8.49243 16.242 8.49243 15.4674C8.49243 14.6928 9.12693 14.0635 9.90785 14.0635Z" fill="white"/>
<path d="M12.7633 14.0635C13.5442 14.0635 14.1787 14.6928 14.1787 15.4674C14.1787 16.242 13.5442 16.8713 12.7633 16.8713C11.9823 16.8713 11.3478 16.242 11.3478 15.4674C11.3234 14.6928 11.9579 14.0635 12.7633 14.0635Z" fill="white"/>
<path d="M1.41541 8.42358C2.19633 8.42358 2.83083 9.05293 2.83083 9.82752C2.83083 10.6021 2.19633 11.2315 1.41541 11.2315C0.634495 11.2315 0 10.6021 0 9.82752C0 9.05293 0.634495 8.42358 1.41541 8.42358Z" fill="white"/>
<path d="M1.41541 11.2314C2.19633 11.2314 2.83083 11.8608 2.83083 12.6354C2.83083 13.41 2.19633 14.0393 1.41541 14.0393C0.634495 14.0393 0 13.41 0 12.6354C0 11.8608 0.634495 11.2314 1.41541 11.2314Z" fill="white"/>
<path d="M1.41541 14.0636C2.19633 14.0636 2.83083 14.6929 2.83083 15.4675C2.83083 16.2421 2.19633 16.8715 1.41541 16.8715C0.634495 16.8715 0 16.2421 0 15.4675C0 14.6929 0.634495 14.0636 1.41541 14.0636Z" fill="white"/>
<path d="M1.41541 16.8715C2.19633 16.8715 2.83083 17.5008 2.83083 18.2754C2.83083 19.05 2.19633 19.6793 1.41541 19.6793C0.634495 19.6793 0 19.05 0 18.2754C0 17.5008 0.634495 16.8715 1.41541 16.8715Z" fill="white"/>
<path d="M18.4246 8.42358C19.2055 8.42358 19.84 9.05293 19.84 9.82752C19.84 10.6021 19.2055 11.2315 18.4246 11.2315C17.6437 11.2315 17.0092 10.6021 17.0092 9.82752C17.0092 9.05293 17.6437 8.42358 18.4246 8.42358Z" fill="white"/>
<path d="M18.4246 11.2314C19.2055 11.2314 19.84 11.8608 19.84 12.6354C19.84 13.41 19.2055 14.0393 18.4246 14.0393C17.6437 14.0393 17.0092 13.41 17.0092 12.6354C17.0092 11.8608 17.6437 11.2314 18.4246 11.2314Z" fill="white"/>
<path d="M18.4246 14.0635C19.2055 14.0635 19.84 14.6928 19.84 15.4674C19.84 16.242 19.2055 16.8713 18.4246 16.8713C17.6437 16.8713 17.0092 16.242 17.0092 15.4674C17.0092 14.6928 17.6437 14.0635 18.4246 14.0635Z" fill="white"/>
<path d="M18.4246 16.8713C19.2055 16.8713 19.84 17.5007 19.84 18.2753C19.84 19.0499 19.2055 19.6792 18.4246 19.6792C17.6437 19.6792 17.0092 19.0499 17.0092 18.2753C17.0092 17.5007 17.6437 16.8713 18.4246 16.8713Z" fill="white"/>
<path d="M7.07691 19.6792C7.85783 19.6792 8.49232 20.3085 8.49232 21.0831C8.49232 21.8577 7.85783 22.4871 7.07691 22.4871C6.29599 22.4871 5.6615 21.8577 5.6615 21.0831C5.6615 20.3085 6.29599 19.6792 7.07691 19.6792Z" fill="white"/>
<path d="M7.07691 22.4871C7.85783 22.4871 8.49232 23.1164 8.49232 23.891C8.49232 24.6656 7.85783 25.2949 7.07691 25.2949C6.29599 25.2949 5.6615 24.6656 5.6615 23.891C5.6615 23.1164 6.29599 22.4871 7.07691 22.4871Z" fill="white"/>
<path d="M7.07691 25.2949C7.85783 25.2949 8.49232 25.9243 8.49232 26.6989C8.49232 27.4734 7.85783 28.1028 7.07691 28.1028C6.29599 28.1028 5.6615 27.4734 5.6615 26.6989C5.6615 25.9243 6.29599 25.2949 7.07691 25.2949Z" fill="white"/>
<path d="M7.07691 28.1028C7.85783 28.1028 8.49232 28.7321 8.49232 29.5067C8.49232 30.2813 7.85783 30.9107 7.07691 30.9107C6.29599 30.9107 5.6615 30.2813 5.6615 29.5067C5.6615 28.7321 6.29599 28.1028 7.07691 28.1028Z" fill="white"/>
<path d="M12.7633 19.6792C13.5442 19.6792 14.1787 20.3085 14.1787 21.0831C14.1787 21.8577 13.5442 22.4871 12.7633 22.4871C11.9823 22.4871 11.3478 21.8577 11.3478 21.0831C11.3234 20.3085 11.9579 19.6792 12.7633 19.6792Z" fill="white"/>
<path d="M12.7633 22.4871C13.5442 22.4871 14.1787 23.1164 14.1787 23.891C14.1787 24.6656 13.5442 25.2949 12.7633 25.2949C11.9823 25.2949 11.3478 24.6656 11.3478 23.891C11.3234 23.1164 11.9579 22.4871 12.7633 22.4871Z" fill="white"/>
<path d="M12.7633 25.2949C13.5442 25.2949 14.1787 25.9243 14.1787 26.6989C14.1787 27.4734 13.5442 28.1028 12.7633 28.1028C11.9823 28.1028 11.3478 27.4734 11.3478 26.6989C11.3234 25.9243 11.9579 25.2949 12.7633 25.2949Z" fill="white"/>
<path d="M12.7633 28.1028C13.5442 28.1028 14.1787 28.7321 14.1787 29.5067C14.1787 30.2813 13.5442 30.9107 12.7633 30.9107C11.9823 30.9107 11.3478 30.2813 11.3478 29.5067C11.3234 28.7321 11.9579 28.1028 12.7633 28.1028Z" fill="white"/>
<path d="M9.90785 19.6792C10.6888 19.6792 11.3233 20.3085 11.3233 21.0831C11.3233 21.8577 10.6888 22.4871 9.90785 22.4871C9.12693 22.4871 8.49243 21.8577 8.49243 21.0831C8.49243 20.3085 9.12693 19.6792 9.90785 19.6792Z" fill="white"/>
</g>
<defs>
<clipPath id="clip0_961_190">
<rect width="133" height="32" fill="white"/>
</clipPath>
</defs>
</svg>
