<svg width="133" height="32"  fill="none" xmlns="http://www.w3.org/2000/svg">
    <g clip-path="url(#clip0)">
        <path d="M38.8017 20.1392C39.0701 19.5582 39.3874 19.0499 39.8023 18.7352C40.0707 18.5416 40.4856 18.3964 40.9492 18.3964C41.4617 18.3964 41.9498 18.5416 42.3402 18.9289C42.7063 19.292 42.8771 19.7277 42.8771 20.4296C42.8771 21.2284 42.4623 22.6566 41.1201 23.9395C39.8511 25.174 38.3136 25.7549 35.8977 25.7549C33.6281 25.7549 31.8467 25.0045 30.4557 23.6248C28.4301 21.6157 28.3569 19.3404 28.3569 15.4675C28.3569 11.5945 28.4301 9.31921 30.4557 7.31013C31.8223 5.9304 33.6037 5.18002 35.8977 5.18002C38.338 5.18002 39.8511 5.76096 41.1201 6.99545C42.4623 8.25415 42.8771 9.7065 42.8771 10.5053C42.8771 11.2073 42.7307 11.643 42.3402 12.006C41.9498 12.3933 41.4617 12.5386 40.9492 12.5386C40.4856 12.5386 40.0707 12.3933 39.8023 12.1997C39.4118 11.885 39.0945 11.3767 38.8017 10.7958C38.1672 9.36762 37.1911 8.71406 35.8001 8.71406C34.7507 8.71406 33.9698 9.14977 33.3841 9.80332C32.53 10.7716 32.3835 11.885 32.3835 15.4917C32.3835 19.0983 32.53 20.2118 33.3841 21.18C33.9698 21.8336 34.7507 22.2693 35.8001 22.2693C37.1911 22.2451 38.1428 21.5673 38.8017 20.1392Z"
              fill="#F5821F"/>
        <path d="M54.3713 13.8457C55.2254 13.8457 55.5427 13.8699 55.9332 14.0636C56.4456 14.3298 56.7873 14.9108 56.7873 15.5885C56.7873 16.2905 56.4456 16.8714 55.9332 17.1135C55.5427 17.3071 55.2254 17.3313 54.3713 17.3313H48.5877V22.9955C48.5877 23.9153 48.5632 24.2542 48.3192 24.7383C48.0264 25.295 47.3675 25.6823 46.5865 25.6823C45.8056 25.6823 45.1467 25.295 44.8539 24.7383C44.6099 24.2542 44.5854 23.9395 44.5854 22.9955V7.77006C44.5854 7.18912 44.5854 6.46295 45.1467 5.90622C45.708 5.34949 46.4401 5.34949 47.0258 5.34949H55.7867C56.6409 5.34949 56.9581 5.37369 57.3486 5.56734C57.861 5.8336 58.2027 6.41454 58.2027 7.0923C58.2027 7.77006 57.861 8.37521 57.3486 8.61726C56.9581 8.81091 56.6409 8.83511 55.7867 8.83511H48.6121V13.8215H54.3713V13.8457Z"
              fill="#F5821F"/>
        <path d="M71.8936 5.34949C72.4304 5.34949 72.6257 5.3979 72.8453 5.51893C73.1137 5.68837 73.2602 5.97884 73.2602 6.31772C73.2602 6.6566 73.1137 6.94707 72.8453 7.11651C72.6257 7.23754 72.4549 7.28595 71.8936 7.28595H62.669V14.4266H70.3317C70.8686 14.4266 71.0638 14.4751 71.2835 14.5961C71.5519 14.7655 71.6983 15.056 71.6983 15.3949C71.6983 15.7338 71.5519 16.0242 71.2835 16.1937C71.0638 16.3147 70.893 16.3631 70.3317 16.3631H62.669V23.6732H71.8936C72.4304 23.6732 72.6257 23.7216 72.8453 23.8427C73.1137 24.0121 73.2602 24.3026 73.2602 24.6415C73.2602 24.9803 73.1137 25.2708 72.8453 25.4403C72.6257 25.5613 72.4549 25.6097 71.8936 25.6097H61.7905C61.4488 25.6097 61.0583 25.6097 60.7655 25.3192C60.4727 25.0288 60.4727 24.6415 60.4727 24.3026V6.6566C60.4727 6.31772 60.4727 5.93042 60.7655 5.63996C61.0583 5.34949 61.4488 5.34949 61.7905 5.34949H71.8936Z"
              fill="#052569"/>
        <path d="M86.34 24.3268C86.34 24.8351 86.2912 25.0287 86.1447 25.2708C85.9983 25.5371 85.6567 25.7065 85.2906 25.7065C84.9246 25.7065 84.5829 25.5129 84.4365 25.2708C84.2901 25.0287 84.2413 24.8351 84.2413 24.3268V17.0166C84.2413 14.5234 82.9479 13.289 80.7759 13.289C78.6284 13.289 77.2374 14.5477 77.2374 17.0166V24.3268C77.2374 24.8351 77.1886 25.0287 77.0422 25.2708C76.8957 25.5371 76.5541 25.7065 76.188 25.7065C75.822 25.7065 75.4803 25.5129 75.3339 25.2708C75.1875 25.0287 75.1387 24.8351 75.1387 24.3268V12.8775C75.1387 12.3691 75.1631 12.1755 75.3339 11.9334C75.4803 11.6672 75.7976 11.4977 76.188 11.4977C76.5785 11.4977 76.8957 11.6914 77.0422 11.9334C77.1886 12.1997 77.2374 12.3933 77.2374 12.8775V13.1437C78.2623 12.0303 79.629 11.4251 81.1908 11.4251C82.7282 11.4251 83.9728 11.885 84.8513 12.7322C85.8519 13.7004 86.3156 15.0318 86.3156 16.6536V24.3268H86.34Z"
              fill="#052569"/>
        <path d="M97.6392 25.9486V23.7216C96.5166 25.1982 95.1744 25.5855 93.6614 25.5855C92.2215 25.5855 90.977 25.0772 90.2205 24.3268C88.805 22.9228 88.4878 20.7685 88.4878 18.4932C88.4878 16.2178 88.805 14.0635 90.2205 12.6596C90.977 11.9092 92.246 11.4251 93.6858 11.4251C95.2232 11.4251 96.4922 11.764 97.6392 13.2405V12.8775C97.6392 12.3691 97.6636 12.1755 97.8344 11.9334C97.9808 11.6672 98.2981 11.4977 98.6885 11.4977C99.079 11.4977 99.3962 11.6914 99.5427 11.9334C99.6891 12.1997 99.7379 12.3933 99.7379 12.8775V25.997C99.7379 29.4584 97.5171 32 93.7834 32C92.4412 32 91.5382 31.8063 90.6353 31.3222C90.1228 31.0318 89.1467 30.4024 89.1467 29.7973C89.1467 29.2163 89.6348 28.8532 90.0252 28.8532C90.3181 28.8532 90.5621 28.9743 91.0746 29.3858C91.8555 30.0151 92.734 30.233 93.7346 30.233C96.4678 30.2088 97.6392 28.3207 97.6392 25.9486ZM94.125 13.289C91.0502 13.289 90.5865 15.9032 90.5865 18.5174C90.5865 21.1316 91.0502 23.6974 94.125 23.6974C97.1999 23.6974 97.6148 21.0832 97.6148 18.4932C97.6148 15.9032 97.1999 13.289 94.125 13.289Z"
              fill="#052569"/>
        <path d="M103.887 4.93796C104.668 4.93796 105.302 5.56731 105.302 6.34189C105.302 7.11648 104.668 7.74583 103.887 7.74583C103.106 7.74583 102.471 7.11648 102.471 6.34189C102.471 5.56731 103.106 4.93796 103.887 4.93796ZM104.936 24.3268C104.936 24.8351 104.912 25.0287 104.741 25.2708C104.594 25.5371 104.277 25.7065 103.887 25.7065C103.496 25.7065 103.179 25.5128 103.032 25.2708C102.886 25.0045 102.837 24.8109 102.837 24.3268V12.8774C102.837 12.3691 102.862 12.1755 103.032 11.9334C103.179 11.6672 103.496 11.4977 103.887 11.4977C104.277 11.4977 104.594 11.6914 104.741 11.9334C104.887 12.1997 104.936 12.3933 104.936 12.8774V24.3268Z"
              fill="#052569"/>
        <path d="M119.261 24.3268C119.261 24.8351 119.212 25.0287 119.066 25.2708C118.919 25.5371 118.578 25.7065 118.211 25.7065C117.845 25.7065 117.504 25.5129 117.357 25.2708C117.211 25.0287 117.162 24.8351 117.162 24.3268V17.0166C117.162 14.5234 115.869 13.289 113.697 13.289C111.549 13.289 110.158 14.5477 110.158 17.0166V24.3268C110.158 24.8351 110.109 25.0287 109.963 25.2708C109.817 25.5371 109.475 25.7065 109.109 25.7065C108.743 25.7065 108.401 25.5129 108.255 25.2708C108.108 25.0287 108.06 24.8351 108.06 24.3268V12.8775C108.06 12.3691 108.084 12.1755 108.255 11.9334C108.401 11.6672 108.718 11.4977 109.109 11.4977C109.499 11.4977 109.817 11.6914 109.963 11.9334C110.109 12.1997 110.158 12.3933 110.158 12.8775V13.1437C111.183 12.0303 112.55 11.4251 114.112 11.4251C115.649 11.4251 116.894 11.885 117.772 12.7322C118.773 13.7004 119.236 15.0318 119.236 16.6536V24.3268H119.261Z"
              fill="#052569"/>
        <path d="M123.458 19.1225C123.458 22.1725 124.922 23.9637 127.656 23.9637C128.754 23.9637 129.827 23.6732 130.682 22.9471C131.121 22.584 131.341 22.4387 131.658 22.4387C132.097 22.4387 132.536 22.8744 132.536 23.3343C132.536 23.9637 131.633 24.593 131.072 24.9319C130.218 25.4402 128.998 25.7307 127.558 25.7307C123.824 25.7307 121.384 23.5038 121.384 18.5658C121.384 13.9425 123.653 11.4009 127.216 11.4009C130.804 11.4009 132.976 13.9909 133 17.8881C133 18.1785 132.976 18.5658 132.707 18.8321C132.439 19.0983 132.121 19.0983 131.78 19.0983H123.458V19.1225ZM130.926 17.5492C130.877 16.5567 130.804 16.0484 130.486 15.2738C129.949 13.9909 128.729 13.1921 127.192 13.1921C125.654 13.1921 124.41 14.0151 123.897 15.2738C123.58 16.0484 123.507 16.5567 123.458 17.5492H130.926Z"
              fill="#052569"/>
        <path d="M7.07703 0C7.85795 0 8.49245 0.629349 8.49245 1.40393C8.49245 2.17852 7.85795 2.80787 7.07703 2.80787C6.29612 2.80787 5.66162 2.17852 5.66162 1.40393C5.66162 0.629349 6.29612 0 7.07703 0Z"
              fill="#F5821F"/>
        <path d="M9.9076 0C10.6885 0 11.323 0.629349 11.323 1.40393C11.323 2.17852 10.6885 2.80787 9.9076 2.80787C9.12668 2.80787 8.49219 2.17852 8.49219 1.40393C8.49219 0.629349 9.12668 0 9.9076 0Z"
              fill="#F5821F"/>
        <path d="M12.7633 0C13.5442 0 14.1787 0.629349 14.1787 1.40393C14.1787 2.17852 13.5442 2.80787 12.7633 2.80787C11.9823 2.80787 11.3478 2.17852 11.3478 1.40393C11.3234 0.629349 11.9579 0 12.7633 0Z"
              fill="#F5821F"/>
        <path d="M7.07703 2.80786C7.85795 2.80786 8.49245 3.43721 8.49245 4.21179C8.49245 4.98638 7.85795 5.61573 7.07703 5.61573C6.29612 5.61573 5.66162 4.98638 5.66162 4.21179C5.66162 3.43721 6.29612 2.80786 7.07703 2.80786Z"
              fill="#F5821F"/>
        <path d="M9.9076 2.80786C10.6885 2.80786 11.323 3.43721 11.323 4.21179C11.323 4.98638 10.6885 5.61573 9.9076 5.61573C9.12668 5.61573 8.49219 4.98638 8.49219 4.21179C8.49219 3.43721 9.12668 2.80786 9.9076 2.80786Z"
              fill="#F5821F"/>
        <path d="M12.7633 2.80786C13.5442 2.80786 14.1787 3.43721 14.1787 4.21179C14.1787 4.98638 13.5442 5.61573 12.7633 5.61573C11.9823 5.61573 11.3478 4.98638 11.3478 4.21179C11.3234 3.43721 11.9579 2.80786 12.7633 2.80786Z"
              fill="#F5821F"/>
        <path d="M7.07703 8.42361C7.85795 8.42361 8.49245 9.05296 8.49245 9.82755C8.49245 10.6021 7.85795 11.2315 7.07703 11.2315C6.29612 11.2315 5.66162 10.6021 5.66162 9.82755C5.66162 9.05296 6.29612 8.42361 7.07703 8.42361Z"
              fill="#052569"/>
        <path d="M9.9076 8.42361C10.6885 8.42361 11.323 9.05296 11.323 9.82755C11.323 10.6021 10.6885 11.2315 9.9076 11.2315C9.12668 11.2315 8.49219 10.6021 8.49219 9.82755C8.49219 9.05296 9.12668 8.42361 9.9076 8.42361Z"
              fill="#052569"/>
        <path d="M12.7633 8.42361C13.5442 8.42361 14.1787 9.05296 14.1787 9.82755C14.1787 10.6021 13.5442 11.2315 12.7633 11.2315C11.9823 11.2315 11.3478 10.6021 11.3478 9.82755C11.3234 9.05296 11.9579 8.42361 12.7633 8.42361Z"
              fill="#052569"/>
        <path d="M7.07703 11.2315C7.85795 11.2315 8.49245 11.8608 8.49245 12.6354C8.49245 13.41 7.85795 14.0393 7.07703 14.0393C6.29612 14.0393 5.66162 13.41 5.66162 12.6354C5.66162 11.8608 6.29612 11.2315 7.07703 11.2315Z"
              fill="#052569"/>
        <path d="M9.9076 11.2315C10.6885 11.2315 11.323 11.8608 11.323 12.6354C11.323 13.41 10.6885 14.0393 9.9076 14.0393C9.12668 14.0393 8.49219 13.41 8.49219 12.6354C8.49219 11.8608 9.12668 11.2315 9.9076 11.2315Z"
              fill="#052569"/>
        <path d="M12.7633 11.2315C13.5442 11.2315 14.1787 11.8608 14.1787 12.6354C14.1787 13.41 13.5442 14.0393 12.7633 14.0393C11.9823 14.0393 11.3478 13.41 11.3478 12.6354C11.3234 11.8608 11.9579 11.2315 12.7633 11.2315Z"
              fill="#052569"/>
        <path d="M7.07703 14.0635C7.85795 14.0635 8.49245 14.6929 8.49245 15.4675C8.49245 16.2421 7.85795 16.8714 7.07703 16.8714C6.29612 16.8714 5.66162 16.2421 5.66162 15.4675C5.66162 14.6929 6.29612 14.0635 7.07703 14.0635Z"
              fill="#052569"/>
        <path d="M9.9076 14.0635C10.6885 14.0635 11.323 14.6929 11.323 15.4675C11.323 16.2421 10.6885 16.8714 9.9076 16.8714C9.12668 16.8714 8.49219 16.2421 8.49219 15.4675C8.49219 14.6929 9.12668 14.0635 9.9076 14.0635Z"
              fill="#052569"/>
        <path d="M12.7633 14.0635C13.5442 14.0635 14.1787 14.6929 14.1787 15.4675C14.1787 16.2421 13.5442 16.8714 12.7633 16.8714C11.9823 16.8714 11.3478 16.2421 11.3478 15.4675C11.3234 14.6929 11.9579 14.0635 12.7633 14.0635Z"
              fill="#052569"/>
        <path d="M1.41541 8.42361C2.19633 8.42361 2.83083 9.05296 2.83083 9.82755C2.83083 10.6021 2.19633 11.2315 1.41541 11.2315C0.634495 11.2315 0 10.6021 0 9.82755C0 9.05296 0.634495 8.42361 1.41541 8.42361Z"
              fill="#052569"/>
        <path d="M1.41541 11.2315C2.19633 11.2315 2.83083 11.8608 2.83083 12.6354C2.83083 13.41 2.19633 14.0393 1.41541 14.0393C0.634495 14.0393 0 13.41 0 12.6354C0 11.8608 0.634495 11.2315 1.41541 11.2315Z"
              fill="#052569"/>
        <path d="M1.41541 14.0635C2.19633 14.0635 2.83083 14.6929 2.83083 15.4675C2.83083 16.2421 2.19633 16.8714 1.41541 16.8714C0.634495 16.8714 0 16.2421 0 15.4675C0 14.6929 0.634495 14.0635 1.41541 14.0635Z"
              fill="#052569"/>
        <path d="M1.41541 16.8714C2.19633 16.8714 2.83083 17.5007 2.83083 18.2753C2.83083 19.0499 2.19633 19.6793 1.41541 19.6793C0.634495 19.6793 0 19.0499 0 18.2753C0 17.5007 0.634495 16.8714 1.41541 16.8714Z"
              fill="#052569"/>
        <path d="M18.4247 8.42361C19.2056 8.42361 19.8401 9.05296 19.8401 9.82755C19.8401 10.6021 19.2056 11.2315 18.4247 11.2315C17.6438 11.2315 17.0093 10.6021 17.0093 9.82755C17.0093 9.05296 17.6438 8.42361 18.4247 8.42361Z"
              fill="#052569"/>
        <path d="M18.4247 11.2315C19.2056 11.2315 19.8401 11.8608 19.8401 12.6354C19.8401 13.41 19.2056 14.0393 18.4247 14.0393C17.6438 14.0393 17.0093 13.41 17.0093 12.6354C17.0093 11.8608 17.6438 11.2315 18.4247 11.2315Z"
              fill="#052569"/>
        <path d="M18.4247 14.0635C19.2056 14.0635 19.8401 14.6929 19.8401 15.4675C19.8401 16.2421 19.2056 16.8714 18.4247 16.8714C17.6438 16.8714 17.0093 16.2421 17.0093 15.4675C17.0093 14.6929 17.6438 14.0635 18.4247 14.0635Z"
              fill="#052569"/>
        <path d="M18.4247 16.8714C19.2056 16.8714 19.8401 17.5007 19.8401 18.2753C19.8401 19.0499 19.2056 19.6793 18.4247 19.6793C17.6438 19.6793 17.0093 19.0499 17.0093 18.2753C17.0093 17.5007 17.6438 16.8714 18.4247 16.8714Z"
              fill="#052569"/>
        <path d="M7.07703 19.6793C7.85795 19.6793 8.49245 20.3086 8.49245 21.0832C8.49245 21.8578 7.85795 22.4872 7.07703 22.4872C6.29612 22.4872 5.66162 21.8578 5.66162 21.0832C5.66162 20.3086 6.29612 19.6793 7.07703 19.6793Z"
              fill="#052569"/>
        <path d="M7.07703 22.4871C7.85795 22.4871 8.49245 23.1165 8.49245 23.8911C8.49245 24.6656 7.85795 25.295 7.07703 25.295C6.29612 25.295 5.66162 24.6656 5.66162 23.8911C5.66162 23.1165 6.29612 22.4871 7.07703 22.4871Z"
              fill="#052569"/>
        <path d="M7.07703 25.295C7.85795 25.295 8.49245 25.9244 8.49245 26.6989C8.49245 27.4735 7.85795 28.1029 7.07703 28.1029C6.29612 28.1029 5.66162 27.4735 5.66162 26.6989C5.66162 25.9244 6.29612 25.295 7.07703 25.295Z"
              fill="#052569"/>
        <path d="M7.07703 28.1029C7.85795 28.1029 8.49245 28.7322 8.49245 29.5068C8.49245 30.2814 7.85795 30.9107 7.07703 30.9107C6.29612 30.9107 5.66162 30.2814 5.66162 29.5068C5.66162 28.7322 6.29612 28.1029 7.07703 28.1029Z"
              fill="#052569"/>
        <path d="M12.7633 19.6793C13.5442 19.6793 14.1787 20.3086 14.1787 21.0832C14.1787 21.8578 13.5442 22.4872 12.7633 22.4872C11.9823 22.4872 11.3478 21.8578 11.3478 21.0832C11.3234 20.3086 11.9579 19.6793 12.7633 19.6793Z"
              fill="#052569"/>
        <path d="M12.7633 22.4871C13.5442 22.4871 14.1787 23.1165 14.1787 23.8911C14.1787 24.6656 13.5442 25.295 12.7633 25.295C11.9823 25.295 11.3478 24.6656 11.3478 23.8911C11.3234 23.1165 11.9579 22.4871 12.7633 22.4871Z"
              fill="#052569"/>
        <path d="M12.7633 25.295C13.5442 25.295 14.1787 25.9244 14.1787 26.6989C14.1787 27.4735 13.5442 28.1029 12.7633 28.1029C11.9823 28.1029 11.3478 27.4735 11.3478 26.6989C11.3234 25.9244 11.9579 25.295 12.7633 25.295Z"
              fill="#052569"/>
        <path d="M12.7633 28.1029C13.5442 28.1029 14.1787 28.7322 14.1787 29.5068C14.1787 30.2814 13.5442 30.9107 12.7633 30.9107C11.9823 30.9107 11.3478 30.2814 11.3478 29.5068C11.3234 28.7322 11.9579 28.1029 12.7633 28.1029Z"
              fill="#052569"/>
        <path d="M9.9076 19.6793C10.6885 19.6793 11.323 20.3086 11.323 21.0832C11.323 21.8578 10.6885 22.4872 9.9076 22.4872C9.12668 22.4872 8.49219 21.8578 8.49219 21.0832C8.49219 20.3086 9.12668 19.6793 9.9076 19.6793Z"
              fill="#052569"/>
    </g>
    <defs>
        <clipPath id="clip0">
            <rect width="133" height="32" fill="none"/>
        </clipPath>
    </defs>
</svg>