<svg width="16" height="16" viewBox="0 0 16 16" fill="none" xmlns="http://www.w3.org/2000/svg">
<g clip-path="url(#clip0_564_11225)">
<path d="M0 2.55262C0 2.07104 0.210714 1.60918 0.585786 1.26865C0.960859 0.928124 1.46957 0.736816 2 0.736816L14 0.736816C14.5304 0.736816 15.0391 0.928124 15.4142 1.26865C15.7893 1.60918 16 2.07104 16 2.55262V9.81583C16 10.2974 15.7893 10.7593 15.4142 11.0998C15.0391 11.4403 14.5304 11.6316 14 11.6316H11.5C11.3448 11.6316 11.1916 11.6644 11.0528 11.7275C10.9139 11.7905 10.7931 11.882 10.7 11.9948L8.8 14.2945C8.70685 14.4073 8.58607 14.4988 8.44721 14.5618C8.30836 14.6249 8.15524 14.6577 8 14.6577C7.84475 14.6577 7.69164 14.6249 7.55279 14.5618C7.41393 14.4988 7.29315 14.4073 7.2 14.2945L5.3 11.9948C5.20685 11.882 5.08607 11.7905 4.94721 11.7275C4.80836 11.6644 4.65525 11.6316 4.5 11.6316H2C1.46957 11.6316 0.960859 11.4403 0.585786 11.0998C0.210714 10.7593 0 10.2974 0 9.81583V2.55262ZM5 6.18422C5 5.94343 4.89464 5.71251 4.70711 5.54224C4.51957 5.37198 4.26522 5.27632 4 5.27632C3.73478 5.27632 3.48043 5.37198 3.29289 5.54224C3.10536 5.71251 3 5.94343 3 6.18422C3 6.42501 3.10536 6.65594 3.29289 6.82621C3.48043 6.99647 3.73478 7.09213 4 7.09213C4.26522 7.09213 4.51957 6.99647 4.70711 6.82621C4.89464 6.65594 5 6.42501 5 6.18422ZM9 6.18422C9 5.94343 8.89464 5.71251 8.70711 5.54224C8.51957 5.37198 8.26522 5.27632 8 5.27632C7.73478 5.27632 7.48043 5.37198 7.29289 5.54224C7.10536 5.71251 7 5.94343 7 6.18422C7 6.42501 7.10536 6.65594 7.29289 6.82621C7.48043 6.99647 7.73478 7.09213 8 7.09213C8.26522 7.09213 8.51957 6.99647 8.70711 6.82621C8.89464 6.65594 9 6.42501 9 6.18422ZM12 7.09213C12.2652 7.09213 12.5196 6.99647 12.7071 6.82621C12.8946 6.65594 13 6.42501 13 6.18422C13 5.94343 12.8946 5.71251 12.7071 5.54224C12.5196 5.37198 12.2652 5.27632 12 5.27632C11.7348 5.27632 11.4804 5.37198 11.2929 5.54224C11.1054 5.71251 11 5.94343 11 6.18422C11 6.42501 11.1054 6.65594 11.2929 6.82621C11.4804 6.99647 11.7348 7.09213 12 7.09213Z" fill="#0B132A"/>
</g>
<defs>
<clipPath id="clip0_564_11225">
<rect width="16" height="14.5264" fill="white" transform="translate(0 0.736816)"/>
</clipPath>
</defs>
</svg>
