<svg width="16" height="25" viewBox="0 0 16 25" fill="none" xmlns="http://www.w3.org/2000/svg">
<style>
    @media (prefers-color-scheme: dark) {
        path {
            fill: #E5E5E5;
        }
        .head {
            fill: #F9AB2D;
        }
    }
</style>
<path class="head" d="M5.66163 0C6.28636 0 6.79396 0.50348 6.79396 1.12315C6.79396 1.74281 6.28636 2.24629 5.66163 2.24629C5.03689 2.24629 4.5293 1.74281 4.5293 1.12315C4.5293 0.50348 5.03689 0 5.66163 0Z" fill="#F5821F"/>
<path class="head" d="M7.92628 0C8.55101 0 9.05861 0.50348 9.05861 1.12315C9.05861 1.74281 8.55101 2.24629 7.92628 2.24629C7.30154 2.24629 6.79395 1.74281 6.79395 1.12315C6.79395 0.50348 7.30154 0 7.92628 0Z" fill="#F5821F"/>
<path class="head" d="M10.2105 0C10.8352 0 11.3428 0.50348 11.3428 1.12315C11.3428 1.74281 10.8352 2.24629 10.2105 2.24629C9.58578 2.24629 9.07818 1.74281 9.07818 1.12315C9.05866 0.50348 9.56625 0 10.2105 0Z" fill="#F5821F"/>
<path class="head" d="M5.66163 2.24628C6.28636 2.24628 6.79396 2.74976 6.79396 3.36942C6.79396 3.98909 6.28636 4.49257 5.66163 4.49257C5.03689 4.49257 4.5293 3.98909 4.5293 3.36942C4.5293 2.74976 5.03689 2.24628 5.66163 2.24628Z" fill="#F5821F"/>
<path class="head" d="M7.92628 2.24628C8.55101 2.24628 9.05861 2.74976 9.05861 3.36942C9.05861 3.98909 8.55101 4.49257 7.92628 4.49257C7.30154 4.49257 6.79395 3.98909 6.79395 3.36942C6.79395 2.74976 7.30154 2.24628 7.92628 2.24628Z" fill="#F5821F"/>
<path class="head" d="M10.2105 2.24628C10.8352 2.24628 11.3428 2.74976 11.3428 3.36942C11.3428 3.98909 10.8352 4.49257 10.2105 4.49257C9.58578 4.49257 9.07818 3.98909 9.07818 3.36942C9.05866 2.74976 9.56625 2.24628 10.2105 2.24628Z" fill="#F5821F"/>
<path d="M5.66163 6.73889C6.28636 6.73889 6.79396 7.24237 6.79396 7.86204C6.79396 8.48171 6.28636 8.98519 5.66163 8.98519C5.03689 8.98519 4.5293 8.48171 4.5293 7.86204C4.5293 7.24237 5.03689 6.73889 5.66163 6.73889Z" fill="#052569"/>
<path d="M7.92628 6.73889C8.55101 6.73889 9.05861 7.24237 9.05861 7.86204C9.05861 8.48171 8.55101 8.98519 7.92628 8.98519C7.30154 8.98519 6.79395 8.48171 6.79395 7.86204C6.79395 7.24237 7.30154 6.73889 7.92628 6.73889Z" fill="#052569"/>
<path d="M10.2105 6.73889C10.8352 6.73889 11.3428 7.24237 11.3428 7.86204C11.3428 8.48171 10.8352 8.98519 10.2105 8.98519C9.58578 8.98519 9.07818 8.48171 9.07818 7.86204C9.05866 7.24237 9.56625 6.73889 10.2105 6.73889Z" fill="#052569"/>
<path d="M5.66163 8.98517C6.28636 8.98517 6.79396 9.48865 6.79396 10.1083C6.79396 10.728 6.28636 11.2315 5.66163 11.2315C5.03689 11.2315 4.5293 10.728 4.5293 10.1083C4.5293 9.48865 5.03689 8.98517 5.66163 8.98517Z" fill="#052569"/>
<path d="M7.92628 8.98517C8.55101 8.98517 9.05861 9.48865 9.05861 10.1083C9.05861 10.728 8.55101 11.2315 7.92628 11.2315C7.30154 11.2315 6.79395 10.728 6.79395 10.1083C6.79395 9.48865 7.30154 8.98517 7.92628 8.98517Z" fill="#052569"/>
<path d="M10.2105 8.98517C10.8352 8.98517 11.3428 9.48865 11.3428 10.1083C11.3428 10.728 10.8352 11.2315 10.2105 11.2315C9.58578 11.2315 9.07818 10.728 9.07818 10.1083C9.05866 9.48865 9.56625 8.98517 10.2105 8.98517Z" fill="#052569"/>
<path d="M5.66163 11.2509C6.28636 11.2509 6.79396 11.7543 6.79396 12.374C6.79396 12.9937 6.28636 13.4971 5.66163 13.4971C5.03689 13.4971 4.5293 12.9937 4.5293 12.374C4.5293 11.7543 5.03689 11.2509 5.66163 11.2509Z" fill="#052569"/>
<path d="M7.92628 11.2509C8.55101 11.2509 9.05861 11.7543 9.05861 12.374C9.05861 12.9937 8.55101 13.4971 7.92628 13.4971C7.30154 13.4971 6.79395 12.9937 6.79395 12.374C6.79395 11.7543 7.30154 11.2509 7.92628 11.2509Z" fill="#052569"/>
<path d="M10.2105 11.2509C10.8352 11.2509 11.3428 11.7543 11.3428 12.374C11.3428 12.9937 10.8352 13.4971 10.2105 13.4971C9.58578 13.4971 9.07818 12.9937 9.07818 12.374C9.05866 11.7543 9.56625 11.2509 10.2105 11.2509Z" fill="#052569"/>
<path d="M1.13233 6.73889C1.75706 6.73889 2.26466 7.24237 2.26466 7.86204C2.26466 8.48171 1.75706 8.98519 1.13233 8.98519C0.507596 8.98519 0 8.48171 0 7.86204C0 7.24237 0.507596 6.73889 1.13233 6.73889Z" fill="#052569"/>
<path d="M1.13233 8.98517C1.75706 8.98517 2.26466 9.48865 2.26466 10.1083C2.26466 10.728 1.75706 11.2315 1.13233 11.2315C0.507596 11.2315 0 10.728 0 10.1083C0 9.48865 0.507596 8.98517 1.13233 8.98517Z" fill="#052569"/>
<path d="M1.13233 11.2509C1.75706 11.2509 2.26466 11.7543 2.26466 12.374C2.26466 12.9937 1.75706 13.4971 1.13233 13.4971C0.507596 13.4971 0 12.9937 0 12.374C0 11.7543 0.507596 11.2509 1.13233 11.2509Z" fill="#052569"/>
<path d="M1.13233 13.4971C1.75706 13.4971 2.26466 14.0006 2.26466 14.6203C2.26466 15.2399 1.75706 15.7434 1.13233 15.7434C0.507596 15.7434 0 15.2399 0 14.6203C0 14.0006 0.507596 13.4971 1.13233 13.4971Z" fill="#052569"/>
<path d="M14.7398 6.73889C15.3645 6.73889 15.8721 7.24237 15.8721 7.86204C15.8721 8.48171 15.3645 8.98519 14.7398 8.98519C14.115 8.98519 13.6074 8.48171 13.6074 7.86204C13.6074 7.24237 14.115 6.73889 14.7398 6.73889Z" fill="#052569"/>
<path d="M14.7398 8.98517C15.3645 8.98517 15.8721 9.48865 15.8721 10.1083C15.8721 10.728 15.3645 11.2315 14.7398 11.2315C14.115 11.2315 13.6074 10.728 13.6074 10.1083C13.6074 9.48865 14.115 8.98517 14.7398 8.98517Z" fill="#052569"/>
<path d="M14.7398 11.2509C15.3645 11.2509 15.8721 11.7543 15.8721 12.374C15.8721 12.9937 15.3645 13.4971 14.7398 13.4971C14.115 13.4971 13.6074 12.9937 13.6074 12.374C13.6074 11.7543 14.115 11.2509 14.7398 11.2509Z" fill="#052569"/>
<path d="M14.7398 13.4971C15.3645 13.4971 15.8721 14.0006 15.8721 14.6203C15.8721 15.2399 15.3645 15.7434 14.7398 15.7434C14.115 15.7434 13.6074 15.2399 13.6074 14.6203C13.6074 14.0006 14.115 13.4971 14.7398 13.4971Z" fill="#052569"/>
<path d="M5.66163 15.7434C6.28636 15.7434 6.79396 16.2469 6.79396 16.8666C6.79396 17.4862 6.28636 17.9897 5.66163 17.9897C5.03689 17.9897 4.5293 17.4862 4.5293 16.8666C4.5293 16.2469 5.03689 15.7434 5.66163 15.7434Z" fill="#052569"/>
<path d="M5.66163 17.9897C6.28636 17.9897 6.79396 18.4932 6.79396 19.1128C6.79396 19.7325 6.28636 20.236 5.66163 20.236C5.03689 20.236 4.5293 19.7325 4.5293 19.1128C4.5293 18.4932 5.03689 17.9897 5.66163 17.9897Z" fill="#052569"/>
<path d="M5.66163 20.236C6.28636 20.236 6.79396 20.7395 6.79396 21.3592C6.79396 21.9788 6.28636 22.4823 5.66163 22.4823C5.03689 22.4823 4.5293 21.9788 4.5293 21.3592C4.5293 20.7395 5.03689 20.236 5.66163 20.236Z" fill="#052569"/>
<path d="M5.66163 22.4823C6.28636 22.4823 6.79396 22.9858 6.79396 23.6054C6.79396 24.2251 6.28636 24.7286 5.66163 24.7286C5.03689 24.7286 4.5293 24.2251 4.5293 23.6054C4.5293 22.9858 5.03689 22.4823 5.66163 22.4823Z" fill="#052569"/>
<path d="M10.2105 15.7434C10.8352 15.7434 11.3428 16.2469 11.3428 16.8666C11.3428 17.4862 10.8352 17.9897 10.2105 17.9897C9.58578 17.9897 9.07818 17.4862 9.07818 16.8666C9.05866 16.2469 9.56625 15.7434 10.2105 15.7434Z" fill="#052569"/>
<path d="M10.2105 17.9897C10.8352 17.9897 11.3428 18.4932 11.3428 19.1128C11.3428 19.7325 10.8352 20.236 10.2105 20.236C9.58578 20.236 9.07818 19.7325 9.07818 19.1128C9.05866 18.4932 9.56625 17.9897 10.2105 17.9897Z" fill="#052569"/>
<path d="M10.2105 20.236C10.8352 20.236 11.3428 20.7395 11.3428 21.3592C11.3428 21.9788 10.8352 22.4823 10.2105 22.4823C9.58578 22.4823 9.07818 21.9788 9.07818 21.3592C9.05866 20.7395 9.56625 20.236 10.2105 20.236Z" fill="#052569"/>
<path d="M10.2105 22.4823C10.8352 22.4823 11.3428 22.9858 11.3428 23.6054C11.3428 24.2251 10.8352 24.7286 10.2105 24.7286C9.58578 24.7286 9.07818 24.2251 9.07818 23.6054C9.05866 22.9858 9.56625 22.4823 10.2105 22.4823Z" fill="#052569"/>
<path d="M7.92628 15.7434C8.55101 15.7434 9.05861 16.2469 9.05861 16.8666C9.05861 17.4862 8.55101 17.9897 7.92628 17.9897C7.30154 17.9897 6.79395 17.4862 6.79395 16.8666C6.79395 16.2469 7.30154 15.7434 7.92628 15.7434Z" fill="#052569"/>
</svg>
